<svg version="1.1" xmlns="http://www.w3.org/2000/svg" xmlns:xlink="http://www.w3.org/1999/xlink" width="1131.88623046875" height="1236"><defs/><g><g transform="translate(-510,-502) scale(1,1)"><rect fill="#C0C0C0" stroke="none" x="1007" y="1247" width="175.88623046875" height="80" opacity="0.2"/></g><g transform="translate(-510,-502) scale(1,1)"><rect fill="#ffffff" stroke="none" x="1000" y="1240" width="175.88623046875" height="80"/></g><g transform="translate(-510,-502) scale(1,1)"><path fill="none" stroke="#000000" d="M 1000 1240 L 1175.88623046875 1240 L 1175.88623046875 1320 L 1000 1320 L 1000 1240 Z Z" stroke-miterlimit="10"/></g><g transform="translate(-510,-502) scale(1,1)"><path fill="none" stroke="#000000" d="M 1000 1278 L 1175.88623046875 1278" stroke-miterlimit="10"/></g><g transform="translate(-510,-502) scale(1,1)"><path fill="none" stroke="#000000" d="M 1000 1288 L 1175.88623046875 1288" stroke-miterlimit="10"/></g><g transform="translate(-510,-502) scale(1,1)"><g><path fill="none" stroke="none"/><text fill="#000000" stroke="none" font-family="Arial" font-size="13px" font-style="normal" font-weight="normal" text-decoration="none" x="1055.78271484375" y="1257.5">«interface»</text></g></g><g transform="translate(-510,-502) scale(1,1)"><g><path fill="none" stroke="none"/><text fill="#000000" stroke="none" font-family="Arial" font-size="13px" font-style="normal" font-weight="bold" text-decoration="none" x="1064.09814453125" y="1272.5">Teacher</text></g></g><g transform="translate(-510,-502) scale(1,1)"><g><path fill="none" stroke="none"/><text fill="#000000" stroke="none" font-family="Arial" font-size="13px" font-style="normal" font-weight="normal" text-decoration="none" x="1005" y="1305.5">+teach()</text></g></g><g transform="translate(-510,-502) scale(1,1)"><rect fill="#C0C0C0" stroke="none" x="671" y="1351" width="175.88623046875" height="72" opacity="0.2"/></g><g transform="translate(-510,-502) scale(1,1)"><rect fill="#ffffff" stroke="none" x="664" y="1344" width="175.88623046875" height="72"/></g><g transform="translate(-510,-502) scale(1,1)"><path fill="none" stroke="#000000" d="M 664 1344 L 839.88623046875 1344 L 839.88623046875 1416 L 664 1416 L 664 1344 Z Z" stroke-miterlimit="10"/></g><g transform="translate(-510,-502) scale(1,1)"><path fill="none" stroke="#000000" d="M 664 1369 L 839.88623046875 1369" stroke-miterlimit="10"/></g><g transform="translate(-510,-502) scale(1,1)"><path fill="none" stroke="#000000" d="M 664 1379 L 839.88623046875 1379" stroke-miterlimit="10"/></g><g transform="translate(-510,-502) scale(1,1)"><g><path fill="none" stroke="none"/><text fill="#000000" stroke="none" font-family="Arial" font-size="13px" font-style="normal" font-weight="bold" text-decoration="none" x="714.3681640625" y="1363.5">JavaTeacher</text></g></g><g transform="translate(-510,-502) scale(1,1)"><g><path fill="none" stroke="none"/><text fill="#000000" stroke="none" font-family="Arial" font-size="13px" font-style="normal" font-weight="normal" text-decoration="none" x="669" y="1396.5">+teach()</text></g></g><g transform="translate(-510,-502) scale(1,1)"><rect fill="#C0C0C0" stroke="none" x="1335" y="1351" width="175.88623046875" height="72" opacity="0.2"/></g><g transform="translate(-510,-502) scale(1,1)"><rect fill="#ffffff" stroke="none" x="1328" y="1344" width="175.88623046875" height="72"/></g><g transform="translate(-510,-502) scale(1,1)"><path fill="none" stroke="#000000" d="M 1328 1344 L 1503.88623046875 1344 L 1503.88623046875 1416 L 1328 1416 L 1328 1344 Z Z" stroke-miterlimit="10"/></g><g transform="translate(-510,-502) scale(1,1)"><path fill="none" stroke="#000000" d="M 1328 1369 L 1503.88623046875 1369" stroke-miterlimit="10"/></g><g transform="translate(-510,-502) scale(1,1)"><path fill="none" stroke="#000000" d="M 1328 1379 L 1503.88623046875 1379" stroke-miterlimit="10"/></g><g transform="translate(-510,-502) scale(1,1)"><g><path fill="none" stroke="none"/><text fill="#000000" stroke="none" font-family="Arial" font-size="13px" font-style="normal" font-weight="bold" text-decoration="none" x="1371.86181640625" y="1363.5">PythonTeacher</text></g></g><g transform="translate(-510,-502) scale(1,1)"><g><path fill="none" stroke="none"/><text fill="#000000" stroke="none" font-family="Arial" font-size="13px" font-style="normal" font-weight="normal" text-decoration="none" x="1333" y="1396.5">+teach()</text></g></g><g transform="translate(-510,-502) scale(1,1)"><rect fill="#C0C0C0" stroke="none" x="999" y="1023" width="175.88623046875" height="70" opacity="0.2"/></g><g transform="translate(-510,-502) scale(1,1)"><rect fill="#ffffff" stroke="none" x="992" y="1016" width="175.88623046875" height="70"/></g><g transform="translate(-510,-502) scale(1,1)"><path fill="none" stroke="#000000" d="M 992 1016 L 1167.88623046875 1016 L 1167.88623046875 1086 L 992 1086 L 992 1016 Z Z" stroke-miterlimit="10"/></g><g transform="translate(-510,-502) scale(1,1)"><path fill="none" stroke="#000000" d="M 992 1054 L 1167.88623046875 1054" stroke-miterlimit="10"/></g><g transform="translate(-510,-502) scale(1,1)"><path fill="none" stroke="#000000" d="M 992 1064 L 1167.88623046875 1064" stroke-miterlimit="10"/></g><g transform="translate(-510,-502) scale(1,1)"><g><path fill="none" stroke="none"/><text fill="#000000" stroke="none" font-family="Arial" font-size="13px" font-style="normal" font-weight="normal" text-decoration="none" x="1047.78271484375" y="1033.5">«interface»</text></g></g><g transform="translate(-510,-502) scale(1,1)"><g><path fill="none" stroke="none"/><text fill="#000000" stroke="none" font-family="Arial" font-size="13px" font-style="normal" font-weight="bold" text-decoration="none" x="1047.43994140625" y="1048.5">HomeWork</text></g></g><g transform="translate(-510,-502) scale(1,1)"><g><path fill="none" stroke="none"/><text fill="#000000" stroke="none" font-family="Arial" font-size="13px" font-style="normal" font-weight="normal" text-decoration="none" x="997" y="1081.5">+desc()</text></g></g><g transform="translate(-510,-502) scale(1,1)"><rect fill="#C0C0C0" stroke="none" x="887" y="1151" width="175.88623046875" height="72" opacity="0.2"/></g><g transform="translate(-510,-502) scale(1,1)"><rect fill="#ffffff" stroke="none" x="880" y="1144" width="175.88623046875" height="72"/></g><g transform="translate(-510,-502) scale(1,1)"><path fill="none" stroke="#000000" d="M 880 1144 L 1055.88623046875 1144 L 1055.88623046875 1216 L 880 1216 L 880 1144 Z Z" stroke-miterlimit="10"/></g><g transform="translate(-510,-502) scale(1,1)"><path fill="none" stroke="#000000" d="M 880 1169 L 1055.88623046875 1169" stroke-miterlimit="10"/></g><g transform="translate(-510,-502) scale(1,1)"><path fill="none" stroke="#000000" d="M 880 1179 L 1055.88623046875 1179" stroke-miterlimit="10"/></g><g transform="translate(-510,-502) scale(1,1)"><g><path fill="none" stroke="none"/><text fill="#000000" stroke="none" font-family="Arial" font-size="13px" font-style="normal" font-weight="bold" text-decoration="none" x="921.7099609375" y="1163.5">JavaHomeWork</text></g></g><g transform="translate(-510,-502) scale(1,1)"><g><path fill="none" stroke="none"/><text fill="#000000" stroke="none" font-family="Arial" font-size="13px" font-style="normal" font-weight="normal" text-decoration="none" x="885" y="1196.5">+desc()</text></g></g><g transform="translate(-510,-502) scale(1,1)"><rect fill="#C0C0C0" stroke="none" x="1119" y="1151" width="175.88623046875" height="72" opacity="0.2"/></g><g transform="translate(-510,-502) scale(1,1)"><rect fill="#ffffff" stroke="none" x="1112" y="1144" width="175.88623046875" height="72"/></g><g transform="translate(-510,-502) scale(1,1)"><path fill="none" stroke="#000000" d="M 1112 1144 L 1287.88623046875 1144 L 1287.88623046875 1216 L 1112 1216 L 1112 1144 Z Z" stroke-miterlimit="10"/></g><g transform="translate(-510,-502) scale(1,1)"><path fill="none" stroke="#000000" d="M 1112 1169 L 1287.88623046875 1169" stroke-miterlimit="10"/></g><g transform="translate(-510,-502) scale(1,1)"><path fill="none" stroke="#000000" d="M 1112 1179 L 1287.88623046875 1179" stroke-miterlimit="10"/></g><g transform="translate(-510,-502) scale(1,1)"><g><path fill="none" stroke="none"/><text fill="#000000" stroke="none" font-family="Arial" font-size="13px" font-style="normal" font-weight="bold" text-decoration="none" x="1147.20361328125" y="1163.5">PythonHomeWork</text></g></g><g transform="translate(-510,-502) scale(1,1)"><g><path fill="none" stroke="none"/><text fill="#000000" stroke="none" font-family="Arial" font-size="13px" font-style="normal" font-weight="normal" text-decoration="none" x="1117" y="1196.5">+desc()</text></g></g><g transform="translate(-510,-502) scale(1,1)"><rect fill="#C0C0C0" stroke="none" x="1007" y="1455" width="175.88623046875" height="70" opacity="0.2"/></g><g transform="translate(-510,-502) scale(1,1)"><rect fill="#ffffff" stroke="none" x="1000" y="1448" width="175.88623046875" height="70"/></g><g transform="translate(-510,-502) scale(1,1)"><path fill="none" stroke="#000000" d="M 1000 1448 L 1175.88623046875 1448 L 1175.88623046875 1518 L 1000 1518 L 1000 1448 Z Z" stroke-miterlimit="10"/></g><g transform="translate(-510,-502) scale(1,1)"><path fill="none" stroke="#000000" d="M 1000 1486 L 1175.88623046875 1486" stroke-miterlimit="10"/></g><g transform="translate(-510,-502) scale(1,1)"><path fill="none" stroke="#000000" d="M 1000 1496 L 1175.88623046875 1496" stroke-miterlimit="10"/></g><g transform="translate(-510,-502) scale(1,1)"><g><path fill="none" stroke="none"/><text fill="#000000" stroke="none" font-family="Arial" font-size="13px" font-style="normal" font-weight="normal" text-decoration="none" x="1055.78271484375" y="1465.5">«interface»</text></g></g><g transform="translate(-510,-502) scale(1,1)"><g><path fill="none" stroke="none"/><text fill="#000000" stroke="none" font-family="Arial" font-size="13px" font-style="normal" font-weight="bold" text-decoration="none" x="1065.535888671875" y="1480.5">Student</text></g></g><g transform="translate(-510,-502) scale(1,1)"><g><path fill="none" stroke="none"/><text fill="#000000" stroke="none" font-family="Arial" font-size="13px" font-style="normal" font-weight="normal" text-decoration="none" x="1005" y="1513.5">+study()</text></g></g><g transform="translate(-510,-502) scale(1,1)"><rect fill="#C0C0C0" stroke="none" x="527" y="1639" width="175.88623046875" height="72" opacity="0.2"/></g><g transform="translate(-510,-502) scale(1,1)"><rect fill="#ffffff" stroke="none" x="520" y="1632" width="175.88623046875" height="72"/></g><g transform="translate(-510,-502) scale(1,1)"><path fill="none" stroke="#000000" d="M 520 1632 L 695.88623046875 1632 L 695.88623046875 1704 L 520 1704 L 520 1632 Z Z" stroke-miterlimit="10"/></g><g transform="translate(-510,-502) scale(1,1)"><path fill="none" stroke="#000000" d="M 520 1657 L 695.88623046875 1657" stroke-miterlimit="10"/></g><g transform="translate(-510,-502) scale(1,1)"><path fill="none" stroke="#000000" d="M 520 1667 L 695.88623046875 1667" stroke-miterlimit="10"/></g><g transform="translate(-510,-502) scale(1,1)"><g><path fill="none" stroke="none"/><text fill="#000000" stroke="none" font-family="Arial" font-size="13px" font-style="normal" font-weight="bold" text-decoration="none" x="571.805908203125" y="1651.5">JavaStudent</text></g></g><g transform="translate(-510,-502) scale(1,1)"><g><path fill="none" stroke="none"/><text fill="#000000" stroke="none" font-family="Arial" font-size="13px" font-style="normal" font-weight="normal" text-decoration="none" x="525" y="1684.5">+study()</text></g></g><g transform="translate(-510,-502) scale(1,1)"><path fill="none" stroke="#000000" d="M 697 1633 L 999 1517" stroke-miterlimit="10" stroke-dasharray="3"/></g><g transform="translate(-510,-502) scale(1,1)"><path fill="#FFFFFF" stroke="none" d="M 983.0449570854006 1532.1471649358318 L 999 1517 L 977.0074179190866 1516.428744002842"/></g><g transform="translate(-510,-502) scale(1,1)"><path fill="none" stroke="#000000" d="M 983.0449570854006 1532.1471649358318 L 999 1517 L 977.0074179190866 1516.428744002842 L 983.0449570854006 1532.1471649358318" stroke-miterlimit="10"/></g><g transform="translate(-510,-502) scale(1,1)"><path fill="none" stroke="#000000" d="M 697 1633 L 999 1517" stroke-miterlimit="10" stroke-dasharray="3"/></g><g transform="translate(-510,-502) scale(1,1)"><path fill="#FFFFFF" stroke="none" d="M 983.0449570854006 1532.1471649358318 L 999 1517 L 977.0074179190866 1516.428744002842"/></g><g transform="translate(-510,-502) scale(1,1)"><path fill="none" stroke="#000000" d="M 983.0449570854006 1532.1471649358318 L 999 1517 L 977.0074179190866 1516.428744002842 L 983.0449570854006 1532.1471649358318" stroke-miterlimit="10"/></g><g transform="translate(-510,-502) scale(1,1)"><rect fill="#C0C0C0" stroke="none" x="1463" y="1663" width="175.88623046875" height="72" opacity="0.2"/></g><g transform="translate(-510,-502) scale(1,1)"><rect fill="#ffffff" stroke="none" x="1456" y="1656" width="175.88623046875" height="72"/></g><g transform="translate(-510,-502) scale(1,1)"><path fill="none" stroke="#000000" d="M 1456 1656 L 1631.88623046875 1656 L 1631.88623046875 1728 L 1456 1728 L 1456 1656 Z Z" stroke-miterlimit="10"/></g><g transform="translate(-510,-502) scale(1,1)"><path fill="none" stroke="#000000" d="M 1456 1681 L 1631.88623046875 1681" stroke-miterlimit="10"/></g><g transform="translate(-510,-502) scale(1,1)"><path fill="none" stroke="#000000" d="M 1456 1691 L 1631.88623046875 1691" stroke-miterlimit="10"/></g><g transform="translate(-510,-502) scale(1,1)"><g><path fill="none" stroke="none"/><text fill="#000000" stroke="none" font-family="Arial" font-size="13px" font-style="normal" font-weight="bold" text-decoration="none" x="1501.299560546875" y="1675.5">PythonStudent</text></g></g><g transform="translate(-510,-502) scale(1,1)"><g><path fill="none" stroke="none"/><text fill="#000000" stroke="none" font-family="Arial" font-size="13px" font-style="normal" font-weight="normal" text-decoration="none" x="1461" y="1708.5">+study()</text></g></g><g transform="translate(-510,-502) scale(1,1)"><path fill="none" stroke="#000000" d="M 1462 1655 L 1166 1519" stroke-miterlimit="10" stroke-dasharray="3"/></g><g transform="translate(-510,-502) scale(1,1)"><path fill="#FFFFFF" stroke="none" d="M 1187.9841234022674 1519.835654374656 L 1166 1519 L 1180.9542258611375 1535.1360196112325"/></g><g transform="translate(-510,-502) scale(1,1)"><path fill="none" stroke="#000000" d="M 1187.9841234022674 1519.835654374656 L 1166 1519 L 1180.9542258611375 1535.1360196112325 L 1187.9841234022674 1519.835654374656" stroke-miterlimit="10"/></g><g transform="translate(-510,-502) scale(1,1)"><path fill="none" stroke="#000000" d="M 841 1353 L 999 1306" stroke-miterlimit="10" stroke-dasharray="3"/></g><g transform="translate(-510,-502) scale(1,1)"><path fill="#FFFFFF" stroke="none" d="M 981.9187669051065 1319.864756613728 L 999 1306 L 977.1178808265046 1303.7256076686408"/></g><g transform="translate(-510,-502) scale(1,1)"><path fill="none" stroke="#000000" d="M 981.9187669051065 1319.864756613728 L 999 1306 L 977.1178808265046 1303.7256076686408 L 981.9187669051065 1319.864756613728" stroke-miterlimit="10"/></g><g transform="translate(-510,-502) scale(1,1)"><path fill="none" stroke="#000000" d="M 1327 1353 L 1177 1307" stroke-miterlimit="10" stroke-dasharray="3"/></g><g transform="translate(-510,-502) scale(1,1)"><path fill="#FFFFFF" stroke="none" d="M 1198.900512789583 1304.9101340824552 L 1177 1307 L 1193.9637594670435 1321.0082427429102"/></g><g transform="translate(-510,-502) scale(1,1)"><path fill="none" stroke="#000000" d="M 1198.900512789583 1304.9101340824552 L 1177 1307 L 1193.9637594670435 1321.0082427429102 L 1198.900512789583 1304.9101340824552" stroke-miterlimit="10"/></g><g transform="translate(-510,-502) scale(1,1)"><path fill="none" stroke="#000000" d="M 999 1143 L 1048 1087" stroke-miterlimit="10" stroke-dasharray="3"/></g><g transform="translate(-510,-502) scale(1,1)"><path fill="#FFFFFF" stroke="none" d="M 1040.9516334742348 1107.8403581859448 L 1048 1087 L 1028.2796936377051 1096.7524108289813"/></g><g transform="translate(-510,-502) scale(1,1)"><path fill="none" stroke="#000000" d="M 1040.9516334742348 1107.8403581859448 L 1048 1087 L 1028.2796936377051 1096.7524108289813 L 1040.9516334742348 1107.8403581859448" stroke-miterlimit="10"/></g><g transform="translate(-510,-502) scale(1,1)"><path fill="none" stroke="#000000" d="M 1165 1143 L 1112 1087" stroke-miterlimit="10" stroke-dasharray="3"/></g><g transform="translate(-510,-502) scale(1,1)"><path fill="#FFFFFF" stroke="none" d="M 1132.0860268785732 1095.9750500964192 L 1112 1087 L 1119.8566470282674 1107.5492845976014"/></g><g transform="translate(-510,-502) scale(1,1)"><path fill="none" stroke="#000000" d="M 1132.0860268785732 1095.9750500964192 L 1112 1087 L 1119.8566470282674 1107.5492845976014 L 1132.0860268785732 1095.9750500964192" stroke-miterlimit="10"/></g><g transform="translate(-510,-502) scale(1,1)"><rect fill="#C0C0C0" stroke="none" x="975" y="711" width="264.04248046875" height="100" opacity="0.2"/></g><g transform="translate(-510,-502) scale(1,1)"><rect fill="#ffffff" stroke="none" x="968" y="704" width="264.04248046875" height="100"/></g><g transform="translate(-510,-502) scale(1,1)"><path fill="none" stroke="#000000" d="M 968 704 L 1232.04248046875 704 L 1232.04248046875 804 L 968 804 L 968 704 Z Z" stroke-miterlimit="10"/></g><g transform="translate(-510,-502) scale(1,1)"><path fill="none" stroke="#000000" d="M 968 742 L 1232.04248046875 742" stroke-miterlimit="10"/></g><g transform="translate(-510,-502) scale(1,1)"><path fill="none" stroke="#000000" d="M 968 752 L 1232.04248046875 752" stroke-miterlimit="10"/></g><g transform="translate(-510,-502) scale(1,1)"><g><path fill="none" stroke="none"/><text fill="#000000" stroke="none" font-family="Arial" font-size="13px" font-style="normal" font-weight="normal" text-decoration="none" x="1067.86083984375" y="721.5">«interface»</text></g></g><g transform="translate(-510,-502) scale(1,1)"><g><path fill="none" stroke="none"/><text fill="#000000" stroke="none" font-family="Arial" font-size="13px" font-style="normal" font-weight="bold" text-decoration="none" x="1057.396728515625" y="736.5">CourseFactory</text></g></g><g transform="translate(-510,-502) scale(1,1)"><g><path fill="none" stroke="none"/><text fill="#000000" stroke="none" font-family="Arial" font-size="13px" font-style="normal" font-weight="normal" text-decoration="none" x="973" y="769.5">+getStudent()</text></g></g><g transform="translate(-510,-502) scale(1,1)"><g><path fill="none" stroke="none"/><text fill="#000000" stroke="none" font-family="Arial" font-size="13px" font-style="normal" font-weight="normal" text-decoration="none" x="973" y="784.5">+getTeacher()</text></g></g><g transform="translate(-510,-502) scale(1,1)"><g><path fill="none" stroke="none"/><text fill="#000000" stroke="none" font-family="Arial" font-size="13px" font-style="normal" font-weight="normal" text-decoration="none" x="973" y="799.5">+getHomeWork()</text></g></g><g transform="translate(-510,-502) scale(1,1)"><rect fill="#C0C0C0" stroke="none" x="791" y="879" width="264.04248046875" height="102" opacity="0.2"/></g><g transform="translate(-510,-502) scale(1,1)"><rect fill="#ffffff" stroke="none" x="784" y="872" width="264.04248046875" height="102"/></g><g transform="translate(-510,-502) scale(1,1)"><path fill="none" stroke="#000000" d="M 784 872 L 1048.04248046875 872 L 1048.04248046875 974 L 784 974 L 784 872 Z Z" stroke-miterlimit="10"/></g><g transform="translate(-510,-502) scale(1,1)"><path fill="none" stroke="#000000" d="M 784 897 L 1048.04248046875 897" stroke-miterlimit="10"/></g><g transform="translate(-510,-502) scale(1,1)"><path fill="none" stroke="#000000" d="M 784 907 L 1048.04248046875 907" stroke-miterlimit="10"/></g><g transform="translate(-510,-502) scale(1,1)"><g><path fill="none" stroke="none"/><text fill="#000000" stroke="none" font-family="Arial" font-size="13px" font-style="normal" font-weight="bold" text-decoration="none" x="859.666748046875" y="891.5">JavaCourseFactory</text></g></g><g transform="translate(-510,-502) scale(1,1)"><g><path fill="none" stroke="none"/><text fill="#000000" stroke="none" font-family="Arial" font-size="13px" font-style="normal" font-weight="normal" text-decoration="none" x="789" y="924.5">+getStudent()</text></g></g><g transform="translate(-510,-502) scale(1,1)"><g><path fill="none" stroke="none"/><text fill="#000000" stroke="none" font-family="Arial" font-size="13px" font-style="normal" font-weight="normal" text-decoration="none" x="789" y="939.5">+getTeacher()</text></g></g><g transform="translate(-510,-502) scale(1,1)"><g><path fill="none" stroke="none"/><text fill="#000000" stroke="none" font-family="Arial" font-size="13px" font-style="normal" font-weight="normal" text-decoration="none" x="789" y="954.5">+getHomeWork()</text></g></g><g transform="translate(-510,-502) scale(1,1)"><rect fill="#C0C0C0" stroke="none" x="1119" y="879" width="264.04248046875" height="102" opacity="0.2"/></g><g transform="translate(-510,-502) scale(1,1)"><rect fill="#ffffff" stroke="none" x="1112" y="872" width="264.04248046875" height="102"/></g><g transform="translate(-510,-502) scale(1,1)"><path fill="none" stroke="#000000" d="M 1112 872 L 1376.04248046875 872 L 1376.04248046875 974 L 1112 974 L 1112 872 Z Z" stroke-miterlimit="10"/></g><g transform="translate(-510,-502) scale(1,1)"><path fill="none" stroke="#000000" d="M 1112 897 L 1376.04248046875 897" stroke-miterlimit="10"/></g><g transform="translate(-510,-502) scale(1,1)"><path fill="none" stroke="#000000" d="M 1112 907 L 1376.04248046875 907" stroke-miterlimit="10"/></g><g transform="translate(-510,-502) scale(1,1)"><g><path fill="none" stroke="none"/><text fill="#000000" stroke="none" font-family="Arial" font-size="13px" font-style="normal" font-weight="bold" text-decoration="none" x="1181.160400390625" y="891.5">PythonCourseFactory</text></g></g><g transform="translate(-510,-502) scale(1,1)"><g><path fill="none" stroke="none"/><text fill="#000000" stroke="none" font-family="Arial" font-size="13px" font-style="normal" font-weight="normal" text-decoration="none" x="1117" y="924.5">+getStudent()</text></g></g><g transform="translate(-510,-502) scale(1,1)"><g><path fill="none" stroke="none"/><text fill="#000000" stroke="none" font-family="Arial" font-size="13px" font-style="normal" font-weight="normal" text-decoration="none" x="1117" y="939.5">+getTeacher()</text></g></g><g transform="translate(-510,-502) scale(1,1)"><g><path fill="none" stroke="none"/><text fill="#000000" stroke="none" font-family="Arial" font-size="13px" font-style="normal" font-weight="normal" text-decoration="none" x="1117" y="954.5">+getHomeWork()</text></g></g><g transform="translate(-510,-502) scale(1,1)"><path fill="none" stroke="#000000" d="M 973 871 L 1044 805" stroke-miterlimit="10" stroke-dasharray="3"/></g><g transform="translate(-510,-502) scale(1,1)"><path fill="#FFFFFF" stroke="none" d="M 1034.8452583573699 825.0047670682939 L 1044 805 L 1023.3811136544374 812.6721265545332"/></g><g transform="translate(-510,-502) scale(1,1)"><path fill="none" stroke="#000000" d="M 1034.8452583573699 825.0047670682939 L 1044 805 L 1023.3811136544374 812.6721265545332 L 1034.8452583573699 825.0047670682939" stroke-miterlimit="10"/></g><g transform="translate(-510,-502) scale(1,1)"><path fill="none" stroke="#000000" d="M 1200 871 L 1143 805" stroke-miterlimit="10" stroke-dasharray="3"/></g><g transform="translate(-510,-502) scale(1,1)"><path fill="#FFFFFF" stroke="none" d="M 1162.656772224351 814.8798434056407 L 1143 805 L 1149.9133326668882 825.8855412052677"/></g><g transform="translate(-510,-502) scale(1,1)"><path fill="none" stroke="#000000" d="M 1162.656772224351 814.8798434056407 L 1143 805 L 1149.9133326668882 825.8855412052677 L 1162.656772224351 814.8798434056407" stroke-miterlimit="10"/></g><g transform="translate(-510,-502) scale(1,1)"><path fill="none" stroke="#000000" d="M 960 1143 L 926 975" stroke-miterlimit="10" stroke-dasharray="3"/></g><g transform="translate(-510,-502) scale(1,1)"><path fill="none" stroke="#000000" d="M 932.1417350022728 984.1257378420519 L 926 975 L 923.8899913569122 985.7957335798034" stroke-miterlimit="10"/></g><g transform="translate(-510,-502) scale(1,1)"><g><path fill="none" stroke="none"/><text fill="#000000" stroke="none" font-family="Arial" font-size="13px" font-style="normal" font-weight="normal" text-decoration="none" x="951.5" y="1047.5">+create</text></g></g><g transform="translate(-510,-502) scale(1,1)"><path fill="none" stroke="#000000" d="M 1205 1143 L 1235 975" stroke-miterlimit="10" stroke-dasharray="3"/></g><g transform="translate(-510,-502) scale(1,1)"><path fill="none" stroke="#000000" d="M 1237.3574622566912 985.7444111848102 L 1235 975 L 1229.0695315394617 984.2644235567336" stroke-miterlimit="10"/></g><g transform="translate(-510,-502) scale(1,1)"><g><path fill="none" stroke="none"/><text fill="#000000" stroke="none" font-family="Arial" font-size="13px" font-style="normal" font-weight="normal" text-decoration="none" x="1262.5" y="1051.5">+create</text></g></g><g transform="translate(-510,-502) scale(1,1)"><path fill="none" stroke="#000000" d="M 544 1632 L 544 974 L 784 974" stroke-miterlimit="10" stroke-dasharray="3"/></g><g transform="translate(-510,-502) scale(1,1)"><path fill="none" stroke="#000000" d="M 773.8373251423759 978.209517756016 L 784 974 L 773.8373251423758 969.790482243984" stroke-miterlimit="10"/></g><g transform="translate(-510,-502) scale(1,1)"><g><path fill="none" stroke="none"/><text fill="#000000" stroke="none" font-family="Arial" font-size="13px" font-style="normal" font-weight="normal" text-decoration="none" x="559.5" y="1171.5">+create</text></g></g><g transform="translate(-510,-502) scale(1,1)"><path fill="none" stroke="#000000" d="M 1592 1656 L 1592 974 L 1376 974" stroke-miterlimit="10" stroke-dasharray="3"/></g><g transform="translate(-510,-502) scale(1,1)"><path fill="none" stroke="#000000" d="M 1386.162674857624 969.790482243984 L 1376 974 L 1386.162674857624 978.209517756016" stroke-miterlimit="10"/></g><g transform="translate(-510,-502) scale(1,1)"><g><path fill="none" stroke="none"/><text fill="#000000" stroke="none" font-family="Arial" font-size="13px" font-style="normal" font-weight="normal" text-decoration="none" x="1535.5" y="1164.5">+create</text></g></g><g transform="translate(-510,-502) scale(1,1)"><path fill="none" stroke="#000000" d="M 764 1343 L 897 975" stroke-miterlimit="10" stroke-dasharray="3"/></g><g transform="translate(-510,-502) scale(1,1)"><path fill="none" stroke="#000000" d="M 897.5046473620289 985.9884180408282 L 897 975 L 889.5868546606164 983.1268244829807" stroke-miterlimit="10"/></g><g transform="translate(-510,-502) scale(1,1)"><g><path fill="none" stroke="none"/><text fill="#000000" stroke="none" font-family="Arial" font-size="13px" font-style="normal" font-weight="normal" text-decoration="none" x="793.5" y="1159.5">+create</text></g></g><g transform="translate(-510,-502) scale(1,1)"><path fill="none" stroke="#000000" d="M 1401 1343 L 1263 975" stroke-miterlimit="10" stroke-dasharray="3"/></g><g transform="translate(-510,-502) scale(1,1)"><path fill="none" stroke="#000000" d="M 1270.5098476702055 983.037548629421 L 1263 975 L 1262.6268590733 985.9936693532607" stroke-miterlimit="10"/></g><g transform="translate(-510,-502) scale(1,1)"><g><path fill="none" stroke="none"/><text fill="#000000" stroke="none" font-family="Arial" font-size="13px" font-style="normal" font-weight="normal" text-decoration="none" x="1418.5" y="1462.5">+create</text></g></g><g transform="translate(-510,-502) scale(1,1)"><rect fill="#C0C0C0" stroke="none" x="975" y="519" width="264.04248046875" height="59" opacity="0.2"/></g><g transform="translate(-510,-502) scale(1,1)"><rect fill="#ffffff" stroke="none" x="968" y="512" width="264.04248046875" height="59"/></g><g transform="translate(-510,-502) scale(1,1)"><path fill="none" stroke="#000000" d="M 968 512 L 1232.04248046875 512 L 1232.04248046875 571 L 968 571 L 968 512 Z Z" stroke-miterlimit="10"/></g><g transform="translate(-510,-502) scale(1,1)"><path fill="none" stroke="#000000" d="M 968 552 L 1232.04248046875 552" stroke-miterlimit="10"/></g><g transform="translate(-510,-502) scale(1,1)"><path fill="none" stroke="#000000" d="M 968 562 L 1232.04248046875 562" stroke-miterlimit="10"/></g><g transform="translate(-510,-502) scale(1,1)"><g><path fill="none" stroke="none"/><text fill="#000000" stroke="none" font-family="Arial" font-size="13px" font-style="normal" font-weight="bold" text-decoration="none" x="1068.22265625" y="531.5">Application</text></g></g><g transform="translate(-510,-502) scale(1,1)"><g><path fill="none" stroke="none"/><text fill="#000000" stroke="none" font-family="Arial" font-size="13px" font-style="normal" font-weight="normal" text-decoration="none" x="972.5" y="546.5">(from com.lizq.design.creational.factory.abs)</text></g></g><g transform="translate(-510,-502) scale(1,1)"><path fill="none" stroke="#000000" d="M 1100 572 L 1100 703" stroke-miterlimit="10" stroke-dasharray="3"/></g><g transform="translate(-510,-502) scale(1,1)"><path fill="none" stroke="#000000" d="M 1095.7904822439841 692.8373251423759 L 1100 703 L 1104.2095177560159 692.8373251423759" stroke-miterlimit="10"/></g><g transform="translate(-510,-502) scale(1,1)"><g><path fill="none" stroke="none"/><text fill="#000000" stroke="none" font-family="Arial" font-size="13px" font-style="normal" font-weight="normal" text-decoration="none" x="1123.5" y="629.5">+usage</text></g></g></g></svg>