<svg version="1.1" xmlns="http://www.w3.org/2000/svg" xmlns:xlink="http://www.w3.org/1999/xlink" width="565.6416015625" height="420"><defs/><g><g transform="translate(-70,-78) scale(1,1)"><rect fill="#C0C0C0" stroke="none" x="87" y="255" width="241.6416015625" height="72" opacity="0.2"/></g><g transform="translate(-70,-78) scale(1,1)"><rect fill="#ffffff" stroke="none" x="80" y="248" width="241.6416015625" height="72"/></g><g transform="translate(-70,-78) scale(1,1)"><path fill="none" stroke="#000000" d="M 80 248 L 321.6416015625 248 L 321.6416015625 320 L 80 320 L 80 248 Z Z" stroke-miterlimit="10"/></g><g transform="translate(-70,-78) scale(1,1)"><path fill="none" stroke="#000000" d="M 80 273 L 321.6416015625 273" stroke-miterlimit="10"/></g><g transform="translate(-70,-78) scale(1,1)"><path fill="none" stroke="#000000" d="M 80 283 L 321.6416015625 283" stroke-miterlimit="10"/></g><g transform="translate(-70,-78) scale(1,1)"><g><path fill="none" stroke="none"/><text fill="#000000" stroke="none" font-family="Arial" font-size="13px" font-style="normal" font-weight="bold" text-decoration="none" x="176.6044921875" y="267.5">Adaptee</text></g></g><g transform="translate(-70,-78) scale(1,1)"><g><path fill="none" stroke="none"/><text fill="#000000" stroke="none" font-family="Arial" font-size="13px" font-style="normal" font-weight="normal" text-decoration="none" x="85" y="300.5">+adapteeRequest()</text></g></g><g transform="translate(-70,-78) scale(1,1)"><rect fill="#C0C0C0" stroke="none" x="391" y="255" width="241.6416015625" height="63" opacity="0.2"/></g><g transform="translate(-70,-78) scale(1,1)"><rect fill="#ffffff" stroke="none" x="384" y="248" width="241.6416015625" height="63"/></g><g transform="translate(-70,-78) scale(1,1)"><path fill="none" stroke="#000000" d="M 384 248 L 625.6416015625 248 L 625.6416015625 311 L 384 311 L 384 248 Z Z" stroke-miterlimit="10"/></g><g transform="translate(-70,-78) scale(1,1)"><path fill="none" stroke="#000000" d="M 384 286 L 625.6416015625 286" stroke-miterlimit="10"/></g><g transform="translate(-70,-78) scale(1,1)"><g><path fill="none" stroke="none"/><text fill="#000000" stroke="none" font-family="Arial" font-size="13px" font-style="normal" font-weight="normal" text-decoration="none" x="472.660400390625" y="265.5">«interface»</text></g></g><g transform="translate(-70,-78) scale(1,1)"><g><path fill="none" stroke="none"/><text fill="#000000" stroke="none" font-family="Arial" font-size="13px" font-style="normal" font-weight="bold" text-decoration="none" x="486.75537109375" y="280.5">Target</text></g></g><g transform="translate(-70,-78) scale(1,1)"><g><path fill="none" stroke="none"/><text fill="#000000" stroke="none" font-family="Arial" font-size="13px" font-style="normal" font-weight="normal" text-decoration="none" x="389" y="303.5">+request()</text></g></g><g transform="translate(-70,-78) scale(1,1)"><rect fill="#C0C0C0" stroke="none" x="391" y="423" width="241.6416015625" height="72" opacity="0.2"/></g><g transform="translate(-70,-78) scale(1,1)"><rect fill="#ffffff" stroke="none" x="384" y="416" width="241.6416015625" height="72"/></g><g transform="translate(-70,-78) scale(1,1)"><path fill="none" stroke="#000000" d="M 384 416 L 625.6416015625 416 L 625.6416015625 488 L 384 488 L 384 416 Z Z" stroke-miterlimit="10"/></g><g transform="translate(-70,-78) scale(1,1)"><path fill="none" stroke="#000000" d="M 384 441 L 625.6416015625 441" stroke-miterlimit="10"/></g><g transform="translate(-70,-78) scale(1,1)"><path fill="none" stroke="#000000" d="M 384 451 L 625.6416015625 451" stroke-miterlimit="10"/></g><g transform="translate(-70,-78) scale(1,1)"><g><path fill="none" stroke="none"/><text fill="#000000" stroke="none" font-family="Arial" font-size="13px" font-style="normal" font-weight="bold" text-decoration="none" x="460.380859375" y="435.5">ConcreteTarget</text></g></g><g transform="translate(-70,-78) scale(1,1)"><g><path fill="none" stroke="none"/><text fill="#000000" stroke="none" font-family="Arial" font-size="13px" font-style="normal" font-weight="normal" text-decoration="none" x="389" y="468.5">+request()</text></g></g><g transform="translate(-70,-78) scale(1,1)"><rect fill="#C0C0C0" stroke="none" x="87" y="423" width="241.6416015625" height="72" opacity="0.2"/></g><g transform="translate(-70,-78) scale(1,1)"><rect fill="#ffffff" stroke="none" x="80" y="416" width="241.6416015625" height="72"/></g><g transform="translate(-70,-78) scale(1,1)"><path fill="none" stroke="#000000" d="M 80 416 L 321.6416015625 416 L 321.6416015625 488 L 80 488 L 80 416 Z Z" stroke-miterlimit="10"/></g><g transform="translate(-70,-78) scale(1,1)"><path fill="none" stroke="#000000" d="M 80 441 L 321.6416015625 441" stroke-miterlimit="10"/></g><g transform="translate(-70,-78) scale(1,1)"><path fill="none" stroke="#000000" d="M 80 464 L 321.6416015625 464" stroke-miterlimit="10"/></g><g transform="translate(-70,-78) scale(1,1)"><g><path fill="none" stroke="none"/><text fill="#000000" stroke="none" font-family="Arial" font-size="13px" font-style="normal" font-weight="bold" text-decoration="none" x="178.054931640625" y="435.5">Adapter</text></g></g><g transform="translate(-70,-78) scale(1,1)"><g><path fill="none" stroke="none"/><text fill="#000000" stroke="none" font-family="Arial" font-size="13px" font-style="normal" font-weight="normal" text-decoration="none" x="85" y="458.5">+adaptee</text></g></g><g transform="translate(-70,-78) scale(1,1)"><g><path fill="none" stroke="none"/><text fill="#000000" stroke="none" font-family="Arial" font-size="13px" font-style="normal" font-weight="normal" text-decoration="none" x="85" y="481.5">+request()</text></g></g><g transform="translate(-70,-78) scale(1,1)"><rect fill="#C0C0C0" stroke="none" x="391" y="95" width="241.6416015625" height="72" opacity="0.2"/></g><g transform="translate(-70,-78) scale(1,1)"><rect fill="#ffffff" stroke="none" x="384" y="88" width="241.6416015625" height="72"/></g><g transform="translate(-70,-78) scale(1,1)"><path fill="none" stroke="#000000" d="M 384 88 L 625.6416015625 88 L 625.6416015625 160 L 384 160 L 384 88 Z Z" stroke-miterlimit="10"/></g><g transform="translate(-70,-78) scale(1,1)"><path fill="none" stroke="#000000" d="M 384 113 L 625.6416015625 113" stroke-miterlimit="10"/></g><g transform="translate(-70,-78) scale(1,1)"><path fill="none" stroke="#000000" d="M 384 123 L 625.6416015625 123" stroke-miterlimit="10"/></g><g transform="translate(-70,-78) scale(1,1)"><g><path fill="none" stroke="none"/><text fill="#000000" stroke="none" font-family="Arial" font-size="13px" font-style="normal" font-weight="bold" text-decoration="none" x="473.022216796875" y="107.5">Application</text></g></g><g transform="translate(-70,-78) scale(1,1)"><g><path fill="none" stroke="none"/><text fill="#000000" stroke="none" font-family="Arial" font-size="13px" font-style="normal" font-weight="normal" text-decoration="none" x="389" y="140.5">+main()</text></g></g><g transform="translate(-70,-78) scale(1,1)"><path fill="none" stroke="#000000" d="M 504 415 L 504 312" stroke-miterlimit="10" stroke-dasharray="3"/></g><g transform="translate(-70,-78) scale(1,1)"><path fill="#FFFFFF" stroke="none" d="M 512.419035512032 332.3253497152483 L 504 312 L 495.580964487968 332.3253497152483"/></g><g transform="translate(-70,-78) scale(1,1)"><path fill="none" stroke="#000000" d="M 512.419035512032 332.3253497152483 L 504 312 L 495.580964487968 332.3253497152483 L 512.419035512032 332.3253497152483" stroke-miterlimit="10"/></g><g transform="translate(-70,-78) scale(1,1)"><path fill="none" stroke="#000000" d="M 265 415 L 446 312" stroke-miterlimit="10" stroke-dasharray="3"/></g><g transform="translate(-70,-78) scale(1,1)"><path fill="#FFFFFF" stroke="none" d="M 432.49860823612113 329.3698710541634 L 446 312 L 424.1707207175702 314.73542793903994"/></g><g transform="translate(-70,-78) scale(1,1)"><path fill="none" stroke="#000000" d="M 432.49860823612113 329.3698710541634 L 446 312 L 424.1707207175702 314.73542793903994 L 432.49860823612113 329.3698710541634" stroke-miterlimit="10"/></g><g transform="translate(-70,-78) scale(1,1)"><path fill="none" stroke="#000000" d="M 504 161 L 504 247" stroke-miterlimit="10" stroke-dasharray="3"/></g><g transform="translate(-70,-78) scale(1,1)"><path fill="none" stroke="#000000" d="M 499.790482243984 236.83732514237585 L 504 247 L 508.209517756016 236.83732514237585" stroke-miterlimit="10"/></g><g transform="translate(-70,-78) scale(1,1)"><g><path fill="none" stroke="none"/><text fill="#000000" stroke="none" font-family="Arial" font-size="13px" font-style="normal" font-weight="normal" text-decoration="none" x="519.5" y="209.5">+usage</text></g></g><g transform="translate(-70,-78) scale(1,1)"><path fill="none" stroke="#000000" d="M 200 321 L 200 415" stroke-miterlimit="10"/></g><g transform="translate(-70,-78) scale(1,1)"><path fill="#FFFFFF" stroke="none" d="M 195.790482243984 404.83732514237585 L 200 415 L 204.209517756016 404.83732514237585 L 200 393"/></g><g transform="translate(-70,-78) scale(1,1)"><path fill="none" stroke="#000000" d="M 195.790482243984 404.83732514237585 L 200 415 L 204.209517756016 404.83732514237585 L 200 393 L 195.790482243984 404.83732514237585" stroke-miterlimit="10"/></g></g></svg>