<svg version="1.1" xmlns="http://www.w3.org/2000/svg" xmlns:xlink="http://www.w3.org/1999/xlink" width="1069.68798828125" height="668"><defs/><g><g transform="translate(2,-62) scale(1,1)"><rect fill="#C0C0C0" stroke="none" x="143" y="167" width="233.68798828125" height="100" opacity="0.2"/></g><g transform="translate(2,-62) scale(1,1)"><rect fill="#ffffff" stroke="none" x="136" y="160" width="233.68798828125" height="100"/></g><g transform="translate(2,-62) scale(1,1)"><path fill="none" stroke="#000000" d="M 136 160 L 369.68798828125 160 L 369.68798828125 260 L 136 260 L 136 160 Z Z" stroke-miterlimit="10"/></g><g transform="translate(2,-62) scale(1,1)"><path fill="none" stroke="#000000" d="M 136 185 L 369.68798828125 185" stroke-miterlimit="10"/></g><g transform="translate(2,-62) scale(1,1)"><path fill="none" stroke="#000000" d="M 136 208 L 369.68798828125 208" stroke-miterlimit="10"/></g><g transform="translate(2,-62) scale(1,1)"><g><path fill="none" stroke="none"/><text fill="#000000" stroke="none" font-family="Arial" font-size="13px" font-style="italic" font-weight="bold" text-decoration="none" x="220.328125" y="179.5">Abstraction</text></g></g><g transform="translate(2,-62) scale(1,1)"><g><path fill="none" stroke="none"/><text fill="#000000" stroke="none" font-family="Arial" font-size="13px" font-style="normal" font-weight="normal" text-decoration="none" x="141" y="202.5">+implementor: Implementor</text></g></g><g transform="translate(2,-62) scale(1,1)"><g><path fill="none" stroke="none"/><text fill="#000000" stroke="none" font-family="Arial" font-size="13px" font-style="normal" font-weight="normal" text-decoration="none" x="141" y="225.5">+bridgeOperation()</text></g></g><g transform="translate(2,-62) scale(1,1)"><g><path fill="none" stroke="none"/><text fill="#000000" stroke="none" font-family="Arial" font-size="13px" font-style="italic" font-weight="normal" text-decoration="none" x="141" y="240.5">+doOtherSomething()</text></g></g><g transform="translate(2,-62) scale(1,1)"><rect fill="#C0C0C0" stroke="none" x="655" y="167" width="267.68798828125" height="98" opacity="0.2"/></g><g transform="translate(2,-62) scale(1,1)"><rect fill="#ffffff" stroke="none" x="648" y="160" width="267.68798828125" height="98"/></g><g transform="translate(2,-62) scale(1,1)"><path fill="none" stroke="#000000" d="M 648 160 L 915.68798828125 160 L 915.68798828125 258 L 648 258 L 648 160 Z Z" stroke-miterlimit="10"/></g><g transform="translate(2,-62) scale(1,1)"><path fill="none" stroke="#000000" d="M 648 198 L 915.68798828125 198" stroke-miterlimit="10"/></g><g transform="translate(2,-62) scale(1,1)"><path fill="none" stroke="#000000" d="M 648 221 L 915.68798828125 221" stroke-miterlimit="10"/></g><g transform="translate(2,-62) scale(1,1)"><g><path fill="none" stroke="none"/><text fill="#000000" stroke="none" font-family="Arial" font-size="13px" font-style="normal" font-weight="normal" text-decoration="none" x="749.68359375" y="177.5">«interface»</text></g></g><g transform="translate(2,-62) scale(1,1)"><g><path fill="none" stroke="none"/><text fill="#000000" stroke="none" font-family="Arial" font-size="13px" font-style="normal" font-weight="bold" text-decoration="none" x="745.719482421875" y="192.5">Implementor</text></g></g><g transform="translate(2,-62) scale(1,1)"><g><path fill="none" stroke="none"/><text fill="#000000" stroke="none" font-family="Arial" font-size="13px" font-style="normal" font-weight="normal" text-decoration="none" x="653" y="215.5">+Attribute1</text></g></g><g transform="translate(2,-62) scale(1,1)"><g><path fill="none" stroke="none"/><text fill="#000000" stroke="none" font-family="Arial" font-size="13px" font-style="normal" font-weight="normal" text-decoration="none" x="653" y="238.5">+operation()</text></g></g><g transform="translate(2,-62) scale(1,1)"><path fill="none" stroke="#000000" d="M 647 209 L 371 210" stroke-miterlimit="10"/></g><g transform="translate(2,-62) scale(1,1)"><path fill="#FFFFFF" stroke="none" d="M 381.147356377234 205.7536888298892 L 371 210 L 381.1778599288723 214.17266908204522 L 392.9998555989853 209.92029037826455"/></g><g transform="translate(2,-62) scale(1,1)"><path fill="none" stroke="#000000" d="M 381.147356377234 205.7536888298892 L 371 210 L 381.1778599288723 214.17266908204522 L 392.9998555989853 209.92029037826455 L 381.147356377234 205.7536888298892" stroke-miterlimit="10"/></g><g transform="translate(2,-62) scale(1,1)"><rect fill="#C0C0C0" stroke="none" x="551" y="407" width="233.68798828125" height="72" opacity="0.2"/></g><g transform="translate(2,-62) scale(1,1)"><rect fill="#ffffff" stroke="none" x="544" y="400" width="233.68798828125" height="72"/></g><g transform="translate(2,-62) scale(1,1)"><path fill="none" stroke="#000000" d="M 544 400 L 777.68798828125 400 L 777.68798828125 472 L 544 472 L 544 400 Z Z" stroke-miterlimit="10"/></g><g transform="translate(2,-62) scale(1,1)"><path fill="none" stroke="#000000" d="M 544 425 L 777.68798828125 425" stroke-miterlimit="10"/></g><g transform="translate(2,-62) scale(1,1)"><path fill="none" stroke="#000000" d="M 544 435 L 777.68798828125 435" stroke-miterlimit="10"/></g><g transform="translate(2,-62) scale(1,1)"><g><path fill="none" stroke="none"/><text fill="#000000" stroke="none" font-family="Arial" font-size="13px" font-style="normal" font-weight="bold" text-decoration="none" x="620.384033203125" y="419.5">ImplementorB</text></g></g><g transform="translate(2,-62) scale(1,1)"><g><path fill="none" stroke="none"/><text fill="#000000" stroke="none" font-family="Arial" font-size="13px" font-style="normal" font-weight="normal" text-decoration="none" x="549" y="452.5">+operation()</text></g></g><g transform="translate(2,-62) scale(1,1)"><rect fill="#C0C0C0" stroke="none" x="831" y="407" width="233.68798828125" height="72" opacity="0.2"/></g><g transform="translate(2,-62) scale(1,1)"><rect fill="#ffffff" stroke="none" x="824" y="400" width="233.68798828125" height="72"/></g><g transform="translate(2,-62) scale(1,1)"><path fill="none" stroke="#000000" d="M 824 400 L 1057.68798828125 400 L 1057.68798828125 472 L 824 472 L 824 400 Z Z" stroke-miterlimit="10"/></g><g transform="translate(2,-62) scale(1,1)"><path fill="none" stroke="#000000" d="M 824 425 L 1057.68798828125 425" stroke-miterlimit="10"/></g><g transform="translate(2,-62) scale(1,1)"><path fill="none" stroke="#000000" d="M 824 435 L 1057.68798828125 435" stroke-miterlimit="10"/></g><g transform="translate(2,-62) scale(1,1)"><g><path fill="none" stroke="none"/><text fill="#000000" stroke="none" font-family="Arial" font-size="13px" font-style="normal" font-weight="bold" text-decoration="none" x="900.384033203125" y="419.5">ImplementorA</text></g></g><g transform="translate(2,-62) scale(1,1)"><g><path fill="none" stroke="none"/><text fill="#000000" stroke="none" font-family="Arial" font-size="13px" font-style="normal" font-weight="normal" text-decoration="none" x="829" y="452.5">+operation()</text></g></g><g transform="translate(2,-62) scale(1,1)"><path fill="none" stroke="#000000" d="M 680 399 L 754 259" stroke-miterlimit="10" stroke-dasharray="3"/></g><g transform="translate(2,-62) scale(1,1)"><path fill="#FFFFFF" stroke="none" d="M 751.9450418813492 280.9038158121043 L 754 259 L 737.0585884846475 273.03526187384773"/></g><g transform="translate(2,-62) scale(1,1)"><path fill="none" stroke="#000000" d="M 751.9450418813492 280.9038158121043 L 754 259 L 737.0585884846475 273.03526187384773 L 751.9450418813492 280.9038158121043" stroke-miterlimit="10"/></g><g transform="translate(2,-62) scale(1,1)"><path fill="none" stroke="#000000" d="M 914 399 L 816 259" stroke-miterlimit="10" stroke-dasharray="3"/></g><g transform="translate(2,-62) scale(1,1)"><path fill="#FFFFFF" stroke="none" d="M 834.5529653291508 270.82317544043605 L 816 259 L 820.7586800662708 280.47917512445196"/></g><g transform="translate(2,-62) scale(1,1)"><path fill="none" stroke="#000000" d="M 834.5529653291508 270.82317544043605 L 816 259 L 820.7586800662708 280.47917512445196 L 834.5529653291508 270.82317544043605" stroke-miterlimit="10"/></g><g transform="translate(2,-62) scale(1,1)"><rect fill="#C0C0C0" stroke="none" x="15" y="407" width="233.68798828125" height="72" opacity="0.2"/></g><g transform="translate(2,-62) scale(1,1)"><rect fill="#ffffff" stroke="none" x="8" y="400" width="233.68798828125" height="72"/></g><g transform="translate(2,-62) scale(1,1)"><path fill="none" stroke="#000000" d="M 8 400 L 241.68798828125 400 L 241.68798828125 472 L 8 472 L 8 400 Z Z" stroke-miterlimit="10"/></g><g transform="translate(2,-62) scale(1,1)"><path fill="none" stroke="#000000" d="M 8 425 L 241.68798828125 425" stroke-miterlimit="10"/></g><g transform="translate(2,-62) scale(1,1)"><path fill="none" stroke="#000000" d="M 8 435 L 241.68798828125 435" stroke-miterlimit="10"/></g><g transform="translate(2,-62) scale(1,1)"><g><path fill="none" stroke="none"/><text fill="#000000" stroke="none" font-family="Arial" font-size="13px" font-style="normal" font-weight="bold" text-decoration="none" x="53.667724609375" y="419.5">ConcreteAbstractionOne</text></g></g><g transform="translate(2,-62) scale(1,1)"><g><path fill="none" stroke="none"/><text fill="#000000" stroke="none" font-family="Arial" font-size="13px" font-style="normal" font-weight="normal" text-decoration="none" x="13" y="452.5">+doOtherSomething()</text></g></g><g transform="translate(2,-62) scale(1,1)"><rect fill="#C0C0C0" stroke="none" x="271" y="407" width="233.68798828125" height="72" opacity="0.2"/></g><g transform="translate(2,-62) scale(1,1)"><rect fill="#ffffff" stroke="none" x="264" y="400" width="233.68798828125" height="72"/></g><g transform="translate(2,-62) scale(1,1)"><path fill="none" stroke="#000000" d="M 264 400 L 497.68798828125 400 L 497.68798828125 472 L 264 472 L 264 400 Z Z" stroke-miterlimit="10"/></g><g transform="translate(2,-62) scale(1,1)"><path fill="none" stroke="#000000" d="M 264 425 L 497.68798828125 425" stroke-miterlimit="10"/></g><g transform="translate(2,-62) scale(1,1)"><path fill="none" stroke="#000000" d="M 264 435 L 497.68798828125 435" stroke-miterlimit="10"/></g><g transform="translate(2,-62) scale(1,1)"><g><path fill="none" stroke="none"/><text fill="#000000" stroke="none" font-family="Arial" font-size="13px" font-style="normal" font-weight="bold" text-decoration="none" x="310.03271484375" y="419.5">ConcreteAbstractionTwo</text></g></g><g transform="translate(2,-62) scale(1,1)"><g><path fill="none" stroke="none"/><text fill="#000000" stroke="none" font-family="Arial" font-size="13px" font-style="normal" font-weight="normal" text-decoration="none" x="269" y="452.5">+doOtherSomething()</text></g></g><g transform="translate(2,-62) scale(1,1)"><path fill="none" stroke="#000000" d="M 145 399 L 223 261" stroke-miterlimit="10"/></g><g transform="translate(2,-62) scale(1,1)"><path fill="#FFFFFF" stroke="none" d="M 220.32806363293938 282.83714166392616 L 223 261 L 205.66946472365902 274.5518466282459"/></g><g transform="translate(2,-62) scale(1,1)"><path fill="none" stroke="#000000" d="M 220.32806363293938 282.83714166392616 L 223 261 L 205.66946472365902 274.5518466282459 L 220.32806363293938 282.83714166392616" stroke-miterlimit="10"/></g><g transform="translate(2,-62) scale(1,1)"><path fill="none" stroke="#000000" d="M 359 399 L 281 261" stroke-miterlimit="10"/></g><g transform="translate(2,-62) scale(1,1)"><path fill="#FFFFFF" stroke="none" d="M 298.330535276341 274.5518466282459 L 281 261 L 283.67193636706065 282.83714166392616"/></g><g transform="translate(2,-62) scale(1,1)"><path fill="none" stroke="#000000" d="M 298.330535276341 274.5518466282459 L 281 261 L 283.67193636706065 282.83714166392616 L 298.330535276341 274.5518466282459" stroke-miterlimit="10"/></g><g transform="translate(2,-62) scale(1,1)"><rect fill="#C0C0C0" stroke="none" x="415" y="655" width="233.68798828125" height="72" opacity="0.2"/></g><g transform="translate(2,-62) scale(1,1)"><rect fill="#ffffff" stroke="none" x="408" y="648" width="233.68798828125" height="72"/></g><g transform="translate(2,-62) scale(1,1)"><path fill="none" stroke="#000000" d="M 408 648 L 641.68798828125 648 L 641.68798828125 720 L 408 720 L 408 648 Z Z" stroke-miterlimit="10"/></g><g transform="translate(2,-62) scale(1,1)"><path fill="none" stroke="#000000" d="M 408 673 L 641.68798828125 673" stroke-miterlimit="10"/></g><g transform="translate(2,-62) scale(1,1)"><path fill="none" stroke="#000000" d="M 408 683 L 641.68798828125 683" stroke-miterlimit="10"/></g><g transform="translate(2,-62) scale(1,1)"><g><path fill="none" stroke="none"/><text fill="#000000" stroke="none" font-family="Arial" font-size="13px" font-style="normal" font-weight="bold" text-decoration="none" x="493.04541015625" y="667.5">Application</text></g></g><g transform="translate(2,-62) scale(1,1)"><g><path fill="none" stroke="none"/><text fill="#000000" stroke="none" font-family="Arial" font-size="13px" font-style="normal" font-weight="normal" text-decoration="none" x="413" y="700.5">+main()</text></g></g><g transform="translate(2,-62) scale(1,1)"><path fill="none" stroke="#000000" d="M 464 647 L 184 473" stroke-miterlimit="10" stroke-dasharray="3"/></g><g transform="translate(2,-62) scale(1,1)"><path fill="none" stroke="#000000" d="M 194.85360786247253 474.78862974583177 L 184 473 L 190.40990749758436 481.9394119422036" stroke-miterlimit="10"/></g><g transform="translate(2,-62) scale(1,1)"><path fill="none" stroke="#000000" d="M 503 647 L 401 473" stroke-miterlimit="10" stroke-dasharray="3"/></g><g transform="translate(2,-62) scale(1,1)"><path fill="none" stroke="#000000" d="M 409.7710052679427 479.63848375683193 L 401 473 L 402.5079204215326 483.8961541840378" stroke-miterlimit="10"/></g><g transform="translate(2,-62) scale(1,1)"><path fill="none" stroke="#000000" d="M 544 647 L 640 473" stroke-miterlimit="10" stroke-dasharray="3"/></g><g transform="translate(2,-62) scale(1,1)"><path fill="none" stroke="#000000" d="M 638.7764018405893 483.9317339678702 L 640 473 L 631.4048822252249 479.8646886628416" stroke-miterlimit="10"/></g><g transform="translate(2,-62) scale(1,1)"><path fill="none" stroke="#000000" d="M 586 647 L 878 473" stroke-miterlimit="10" stroke-dasharray="3"/></g><g transform="translate(2,-62) scale(1,1)"><path fill="none" stroke="#000000" d="M 871.4246316948878 481.81842002016947 L 878 473 L 867.1149478870431 474.58607707826906" stroke-miterlimit="10"/></g><g transform="translate(2,-62) scale(1,1)"><path fill="#ffffff" stroke="none" d="M 136 72 L 401.96875 72 L 411.96875 82 L 411.96875 110 L 136 110 L 136 72"/></g><g transform="translate(2,-62) scale(1,1)"><path fill="none" stroke="#000000" d="M 136 72 L 401.96875 72 L 411.96875 82 L 411.96875 110 L 136 110 L 136 72 L 136 72" stroke-miterlimit="10"/></g><g transform="translate(2,-62) scale(1,1)"><path fill="none" stroke="#000000" d="M 401.96875 72 L 401.96875 82 L 411.96875 82 L 401.96875 72" stroke-miterlimit="10"/></g><g transform="translate(2,-62) scale(1,1)"><g><path fill="none" stroke="none"/><text fill="#000000" stroke="none" font-family="Arial" font-size="13px" font-style="normal" font-weight="normal" text-decoration="none" x="141" y="90">bridgeOperation: this.implementor.operation()</text></g></g><g transform="translate(2,-62) scale(1,1)"><path fill="none" stroke="#000000" d="M 261 159 L 270 112" stroke-miterlimit="10" stroke-dasharray="3"/></g></g></svg>