<svg version="1.1" xmlns="http://www.w3.org/2000/svg" xmlns:xlink="http://www.w3.org/1999/xlink" width="1069.68798828125" height="668"><defs/><g><g transform="translate(2,-62) scale(1,1)"><rect fill="#C0C0C0" stroke="none" x="143" y="167" width="233.68798828125" height="100" opacity="0.2"/></g><g transform="translate(2,-62) scale(1,1)"><rect fill="#ffffff" stroke="none" x="136" y="160" width="233.68798828125" height="100"/></g><g transform="translate(2,-62) scale(1,1)"><path fill="none" stroke="#000000" d="M 136 160 L 369.68798828125 160 L 369.68798828125 260 L 136 260 L 136 160 Z Z" stroke-miterlimit="10"/></g><g transform="translate(2,-62) scale(1,1)"><path fill="none" stroke="#000000" d="M 136 200 L 369.68798828125 200" stroke-miterlimit="10"/></g><g transform="translate(2,-62) scale(1,1)"><path fill="none" stroke="#000000" d="M 136 223 L 369.68798828125 223" stroke-miterlimit="10"/></g><g transform="translate(2,-62) scale(1,1)"><g><path fill="none" stroke="none"/><text fill="#000000" stroke="none" font-family="Arial" font-size="13px" font-style="italic" font-weight="bold" text-decoration="none" x="220.328125" y="179.5">Abstraction</text></g></g><g transform="translate(2,-62) scale(1,1)"><g><path fill="none" stroke="none"/><text fill="#000000" stroke="none" font-family="Arial" font-size="13px" font-style="normal" font-weight="normal" text-decoration="none" x="140.5" y="194.5">(from com.lizq.design.structural.bridge)</text></g></g><g transform="translate(2,-62) scale(1,1)"><g><path fill="none" stroke="none"/><text fill="#000000" stroke="none" font-family="Arial" font-size="13px" font-style="normal" font-weight="normal" text-decoration="none" x="141" y="217.5">+implementor: Implementor</text></g></g><g transform="translate(2,-62) scale(1,1)"><g><path fill="none" stroke="none"/><text fill="#000000" stroke="none" font-family="Arial" font-size="13px" font-style="normal" font-weight="normal" text-decoration="none" x="141" y="240.5">+bridgeOperation()</text></g></g><g transform="translate(2,-62) scale(1,1)"><g><path fill="none" stroke="none"/><text fill="#000000" stroke="none" font-family="Arial" font-size="13px" font-style="italic" font-weight="normal" text-decoration="none" x="141" y="255.5">+doOtherSomething()</text></g></g><g transform="translate(2,-62) scale(1,1)"><rect fill="#C0C0C0" stroke="none" x="655" y="183" width="267.68798828125" height="83" opacity="0.2"/></g><g transform="translate(2,-62) scale(1,1)"><rect fill="#ffffff" stroke="none" x="648" y="176" width="267.68798828125" height="83"/></g><g transform="translate(2,-62) scale(1,1)"><path fill="none" stroke="#000000" d="M 648 176 L 915.68798828125 176 L 915.68798828125 259 L 648 259 L 648 176 Z Z" stroke-miterlimit="10"/></g><g transform="translate(2,-62) scale(1,1)"><path fill="none" stroke="#000000" d="M 648 214 L 915.68798828125 214" stroke-miterlimit="10"/></g><g transform="translate(2,-62) scale(1,1)"><path fill="none" stroke="#000000" d="M 648 237 L 915.68798828125 237" stroke-miterlimit="10"/></g><g transform="translate(2,-62) scale(1,1)"><g><path fill="none" stroke="none"/><text fill="#000000" stroke="none" font-family="Arial" font-size="13px" font-style="normal" font-weight="normal" text-decoration="none" x="749.68359375" y="193.5">«interface»</text></g></g><g transform="translate(2,-62) scale(1,1)"><g><path fill="none" stroke="none"/><text fill="#000000" stroke="none" font-family="Arial" font-size="13px" font-style="normal" font-weight="bold" text-decoration="none" x="745.719482421875" y="208.5">Implementor</text></g></g><g transform="translate(2,-62) scale(1,1)"><g><path fill="none" stroke="none"/><text fill="#000000" stroke="none" font-family="Arial" font-size="13px" font-style="normal" font-weight="normal" text-decoration="none" x="653" y="231.5">+Attribute1</text></g></g><g transform="translate(2,-62) scale(1,1)"><g><path fill="none" stroke="none"/><text fill="#000000" stroke="none" font-family="Arial" font-size="13px" font-style="normal" font-weight="normal" text-decoration="none" x="653" y="254.5">+operation()</text></g></g><g transform="translate(2,-62) scale(1,1)"><path fill="none" stroke="#000000" d="M 647 215 L 371 212" stroke-miterlimit="10"/></g><g transform="translate(2,-62) scale(1,1)"><path fill="#FFFFFF" stroke="none" d="M 381.20782748883323 207.9011882260562 L 371 212 L 381.11632163869933 216.3197264383735 L 392.9987004932208 212.23911630970892"/></g><g transform="translate(2,-62) scale(1,1)"><path fill="none" stroke="#000000" d="M 381.20782748883323 207.9011882260562 L 371 212 L 381.11632163869933 216.3197264383735 L 392.9987004932208 212.23911630970892 L 381.20782748883323 207.9011882260562" stroke-miterlimit="10"/></g><g transform="translate(2,-62) scale(1,1)"><rect fill="#C0C0C0" stroke="none" x="551" y="407" width="233.68798828125" height="72" opacity="0.2"/></g><g transform="translate(2,-62) scale(1,1)"><rect fill="#ffffff" stroke="none" x="544" y="400" width="233.68798828125" height="72"/></g><g transform="translate(2,-62) scale(1,1)"><path fill="none" stroke="#000000" d="M 544 400 L 777.68798828125 400 L 777.68798828125 472 L 544 472 L 544 400 Z Z" stroke-miterlimit="10"/></g><g transform="translate(2,-62) scale(1,1)"><path fill="none" stroke="#000000" d="M 544 440 L 777.68798828125 440" stroke-miterlimit="10"/></g><g transform="translate(2,-62) scale(1,1)"><path fill="none" stroke="#000000" d="M 544 450 L 777.68798828125 450" stroke-miterlimit="10"/></g><g transform="translate(2,-62) scale(1,1)"><g><path fill="none" stroke="none"/><text fill="#000000" stroke="none" font-family="Arial" font-size="13px" font-style="normal" font-weight="bold" text-decoration="none" x="620.384033203125" y="419.5">ImplementorB</text></g></g><g transform="translate(2,-62) scale(1,1)"><g><path fill="none" stroke="none"/><text fill="#000000" stroke="none" font-family="Arial" font-size="13px" font-style="normal" font-weight="normal" text-decoration="none" x="548.5" y="434.5">(from com.lizq.design.structural.bridge)</text></g></g><g transform="translate(2,-62) scale(1,1)"><g><path fill="none" stroke="none"/><text fill="#000000" stroke="none" font-family="Arial" font-size="13px" font-style="normal" font-weight="normal" text-decoration="none" x="549" y="467.5">+operation()</text></g></g><g transform="translate(2,-62) scale(1,1)"><rect fill="#C0C0C0" stroke="none" x="831" y="407" width="233.68798828125" height="72" opacity="0.2"/></g><g transform="translate(2,-62) scale(1,1)"><rect fill="#ffffff" stroke="none" x="824" y="400" width="233.68798828125" height="72"/></g><g transform="translate(2,-62) scale(1,1)"><path fill="none" stroke="#000000" d="M 824 400 L 1057.68798828125 400 L 1057.68798828125 472 L 824 472 L 824 400 Z Z" stroke-miterlimit="10"/></g><g transform="translate(2,-62) scale(1,1)"><path fill="none" stroke="#000000" d="M 824 440 L 1057.68798828125 440" stroke-miterlimit="10"/></g><g transform="translate(2,-62) scale(1,1)"><path fill="none" stroke="#000000" d="M 824 450 L 1057.68798828125 450" stroke-miterlimit="10"/></g><g transform="translate(2,-62) scale(1,1)"><g><path fill="none" stroke="none"/><text fill="#000000" stroke="none" font-family="Arial" font-size="13px" font-style="normal" font-weight="bold" text-decoration="none" x="900.384033203125" y="419.5">ImplementorA</text></g></g><g transform="translate(2,-62) scale(1,1)"><g><path fill="none" stroke="none"/><text fill="#000000" stroke="none" font-family="Arial" font-size="13px" font-style="normal" font-weight="normal" text-decoration="none" x="828.5" y="434.5">(from com.lizq.design.structural.bridge)</text></g></g><g transform="translate(2,-62) scale(1,1)"><g><path fill="none" stroke="none"/><text fill="#000000" stroke="none" font-family="Arial" font-size="13px" font-style="normal" font-weight="normal" text-decoration="none" x="829" y="467.5">+operation()</text></g></g><g transform="translate(2,-62) scale(1,1)"><path fill="none" stroke="#000000" d="M 680 399 L 757 260" stroke-miterlimit="10" stroke-dasharray="3"/></g><g transform="translate(2,-62) scale(1,1)"><path fill="#FFFFFF" stroke="none" d="M 754.5154196621748 281.8592511432778 L 757 260 L 739.7863116796495 273.6999611097926"/></g><g transform="translate(2,-62) scale(1,1)"><path fill="none" stroke="#000000" d="M 754.5154196621748 281.8592511432778 L 757 260 L 739.7863116796495 273.6999611097926 L 754.5154196621748 281.8592511432778" stroke-miterlimit="10"/></g><g transform="translate(2,-62) scale(1,1)"><path fill="none" stroke="#000000" d="M 913 399 L 812 260" stroke-miterlimit="10" stroke-dasharray="3"/></g><g transform="translate(2,-62) scale(1,1)"><path fill="#FFFFFF" stroke="none" d="M 830.7586566937578 271.49403319317184 L 812 260 L 817.1368645400314 281.3918821681816"/></g><g transform="translate(2,-62) scale(1,1)"><path fill="none" stroke="#000000" d="M 830.7586566937578 271.49403319317184 L 812 260 L 817.1368645400314 281.3918821681816 L 830.7586566937578 271.49403319317184" stroke-miterlimit="10"/></g><g transform="translate(2,-62) scale(1,1)"><rect fill="#C0C0C0" stroke="none" x="15" y="407" width="233.68798828125" height="72" opacity="0.2"/></g><g transform="translate(2,-62) scale(1,1)"><rect fill="#ffffff" stroke="none" x="8" y="400" width="233.68798828125" height="72"/></g><g transform="translate(2,-62) scale(1,1)"><path fill="none" stroke="#000000" d="M 8 400 L 241.68798828125 400 L 241.68798828125 472 L 8 472 L 8 400 Z Z" stroke-miterlimit="10"/></g><g transform="translate(2,-62) scale(1,1)"><path fill="none" stroke="#000000" d="M 8 440 L 241.68798828125 440" stroke-miterlimit="10"/></g><g transform="translate(2,-62) scale(1,1)"><path fill="none" stroke="#000000" d="M 8 450 L 241.68798828125 450" stroke-miterlimit="10"/></g><g transform="translate(2,-62) scale(1,1)"><g><path fill="none" stroke="none"/><text fill="#000000" stroke="none" font-family="Arial" font-size="13px" font-style="normal" font-weight="bold" text-decoration="none" x="53.667724609375" y="419.5">ConcreteAbstractionOne</text></g></g><g transform="translate(2,-62) scale(1,1)"><g><path fill="none" stroke="none"/><text fill="#000000" stroke="none" font-family="Arial" font-size="13px" font-style="normal" font-weight="normal" text-decoration="none" x="12.5" y="434.5">(from com.lizq.design.structural.bridge)</text></g></g><g transform="translate(2,-62) scale(1,1)"><g><path fill="none" stroke="none"/><text fill="#000000" stroke="none" font-family="Arial" font-size="13px" font-style="normal" font-weight="normal" text-decoration="none" x="13" y="467.5">+doOtherSomething()</text></g></g><g transform="translate(2,-62) scale(1,1)"><rect fill="#C0C0C0" stroke="none" x="271" y="407" width="233.68798828125" height="72" opacity="0.2"/></g><g transform="translate(2,-62) scale(1,1)"><rect fill="#ffffff" stroke="none" x="264" y="400" width="233.68798828125" height="72"/></g><g transform="translate(2,-62) scale(1,1)"><path fill="none" stroke="#000000" d="M 264 400 L 497.68798828125 400 L 497.68798828125 472 L 264 472 L 264 400 Z Z" stroke-miterlimit="10"/></g><g transform="translate(2,-62) scale(1,1)"><path fill="none" stroke="#000000" d="M 264 440 L 497.68798828125 440" stroke-miterlimit="10"/></g><g transform="translate(2,-62) scale(1,1)"><path fill="none" stroke="#000000" d="M 264 450 L 497.68798828125 450" stroke-miterlimit="10"/></g><g transform="translate(2,-62) scale(1,1)"><g><path fill="none" stroke="none"/><text fill="#000000" stroke="none" font-family="Arial" font-size="13px" font-style="normal" font-weight="bold" text-decoration="none" x="310.03271484375" y="419.5">ConcreteAbstractionTwo</text></g></g><g transform="translate(2,-62) scale(1,1)"><g><path fill="none" stroke="none"/><text fill="#000000" stroke="none" font-family="Arial" font-size="13px" font-style="normal" font-weight="normal" text-decoration="none" x="268.5" y="434.5">(from com.lizq.design.structural.bridge)</text></g></g><g transform="translate(2,-62) scale(1,1)"><g><path fill="none" stroke="none"/><text fill="#000000" stroke="none" font-family="Arial" font-size="13px" font-style="normal" font-weight="normal" text-decoration="none" x="269" y="467.5">+doOtherSomething()</text></g></g><g transform="translate(2,-62) scale(1,1)"><path fill="none" stroke="#000000" d="M 145 399 L 223 261" stroke-miterlimit="10"/></g><g transform="translate(2,-62) scale(1,1)"><path fill="#FFFFFF" stroke="none" d="M 220.32806363293938 282.83714166392616 L 223 261 L 205.66946472365902 274.5518466282459"/></g><g transform="translate(2,-62) scale(1,1)"><path fill="none" stroke="#000000" d="M 220.32806363293938 282.83714166392616 L 223 261 L 205.66946472365902 274.5518466282459 L 220.32806363293938 282.83714166392616" stroke-miterlimit="10"/></g><g transform="translate(2,-62) scale(1,1)"><path fill="none" stroke="#000000" d="M 359 399 L 281 261" stroke-miterlimit="10"/></g><g transform="translate(2,-62) scale(1,1)"><path fill="#FFFFFF" stroke="none" d="M 298.330535276341 274.5518466282459 L 281 261 L 283.67193636706065 282.83714166392616"/></g><g transform="translate(2,-62) scale(1,1)"><path fill="none" stroke="#000000" d="M 298.330535276341 274.5518466282459 L 281 261 L 283.67193636706065 282.83714166392616 L 298.330535276341 274.5518466282459" stroke-miterlimit="10"/></g><g transform="translate(2,-62) scale(1,1)"><rect fill="#C0C0C0" stroke="none" x="415" y="655" width="233.68798828125" height="72" opacity="0.2"/></g><g transform="translate(2,-62) scale(1,1)"><rect fill="#ffffff" stroke="none" x="408" y="648" width="233.68798828125" height="72"/></g><g transform="translate(2,-62) scale(1,1)"><path fill="none" stroke="#000000" d="M 408 648 L 641.68798828125 648 L 641.68798828125 720 L 408 720 L 408 648 Z Z" stroke-miterlimit="10"/></g><g transform="translate(2,-62) scale(1,1)"><path fill="none" stroke="#000000" d="M 408 688 L 641.68798828125 688" stroke-miterlimit="10"/></g><g transform="translate(2,-62) scale(1,1)"><path fill="none" stroke="#000000" d="M 408 698 L 641.68798828125 698" stroke-miterlimit="10"/></g><g transform="translate(2,-62) scale(1,1)"><g><path fill="none" stroke="none"/><text fill="#000000" stroke="none" font-family="Arial" font-size="13px" font-style="normal" font-weight="bold" text-decoration="none" x="493.04541015625" y="667.5">Application</text></g></g><g transform="translate(2,-62) scale(1,1)"><g><path fill="none" stroke="none"/><text fill="#000000" stroke="none" font-family="Arial" font-size="13px" font-style="normal" font-weight="normal" text-decoration="none" x="412.5" y="682.5">(from com.lizq.design.structural.bridge)</text></g></g><g transform="translate(2,-62) scale(1,1)"><g><path fill="none" stroke="none"/><text fill="#000000" stroke="none" font-family="Arial" font-size="13px" font-style="normal" font-weight="normal" text-decoration="none" x="413" y="715.5">+main()</text></g></g><g transform="translate(2,-62) scale(1,1)"><path fill="none" stroke="#000000" d="M 464 647 L 184 473" stroke-miterlimit="10" stroke-dasharray="3"/></g><g transform="translate(2,-62) scale(1,1)"><path fill="none" stroke="#000000" d="M 194.85360786247253 474.78862974583177 L 184 473 L 190.40990749758436 481.9394119422036" stroke-miterlimit="10"/></g><g transform="translate(2,-62) scale(1,1)"><path fill="none" stroke="#000000" d="M 503 647 L 401 473" stroke-miterlimit="10" stroke-dasharray="3"/></g><g transform="translate(2,-62) scale(1,1)"><path fill="none" stroke="#000000" d="M 409.7710052679427 479.63848375683193 L 401 473 L 402.5079204215326 483.8961541840378" stroke-miterlimit="10"/></g><g transform="translate(2,-62) scale(1,1)"><path fill="none" stroke="#000000" d="M 544 647 L 640 473" stroke-miterlimit="10" stroke-dasharray="3"/></g><g transform="translate(2,-62) scale(1,1)"><path fill="none" stroke="#000000" d="M 638.7764018405893 483.9317339678702 L 640 473 L 631.4048822252249 479.8646886628416" stroke-miterlimit="10"/></g><g transform="translate(2,-62) scale(1,1)"><path fill="none" stroke="#000000" d="M 586 647 L 878 473" stroke-miterlimit="10" stroke-dasharray="3"/></g><g transform="translate(2,-62) scale(1,1)"><path fill="none" stroke="#000000" d="M 871.4246316948878 481.81842002016947 L 878 473 L 867.1149478870431 474.58607707826906" stroke-miterlimit="10"/></g><g transform="translate(2,-62) scale(1,1)"><path fill="#ffffff" stroke="none" d="M 136 72 L 401.96875 72 L 411.96875 82 L 411.96875 110 L 136 110 L 136 72"/></g><g transform="translate(2,-62) scale(1,1)"><path fill="none" stroke="#000000" d="M 136 72 L 401.96875 72 L 411.96875 82 L 411.96875 110 L 136 110 L 136 72 L 136 72" stroke-miterlimit="10"/></g><g transform="translate(2,-62) scale(1,1)"><path fill="none" stroke="#000000" d="M 401.96875 72 L 401.96875 82 L 411.96875 82 L 401.96875 72" stroke-miterlimit="10"/></g><g transform="translate(2,-62) scale(1,1)"><g><path fill="none" stroke="none"/><text fill="#000000" stroke="none" font-family="Arial" font-size="13px" font-style="normal" font-weight="normal" text-decoration="none" x="141" y="90">bridgeOperation: this.implementor.operation()</text></g></g><g transform="translate(2,-62) scale(1,1)"><path fill="none" stroke="#000000" d="M 261 159 L 270 112" stroke-miterlimit="10" stroke-dasharray="3"/></g></g></svg>