<svg version="1.1" xmlns="http://www.w3.org/2000/svg" xmlns:xlink="http://www.w3.org/1999/xlink" width="1071.92431640625" height="347"><defs/><g><g transform="translate(-14,-134) scale(1,1)"><rect fill="#C0C0C0" stroke="none" x="463" y="151" width="274.51611328125" height="90" opacity="0.2"/></g><g transform="translate(-14,-134) scale(1,1)"><rect fill="#ffffff" stroke="none" x="456" y="144" width="274.51611328125" height="90"/></g><g transform="translate(-14,-134) scale(1,1)"><path fill="none" stroke="#000000" d="M 456 144 L 730.51611328125 144 L 730.51611328125 234 L 456 234 L 456 144 Z Z" stroke-miterlimit="10"/></g><g transform="translate(-14,-134) scale(1,1)"><path fill="none" stroke="#000000" d="M 456 182 L 730.51611328125 182" stroke-miterlimit="10"/></g><g transform="translate(-14,-134) scale(1,1)"><g><path fill="none" stroke="none"/><text fill="#000000" stroke="none" font-family="Arial" font-size="13px" font-style="normal" font-weight="normal" text-decoration="none" x="561.09765625" y="161.5">«interface»</text></g></g><g transform="translate(-14,-134) scale(1,1)"><g><path fill="none" stroke="none"/><text fill="#000000" stroke="none" font-family="Arial" font-size="13px" font-style="normal" font-weight="bold" text-decoration="none" x="538.34130859375" y="176.5">JavaCourseBuilder</text></g></g><g transform="translate(-14,-134) scale(1,1)"><g><path fill="none" stroke="none"/><text fill="#000000" stroke="none" font-family="Arial" font-size="13px" font-style="normal" font-weight="normal" text-decoration="none" x="461" y="199.5">+buildRoomNumber(String roomNumber)</text></g></g><g transform="translate(-14,-134) scale(1,1)"><g><path fill="none" stroke="none"/><text fill="#000000" stroke="none" font-family="Arial" font-size="13px" font-style="normal" font-weight="normal" text-decoration="none" x="461" y="214.5">+buildTeacher(Teacher teacher)</text></g></g><g transform="translate(-14,-134) scale(1,1)"><g><path fill="none" stroke="none"/><text fill="#000000" stroke="none" font-family="Arial" font-size="13px" font-style="normal" font-weight="normal" text-decoration="none" x="461" y="229.5">+getJavaCourse(): JavaCourse</text></g></g><g transform="translate(-14,-134) scale(1,1)"><rect fill="#C0C0C0" stroke="none" x="479" y="391" width="247.05615234375" height="87" opacity="0.2"/></g><g transform="translate(-14,-134) scale(1,1)"><rect fill="#ffffff" stroke="none" x="472" y="384" width="247.05615234375" height="87"/></g><g transform="translate(-14,-134) scale(1,1)"><path fill="none" stroke="#000000" d="M 472 384 L 719.05615234375 384 L 719.05615234375 471 L 472 471 L 472 384 Z Z" stroke-miterlimit="10"/></g><g transform="translate(-14,-134) scale(1,1)"><path fill="none" stroke="#000000" d="M 472 409 L 719.05615234375 409" stroke-miterlimit="10"/></g><g transform="translate(-14,-134) scale(1,1)"><path fill="none" stroke="#000000" d="M 472 419 L 719.05615234375 419" stroke-miterlimit="10"/></g><g transform="translate(-14,-134) scale(1,1)"><g><path fill="none" stroke="none"/><text fill="#000000" stroke="none" font-family="Arial" font-size="13px" font-style="normal" font-weight="bold" text-decoration="none" x="528.331787109375" y="403.5">JavaCourseBuilderImpl</text></g></g><g transform="translate(-14,-134) scale(1,1)"><g><path fill="none" stroke="none"/><text fill="#000000" stroke="none" font-family="Arial" font-size="13px" font-style="normal" font-weight="normal" text-decoration="none" x="477" y="436.5">+buildRoomNumber(String roomNumber)</text></g></g><g transform="translate(-14,-134) scale(1,1)"><g><path fill="none" stroke="none"/><text fill="#000000" stroke="none" font-family="Arial" font-size="13px" font-style="normal" font-weight="normal" text-decoration="none" x="477" y="451.5">+buildTeacher(Teacher teacher)</text></g></g><g transform="translate(-14,-134) scale(1,1)"><g><path fill="none" stroke="none"/><text fill="#000000" stroke="none" font-family="Arial" font-size="13px" font-style="normal" font-weight="normal" text-decoration="none" x="477" y="466.5">+getJavaCourse(): JavaCourse</text></g></g><g transform="translate(-14,-134) scale(1,1)"><path fill="none" stroke="#000000" d="M 595 383 L 593 235" stroke-miterlimit="10" stroke-dasharray="3"/></g><g transform="translate(-14,-134) scale(1,1)"><path fill="#FFFFFF" stroke="none" d="M 601.692908708341 255.2097337485789 L 593 235 L 584.8563749163087 255.43725447549826"/></g><g transform="translate(-14,-134) scale(1,1)"><path fill="none" stroke="#000000" d="M 601.692908708341 255.2097337485789 L 593 235 L 584.8563749163087 255.43725447549826 L 601.692908708341 255.2097337485789" stroke-miterlimit="10"/></g><g transform="translate(-14,-134) scale(1,1)"><rect fill="#C0C0C0" stroke="none" x="855" y="399" width="227.92431640625" height="72" opacity="0.2"/></g><g transform="translate(-14,-134) scale(1,1)"><rect fill="#ffffff" stroke="none" x="848" y="392" width="227.92431640625" height="72"/></g><g transform="translate(-14,-134) scale(1,1)"><path fill="none" stroke="#000000" d="M 848 392 L 1075.92431640625 392 L 1075.92431640625 464 L 848 464 L 848 392 Z Z" stroke-miterlimit="10"/></g><g transform="translate(-14,-134) scale(1,1)"><path fill="none" stroke="#000000" d="M 848 417 L 1075.92431640625 417" stroke-miterlimit="10"/></g><g transform="translate(-14,-134) scale(1,1)"><path fill="none" stroke="#000000" d="M 848 455 L 1075.92431640625 455" stroke-miterlimit="10"/></g><g transform="translate(-14,-134) scale(1,1)"><g><path fill="none" stroke="none"/><text fill="#000000" stroke="none" font-family="Arial" font-size="13px" font-style="normal" font-weight="bold" text-decoration="none" x="927.278564453125" y="411.5">JavaCourse</text></g></g><g transform="translate(-14,-134) scale(1,1)"><g><path fill="none" stroke="none"/><text fill="#000000" stroke="none" font-family="Arial" font-size="13px" font-style="normal" font-weight="normal" text-decoration="none" x="853" y="434.5">+roomNumber: String</text></g></g><g transform="translate(-14,-134) scale(1,1)"><g><path fill="none" stroke="none"/><text fill="#000000" stroke="none" font-family="Arial" font-size="13px" font-style="normal" font-weight="normal" text-decoration="none" x="853" y="449.5">+teacher: Teacher</text></g></g><g transform="translate(-14,-134) scale(1,1)"><path fill="none" stroke="#000000" d="M 720 427 L 847 428" stroke-miterlimit="10" stroke-dasharray="3"/></g><g transform="translate(-14,-134) scale(1,1)"><path fill="none" stroke="#000000" d="M 836.8044953896496 432.12936868544375 L 847 428 L 836.8707849529059 423.71059415189916" stroke-miterlimit="10"/></g><g transform="translate(-14,-134) scale(1,1)"><g><path fill="none" stroke="none"/><text fill="#000000" stroke="none" font-family="Arial" font-size="13px" font-style="normal" font-weight="normal" text-decoration="none" x="761.5" y="418.5">+create</text></g></g><g transform="translate(-14,-134) scale(1,1)"><rect fill="#C0C0C0" stroke="none" x="31" y="167" width="382.94677734375" height="59" opacity="0.2"/></g><g transform="translate(-14,-134) scale(1,1)"><rect fill="#ffffff" stroke="none" x="24" y="160" width="382.94677734375" height="59"/></g><g transform="translate(-14,-134) scale(1,1)"><path fill="none" stroke="#000000" d="M 24 160 L 406.94677734375 160 L 406.94677734375 219 L 24 219 L 24 160 Z Z" stroke-miterlimit="10"/></g><g transform="translate(-14,-134) scale(1,1)"><path fill="none" stroke="#000000" d="M 24 185 L 406.94677734375 185" stroke-miterlimit="10"/></g><g transform="translate(-14,-134) scale(1,1)"><path fill="none" stroke="#000000" d="M 24 195 L 406.94677734375 195" stroke-miterlimit="10"/></g><g transform="translate(-14,-134) scale(1,1)"><g><path fill="none" stroke="none"/><text fill="#000000" stroke="none" font-family="Arial" font-size="13px" font-style="normal" font-weight="bold" text-decoration="none" x="192.72021484375" y="179.5">Director</text></g></g><g transform="translate(-14,-134) scale(1,1)"><g><path fill="none" stroke="none"/><text fill="#000000" stroke="none" font-family="Arial" font-size="13px" font-style="normal" font-weight="normal" text-decoration="none" x="29" y="212.5">+buildJavaCourse(builder: JavaCourseBuilder): JavaCourse</text></g></g><g transform="translate(-14,-134) scale(1,1)"><path fill="none" stroke="#000000" d="M 455 189 L 408 189" stroke-miterlimit="10"/></g><g transform="translate(-14,-134) scale(1,1)"><path fill="#FFFFFF" stroke="none" d="M 418.16267485762415 184.790482243984 L 408 189 L 418.16267485762415 193.209517756016 L 430 189"/></g><g transform="translate(-14,-134) scale(1,1)"><path fill="none" stroke="#000000" d="M 418.16267485762415 184.790482243984 L 408 189 L 418.16267485762415 193.209517756016 L 430 189 L 418.16267485762415 184.790482243984" stroke-miterlimit="10"/></g></g></svg>