<svg version="1.1" xmlns="http://www.w3.org/2000/svg" xmlns:xlink="http://www.w3.org/1999/xlink" width="951.92431640625" height="319"><defs/><g><g transform="translate(-14,-134) scale(1,1)"><rect fill="#C0C0C0" stroke="none" x="343" y="151" width="274.51611328125" height="90" opacity="0.2"/></g><g transform="translate(-14,-134) scale(1,1)"><rect fill="#ffffff" stroke="none" x="336" y="144" width="274.51611328125" height="90"/></g><g transform="translate(-14,-134) scale(1,1)"><path fill="none" stroke="#000000" d="M 336 144 L 610.51611328125 144 L 610.51611328125 234 L 336 234 L 336 144 Z Z" stroke-miterlimit="10"/></g><g transform="translate(-14,-134) scale(1,1)"><path fill="none" stroke="#000000" d="M 336 197 L 610.51611328125 197" stroke-miterlimit="10"/></g><g transform="translate(-14,-134) scale(1,1)"><g><path fill="none" stroke="none"/><text fill="#000000" stroke="none" font-family="Arial" font-size="13px" font-style="normal" font-weight="normal" text-decoration="none" x="441.09765625" y="161.5">«interface»</text></g></g><g transform="translate(-14,-134) scale(1,1)"><g><path fill="none" stroke="none"/><text fill="#000000" stroke="none" font-family="Arial" font-size="13px" font-style="normal" font-weight="bold" text-decoration="none" x="418.34130859375" y="176.5">JavaCourseBuilder</text></g></g><g transform="translate(-14,-134) scale(1,1)"><g><path fill="none" stroke="none"/><text fill="#000000" stroke="none" font-family="Arial" font-size="13px" font-style="normal" font-weight="normal" text-decoration="none" x="363.7958984375" y="191.5">(from com.lizq.design.creational.build)</text></g></g><g transform="translate(-14,-134) scale(1,1)"><g><path fill="none" stroke="none"/><text fill="#000000" stroke="none" font-family="Arial" font-size="13px" font-style="normal" font-weight="normal" text-decoration="none" x="341" y="214.5">+buildRoomNumber(String roomNumber)</text></g></g><g transform="translate(-14,-134) scale(1,1)"><g><path fill="none" stroke="none"/><text fill="#000000" stroke="none" font-family="Arial" font-size="13px" font-style="normal" font-weight="normal" text-decoration="none" x="341" y="229.5">+buildTeacher(Teacher teacher)</text></g></g><g transform="translate(-14,-134) scale(1,1)"><rect fill="#C0C0C0" stroke="none" x="367" y="391" width="227.92431640625" height="59" opacity="0.2"/></g><g transform="translate(-14,-134) scale(1,1)"><rect fill="#ffffff" stroke="none" x="360" y="384" width="227.92431640625" height="59"/></g><g transform="translate(-14,-134) scale(1,1)"><path fill="none" stroke="#000000" d="M 360 384 L 587.92431640625 384 L 587.92431640625 443 L 360 443 L 360 384 Z Z" stroke-miterlimit="10"/></g><g transform="translate(-14,-134) scale(1,1)"><path fill="none" stroke="#000000" d="M 360 424 L 587.92431640625 424" stroke-miterlimit="10"/></g><g transform="translate(-14,-134) scale(1,1)"><path fill="none" stroke="#000000" d="M 360 434 L 587.92431640625 434" stroke-miterlimit="10"/></g><g transform="translate(-14,-134) scale(1,1)"><g><path fill="none" stroke="none"/><text fill="#000000" stroke="none" font-family="Arial" font-size="13px" font-style="normal" font-weight="bold" text-decoration="none" x="406.765869140625" y="403.5">JavaCourseBuilderImpl</text></g></g><g transform="translate(-14,-134) scale(1,1)"><g><path fill="none" stroke="none"/><text fill="#000000" stroke="none" font-family="Arial" font-size="13px" font-style="normal" font-weight="normal" text-decoration="none" x="364.5" y="418.5">(from com.lizq.design.creational.build)</text></g></g><g transform="translate(-14,-134) scale(1,1)"><path fill="none" stroke="#000000" d="M 473 383 L 473 235" stroke-miterlimit="10" stroke-dasharray="3"/></g><g transform="translate(-14,-134) scale(1,1)"><path fill="#FFFFFF" stroke="none" d="M 481.419035512032 255.3253497152483 L 473 235 L 464.580964487968 255.3253497152483"/></g><g transform="translate(-14,-134) scale(1,1)"><path fill="none" stroke="#000000" d="M 481.419035512032 255.3253497152483 L 473 235 L 464.580964487968 255.3253497152483 L 481.419035512032 255.3253497152483" stroke-miterlimit="10"/></g><g transform="translate(-14,-134) scale(1,1)"><rect fill="#C0C0C0" stroke="none" x="735" y="391" width="227.92431640625" height="59" opacity="0.2"/></g><g transform="translate(-14,-134) scale(1,1)"><rect fill="#ffffff" stroke="none" x="728" y="384" width="227.92431640625" height="59"/></g><g transform="translate(-14,-134) scale(1,1)"><path fill="none" stroke="#000000" d="M 728 384 L 955.92431640625 384 L 955.92431640625 443 L 728 443 L 728 384 Z Z" stroke-miterlimit="10"/></g><g transform="translate(-14,-134) scale(1,1)"><path fill="none" stroke="#000000" d="M 728 424 L 955.92431640625 424" stroke-miterlimit="10"/></g><g transform="translate(-14,-134) scale(1,1)"><path fill="none" stroke="#000000" d="M 728 434 L 955.92431640625 434" stroke-miterlimit="10"/></g><g transform="translate(-14,-134) scale(1,1)"><g><path fill="none" stroke="none"/><text fill="#000000" stroke="none" font-family="Arial" font-size="13px" font-style="normal" font-weight="bold" text-decoration="none" x="807.278564453125" y="403.5">JavaCourse</text></g></g><g transform="translate(-14,-134) scale(1,1)"><g><path fill="none" stroke="none"/><text fill="#000000" stroke="none" font-family="Arial" font-size="13px" font-style="normal" font-weight="normal" text-decoration="none" x="732.5" y="418.5">(from com.lizq.design.creational.build)</text></g></g><g transform="translate(-14,-134) scale(1,1)"><path fill="none" stroke="#000000" d="M 589 413 L 727 413" stroke-miterlimit="10" stroke-dasharray="3"/></g><g transform="translate(-14,-134) scale(1,1)"><path fill="none" stroke="#000000" d="M 716.8373251423759 417.209517756016 L 727 413 L 716.8373251423758 408.790482243984" stroke-miterlimit="10"/></g><g transform="translate(-14,-134) scale(1,1)"><g><path fill="none" stroke="none"/><text fill="#000000" stroke="none" font-family="Arial" font-size="13px" font-style="normal" font-weight="normal" text-decoration="none" x="636.5" y="404.5">+create</text></g></g><g transform="translate(-14,-134) scale(1,1)"><rect fill="#C0C0C0" stroke="none" x="31" y="167" width="227.92431640625" height="59" opacity="0.2"/></g><g transform="translate(-14,-134) scale(1,1)"><rect fill="#ffffff" stroke="none" x="24" y="160" width="227.92431640625" height="59"/></g><g transform="translate(-14,-134) scale(1,1)"><path fill="none" stroke="#000000" d="M 24 160 L 251.92431640625 160 L 251.92431640625 219 L 24 219 L 24 160 Z Z" stroke-miterlimit="10"/></g><g transform="translate(-14,-134) scale(1,1)"><path fill="none" stroke="#000000" d="M 24 200 L 251.92431640625 200" stroke-miterlimit="10"/></g><g transform="translate(-14,-134) scale(1,1)"><path fill="none" stroke="#000000" d="M 24 210 L 251.92431640625 210" stroke-miterlimit="10"/></g><g transform="translate(-14,-134) scale(1,1)"><g><path fill="none" stroke="none"/><text fill="#000000" stroke="none" font-family="Arial" font-size="13px" font-style="normal" font-weight="bold" text-decoration="none" x="115.208984375" y="179.5">Director</text></g></g><g transform="translate(-14,-134) scale(1,1)"><g><path fill="none" stroke="none"/><text fill="#000000" stroke="none" font-family="Arial" font-size="13px" font-style="normal" font-weight="normal" text-decoration="none" x="28.5" y="194.5">(from com.lizq.design.creational.build)</text></g></g><g transform="translate(-14,-134) scale(1,1)"><path fill="none" stroke="#000000" d="M 335 189 L 253 189" stroke-miterlimit="10"/></g><g transform="translate(-14,-134) scale(1,1)"><path fill="#FFFFFF" stroke="none" d="M 263.16267485762415 184.790482243984 L 253 189 L 263.16267485762415 193.209517756016 L 275 189"/></g><g transform="translate(-14,-134) scale(1,1)"><path fill="none" stroke="#000000" d="M 263.16267485762415 184.790482243984 L 253 189 L 263.16267485762415 193.209517756016 L 275 189 L 263.16267485762415 184.790482243984" stroke-miterlimit="10"/></g></g></svg>