<svg version="1.1" xmlns="http://www.w3.org/2000/svg" xmlns:xlink="http://www.w3.org/1999/xlink" width="746" height="237"><defs/><g><g transform="translate(-49,-246) scale(1,1)"><path fill="#C0C0C0" stroke="none" d="M 66 367.5 C 66 362.2532944 70.2532944 358 75.5 358 C 80.7467056 358 85 362.2532944 85 367.5 C 85 372.7467056 80.7467056 377 75.5 377 C 70.2532944 377 66 372.7467056 66 367.5 Z" opacity="0.2"/></g><g transform="translate(-49,-246) scale(1,1)"><path fill="#000000" stroke="none" d="M 59 360.5 C 59 355.2532944 63.2532944 351 68.5 351 C 73.7467056 351 78 355.2532944 78 360.5 C 78 365.7467056 73.7467056 370 68.5 370 C 63.2532944 370 59 365.7467056 59 360.5 Z"/></g><g transform="translate(-49,-246) scale(1,1)"><path fill="#C0C0C0" stroke="none" d="M 169 351 L 208 351 Q 218 351 218 361 L 218 380 Q 218 390 208 390 L 169 390 Q 159 390 159 380 L 159 361 Q 159 351 169 351 Z" opacity="0.2"/></g><g transform="translate(-49,-246) scale(1,1)"><path fill="#ffffff" stroke="none" d="M 162 344 L 201 344 Q 211 344 211 354 L 211 373 Q 211 383 201 383 L 162 383 Q 152 383 152 373 L 152 354 Q 152 344 162 344 Z"/></g><g transform="translate(-49,-246) scale(1,1)"><path fill="none" stroke="#000000" d="M 162 344 L 201 344 Q 211 344 211 354 L 211 373 Q 211 383 201 383 L 162 383 Q 152 383 152 373 L 152 354 Q 152 344 162 344 Z" stroke-miterlimit="10"/></g><g transform="translate(-49,-246) scale(1,1)"><g><path fill="none" stroke="none"/><text fill="#000000" stroke="none" font-family="Arial" font-size="13px" font-style="normal" font-weight="bold" text-decoration="none" x="177.16455078125" y="363.5">A</text></g></g><g transform="translate(-49,-246) scale(1,1)"><path fill="#C0C0C0" stroke="none" d="M 329 295 L 368 295 Q 378 295 378 305 L 378 324 Q 378 334 368 334 L 329 334 Q 319 334 319 324 L 319 305 Q 319 295 329 295 Z" opacity="0.2"/></g><g transform="translate(-49,-246) scale(1,1)"><path fill="#ffffff" stroke="none" d="M 322 288 L 361 288 Q 371 288 371 298 L 371 317 Q 371 327 361 327 L 322 327 Q 312 327 312 317 L 312 298 Q 312 288 322 288 Z"/></g><g transform="translate(-49,-246) scale(1,1)"><path fill="none" stroke="#000000" d="M 322 288 L 361 288 Q 371 288 371 298 L 371 317 Q 371 327 361 327 L 322 327 Q 312 327 312 317 L 312 298 Q 312 288 322 288 Z" stroke-miterlimit="10"/></g><g transform="translate(-49,-246) scale(1,1)"><g><path fill="none" stroke="none"/><text fill="#000000" stroke="none" font-family="Arial" font-size="13px" font-style="normal" font-weight="bold" text-decoration="none" x="337.16455078125" y="307.5">B</text></g></g><g transform="translate(-49,-246) scale(1,1)"><path fill="#C0C0C0" stroke="none" d="M 329 399 L 368 399 Q 378 399 378 409 L 378 428 Q 378 438 368 438 L 329 438 Q 319 438 319 428 L 319 409 Q 319 399 329 399 Z" opacity="0.2"/></g><g transform="translate(-49,-246) scale(1,1)"><path fill="#ffffff" stroke="none" d="M 322 392 L 361 392 Q 371 392 371 402 L 371 421 Q 371 431 361 431 L 322 431 Q 312 431 312 421 L 312 402 Q 312 392 322 392 Z"/></g><g transform="translate(-49,-246) scale(1,1)"><path fill="none" stroke="#000000" d="M 322 392 L 361 392 Q 371 392 371 402 L 371 421 Q 371 431 361 431 L 322 431 Q 312 431 312 421 L 312 402 Q 312 392 322 392 Z" stroke-miterlimit="10"/></g><g transform="translate(-49,-246) scale(1,1)"><g><path fill="none" stroke="none"/><text fill="#000000" stroke="none" font-family="Arial" font-size="13px" font-style="normal" font-weight="bold" text-decoration="none" x="336.805908203125" y="411.5">C</text></g></g><g transform="translate(-49,-246) scale(1,1)"><path fill="#C0C0C0" stroke="none" d="M 441 295 L 480 295 Q 490 295 490 305 L 490 324 Q 490 334 480 334 L 441 334 Q 431 334 431 324 L 431 305 Q 431 295 441 295 Z" opacity="0.2"/></g><g transform="translate(-49,-246) scale(1,1)"><path fill="#ffffff" stroke="none" d="M 434 288 L 473 288 Q 483 288 483 298 L 483 317 Q 483 327 473 327 L 434 327 Q 424 327 424 317 L 424 298 Q 424 288 434 288 Z"/></g><g transform="translate(-49,-246) scale(1,1)"><path fill="none" stroke="#000000" d="M 434 288 L 473 288 Q 483 288 483 298 L 483 317 Q 483 327 473 327 L 434 327 Q 424 327 424 317 L 424 298 Q 424 288 434 288 Z" stroke-miterlimit="10"/></g><g transform="translate(-49,-246) scale(1,1)"><g><path fill="none" stroke="none"/><text fill="#000000" stroke="none" font-family="Arial" font-size="13px" font-style="normal" font-weight="bold" text-decoration="none" x="448.805908203125" y="307.5">D</text></g></g><g transform="translate(-49,-246) scale(1,1)"><path fill="none" stroke="#000000" d="M 79 360 L 151 362" stroke-miterlimit="10"/></g><g transform="translate(-49,-246) scale(1,1)"><path fill="none" stroke="#000000" d="M 140.72435769733332 365.9257069767938 L 151 362 L 140.95812962249485 357.50991767097923" stroke-miterlimit="10"/></g><g transform="translate(-49,-246) scale(1,1)"><path fill="#C0C0C0" stroke="none" d="M 263 368.5 L 274.5 359 L 285 368.5 L 274.5 377 L 263 368.5" opacity="0.2"/></g><g transform="translate(-49,-246) scale(1,1)"><path fill="#ffffff" stroke="none" d="M 256 361 L 267 352 L 278 361 L 267 370 L 256 361"/></g><g transform="translate(-49,-246) scale(1,1)"><path fill="none" stroke="#000000" d="M 256 361 L 267 352 L 278 361 L 267 370 L 256 361 L 256 361" stroke-miterlimit="10"/></g><g transform="translate(-49,-246) scale(1,1)"><path fill="none" stroke="#000000" d="M 212 362 L 255 361" stroke-miterlimit="10"/></g><g transform="translate(-49,-246) scale(1,1)"><path fill="none" stroke="#000000" d="M 244.9379414824055 365.44465728583253 L 255 361 L 244.7422028826507 357.0278974963755" stroke-miterlimit="10"/></g><g transform="translate(-49,-246) scale(1,1)"><path fill="none" stroke="#000000" d="M 279 352 L 312 328" stroke-miterlimit="10"/></g><g transform="translate(-49,-246) scale(1,1)"><path fill="none" stroke="#000000" d="M 306.25699733454775 337.3817866307334 L 312 328 L 301.3051589246494 330.5730088171232" stroke-miterlimit="10"/></g><g transform="translate(-49,-246) scale(1,1)"><path fill="none" stroke="#000000" d="M 279 369 L 311 391" stroke-miterlimit="10"/></g><g transform="translate(-49,-246) scale(1,1)"><path fill="none" stroke="#000000" d="M 300.24071671607294 388.71137088714505 L 311 391 L 305.0103429945488 381.7737326639074" stroke-miterlimit="10"/></g><g transform="translate(-49,-246) scale(1,1)"><path fill="none" stroke="#000000" d="M 372 307 L 423 307" stroke-miterlimit="10"/></g><g transform="translate(-49,-246) scale(1,1)"><path fill="none" stroke="#000000" d="M 412.83732514237585 311.209517756016 L 423 307 L 412.83732514237585 302.790482243984" stroke-miterlimit="10"/></g><g transform="translate(-49,-246) scale(1,1)"><path fill="none" stroke="#000000" d="M 341 392 L 341 371 L 400 371 L 400 411 L 371 411" stroke-miterlimit="10"/></g><g transform="translate(-49,-246) scale(1,1)"><path fill="none" stroke="#000000" d="M 381.16267485762415 406.790482243984 L 371 411 L 381.16267485762415 415.209517756016" stroke-miterlimit="10"/></g><g transform="translate(-49,-246) scale(1,1)"><path fill="#C0C0C0" stroke="none" d="M 767 411.5 C 767 404.59644 772.59644 399 779.5 399 C 786.40356 399 792 404.59644 792 411.5 C 792 418.40356 786.40356 424 779.5 424 C 772.59644 424 767 418.40356 767 411.5 Z" opacity="0.2"/></g><g transform="translate(-49,-246) scale(1,1)"><path fill="none" stroke="#000000" d="M 760 404.5 C 760 397.59644 765.59644 392 772.5 392 C 779.40356 392 785 397.59644 785 404.5 C 785 411.40356 779.40356 417 772.5 417 C 765.59644 417 760 411.40356 760 404.5 Z" stroke-miterlimit="10"/></g><g transform="translate(-49,-246) scale(1,1)"><path fill="#000000" stroke="none" d="M 765 404.5 C 765 400.357864 768.357864 397 772.5 397 C 776.642136 397 780 400.357864 780 404.5 C 780 408.642136 776.642136 412 772.5 412 C 768.357864 412 765 408.642136 765 404.5 Z"/></g><g transform="translate(-49,-246) scale(1,1)"><path fill="#C0C0C0" stroke="none" d="M 554 279 L 553 279 Q 556 279 556 282 L 556 353 Q 556 356 553 356 L 554 356 Q 551 356 551 353 L 551 282 Q 551 279 554 279 Z" opacity="0.2"/></g><g transform="translate(-49,-246) scale(1,1)"><path fill="#000000" stroke="none" d="M 547 272 L 547 272 Q 550 272 550 275 L 550 346 Q 550 349 547 349 L 547 349 Q 544 349 544 346 L 544 275 Q 544 272 547 272 Z"/></g><g transform="translate(-49,-246) scale(1,1)"><path fill="none" stroke="#000000" d="M 484 308 L 543 310" stroke-miterlimit="10"/></g><g transform="translate(-49,-246) scale(1,1)"><path fill="none" stroke="#000000" d="M 532.7005454525614 313.86280157725554 L 543 310 L 532.9857726573281 305.44859903663905" stroke-miterlimit="10"/></g><g transform="translate(-49,-246) scale(1,1)"><path fill="#C0C0C0" stroke="none" d="M 633 263 L 672 263 Q 682 263 682 273 L 682 292 Q 682 302 672 302 L 633 302 Q 623 302 623 292 L 623 273 Q 623 263 633 263 Z" opacity="0.2"/></g><g transform="translate(-49,-246) scale(1,1)"><path fill="#ffffff" stroke="none" d="M 626 256 L 665 256 Q 675 256 675 266 L 675 285 Q 675 295 665 295 L 626 295 Q 616 295 616 285 L 616 266 Q 616 256 626 256 Z"/></g><g transform="translate(-49,-246) scale(1,1)"><path fill="none" stroke="#000000" d="M 626 256 L 665 256 Q 675 256 675 266 L 675 285 Q 675 295 665 295 L 626 295 Q 616 295 616 285 L 616 266 Q 616 256 626 256 Z" stroke-miterlimit="10"/></g><g transform="translate(-49,-246) scale(1,1)"><g><path fill="none" stroke="none"/><text fill="#000000" stroke="none" font-family="Arial" font-size="13px" font-style="normal" font-weight="bold" text-decoration="none" x="641.16455078125" y="275.5">E</text></g></g><g transform="translate(-49,-246) scale(1,1)"><path fill="#C0C0C0" stroke="none" d="M 633 327 L 672 327 Q 682 327 682 337 L 682 356 Q 682 366 672 366 L 633 366 Q 623 366 623 356 L 623 337 Q 623 327 633 327 Z" opacity="0.2"/></g><g transform="translate(-49,-246) scale(1,1)"><path fill="#ffffff" stroke="none" d="M 626 320 L 665 320 Q 675 320 675 330 L 675 349 Q 675 359 665 359 L 626 359 Q 616 359 616 349 L 616 330 Q 616 320 626 320 Z"/></g><g transform="translate(-49,-246) scale(1,1)"><path fill="none" stroke="#000000" d="M 626 320 L 665 320 Q 675 320 675 330 L 675 349 Q 675 359 665 359 L 626 359 Q 616 359 616 349 L 616 330 Q 616 320 626 320 Z" stroke-miterlimit="10"/></g><g transform="translate(-49,-246) scale(1,1)"><g><path fill="none" stroke="none"/><text fill="#000000" stroke="none" font-family="Arial" font-size="13px" font-style="normal" font-weight="bold" text-decoration="none" x="641.529541015625" y="339.5">F</text></g></g><g transform="translate(-49,-246) scale(1,1)"><path fill="none" stroke="#000000" d="M 550 309 L 615 286" stroke-miterlimit="10"/></g><g transform="translate(-49,-246) scale(1,1)"><path fill="none" stroke="#000000" d="M 606.8236253107204 293.35845751095354 L 615 286 L 604.0152148066201 285.42164521675676" stroke-miterlimit="10"/></g><g transform="translate(-49,-246) scale(1,1)"><path fill="none" stroke="#000000" d="M 550 311 L 615 330" stroke-miterlimit="10"/></g><g transform="translate(-49,-246) scale(1,1)"><path fill="none" stroke="#000000" d="M 604.0644628776644 331.18912902833114 L 615 330 L 606.4265663452405 323.108248744518" stroke-miterlimit="10"/></g><g transform="translate(-49,-246) scale(1,1)"><path fill="#C0C0C0" stroke="none" d="M 714 279 L 713 279 Q 716 279 716 282 L 716 364 Q 716 367 713 367 L 714 367 Q 711 367 711 364 L 711 282 Q 711 279 714 279 Z" opacity="0.2"/></g><g transform="translate(-49,-246) scale(1,1)"><path fill="#000000" stroke="none" d="M 707 272 L 707 272 Q 710 272 710 275 L 710 357 Q 710 360 707 360 L 707 360 Q 704 360 704 357 L 704 275 Q 704 272 707 272 Z"/></g><g transform="translate(-49,-246) scale(1,1)"><path fill="none" stroke="#000000" d="M 676 296 L 703 314" stroke-miterlimit="10"/></g><g transform="translate(-49,-246) scale(1,1)"><path fill="none" stroke="#000000" d="M 692.2091230681783 311.86529275021616 L 703 314 L 696.8791637187296 304.8602317743892" stroke-miterlimit="10"/></g><g transform="translate(-49,-246) scale(1,1)"><path fill="none" stroke="#000000" d="M 676 327 L 703 317" stroke-miterlimit="10"/></g><g transform="translate(-49,-246) scale(1,1)"><path fill="none" stroke="#000000" d="M 694.9319901943837 324.4771129305688 L 703 317 L 692.0079382988663 316.58217281267196" stroke-miterlimit="10"/></g><g transform="translate(-49,-246) scale(1,1)"><path fill="none" stroke="#000000" d="M 710 321 L 762 391" stroke-miterlimit="10"/></g><g transform="translate(-49,-246) scale(1,1)"><path fill="none" stroke="#000000" d="M 752.5605885831118 385.3522117512499 L 762 391 L 759.3189175461055 380.3317388073117" stroke-miterlimit="10"/></g><g transform="translate(-49,-246) scale(1,1)"><path fill="none" stroke="#000000" d="M 371 431 L 371 472 L 760 472 L 760 417" stroke-miterlimit="10"/></g><g transform="translate(-49,-246) scale(1,1)"><path fill="none" stroke="#000000" d="M 764.209517756016 427.16267485762415 L 760 417 L 755.790482243984 427.16267485762415" stroke-miterlimit="10"/></g></g></svg>