<svg version="1.1" xmlns="http://www.w3.org/2000/svg" xmlns:xlink="http://www.w3.org/1999/xlink" width="672.9833984375" height="428"><defs/><g><g transform="translate(-38,-38) scale(1,1)"><rect fill="#C0C0C0" stroke="none" x="55" y="55" width="284.9833984375" height="63" opacity="0.2"/></g><g transform="translate(-38,-38) scale(1,1)"><rect fill="#ffffff" stroke="none" x="48" y="48" width="284.9833984375" height="63"/></g><g transform="translate(-38,-38) scale(1,1)"><path fill="none" stroke="#000000" d="M 48 48 L 332.9833984375 48 L 332.9833984375 111 L 48 111 L 48 48 Z Z" stroke-miterlimit="10"/></g><g transform="translate(-38,-38) scale(1,1)"><path fill="none" stroke="#000000" d="M 48 86 L 332.9833984375 86" stroke-miterlimit="10"/></g><g transform="translate(-38,-38) scale(1,1)"><g><path fill="none" stroke="none"/><text fill="#000000" stroke="none" font-family="Arial" font-size="13px" font-style="normal" font-weight="normal" text-decoration="none" x="158.331298828125" y="65.5">«interface»</text></g></g><g transform="translate(-38,-38) scale(1,1)"><g><path fill="none" stroke="none"/><text fill="#000000" stroke="none" font-family="Arial" font-size="13px" font-style="normal" font-weight="bold" text-decoration="none" x="156.88720703125" y="80.5">Component</text></g></g><g transform="translate(-38,-38) scale(1,1)"><g><path fill="none" stroke="none"/><text fill="#000000" stroke="none" font-family="Arial" font-size="13px" font-style="normal" font-weight="normal" text-decoration="none" x="53" y="103.5">+operation()</text></g></g><g transform="translate(-38,-38) scale(1,1)"><rect fill="#C0C0C0" stroke="none" x="423" y="191" width="284.9833984375" height="117" opacity="0.2"/></g><g transform="translate(-38,-38) scale(1,1)"><rect fill="#ffffff" stroke="none" x="416" y="184" width="284.9833984375" height="117"/></g><g transform="translate(-38,-38) scale(1,1)"><path fill="none" stroke="#000000" d="M 416 184 L 700.9833984375 184 L 700.9833984375 301 L 416 301 L 416 184 Z Z" stroke-miterlimit="10"/></g><g transform="translate(-38,-38) scale(1,1)"><path fill="none" stroke="#000000" d="M 416 209 L 700.9833984375 209" stroke-miterlimit="10"/></g><g transform="translate(-38,-38) scale(1,1)"><path fill="none" stroke="#000000" d="M 416 232 L 700.9833984375 232" stroke-miterlimit="10"/></g><g transform="translate(-38,-38) scale(1,1)"><g><path fill="none" stroke="none"/><text fill="#000000" stroke="none" font-family="Arial" font-size="13px" font-style="normal" font-weight="bold" text-decoration="none" x="527.423095703125" y="203.5">Composite</text></g></g><g transform="translate(-38,-38) scale(1,1)"><g><path fill="none" stroke="none"/><text fill="#000000" stroke="none" font-family="Arial" font-size="13px" font-style="normal" font-weight="normal" text-decoration="none" x="421" y="226.5">-componentArrayList: ArrayList&lt;Component&gt;</text></g></g><g transform="translate(-38,-38) scale(1,1)"><g><path fill="none" stroke="none"/><text fill="#000000" stroke="none" font-family="Arial" font-size="13px" font-style="normal" font-weight="normal" text-decoration="none" x="421" y="249.5">+add(Component component)</text></g></g><g transform="translate(-38,-38) scale(1,1)"><g><path fill="none" stroke="none"/><text fill="#000000" stroke="none" font-family="Arial" font-size="13px" font-style="normal" font-weight="normal" text-decoration="none" x="421" y="264.5">+remove(Component component)</text></g></g><g transform="translate(-38,-38) scale(1,1)"><g><path fill="none" stroke="none"/><text fill="#000000" stroke="none" font-family="Arial" font-size="13px" font-style="normal" font-weight="normal" text-decoration="none" x="421" y="279.5">+getChildren(): ArrayList&lt;Component&gt;</text></g></g><g transform="translate(-38,-38) scale(1,1)"><g><path fill="none" stroke="none"/><text fill="#000000" stroke="none" font-family="Arial" font-size="13px" font-style="normal" font-weight="normal" text-decoration="none" x="421" y="294.5">+operation()</text></g></g><g transform="translate(-38,-38) scale(1,1)"><rect fill="#C0C0C0" stroke="none" x="55" y="191" width="284.9833984375" height="72" opacity="0.2"/></g><g transform="translate(-38,-38) scale(1,1)"><rect fill="#ffffff" stroke="none" x="48" y="184" width="284.9833984375" height="72"/></g><g transform="translate(-38,-38) scale(1,1)"><path fill="none" stroke="#000000" d="M 48 184 L 332.9833984375 184 L 332.9833984375 256 L 48 256 L 48 184 Z Z" stroke-miterlimit="10"/></g><g transform="translate(-38,-38) scale(1,1)"><path fill="none" stroke="#000000" d="M 48 209 L 332.9833984375 209" stroke-miterlimit="10"/></g><g transform="translate(-38,-38) scale(1,1)"><path fill="none" stroke="#000000" d="M 48 219 L 332.9833984375 219" stroke-miterlimit="10"/></g><g transform="translate(-38,-38) scale(1,1)"><g><path fill="none" stroke="none"/><text fill="#000000" stroke="none" font-family="Arial" font-size="13px" font-style="normal" font-weight="bold" text-decoration="none" x="177.8408203125" y="203.5">Leaf</text></g></g><g transform="translate(-38,-38) scale(1,1)"><g><path fill="none" stroke="none"/><text fill="#000000" stroke="none" font-family="Arial" font-size="13px" font-style="normal" font-weight="normal" text-decoration="none" x="53" y="236.5">+operation()</text></g></g><g transform="translate(-38,-38) scale(1,1)"><path fill="none" stroke="#000000" d="M 190 183 L 190 112" stroke-miterlimit="10" stroke-dasharray="3"/></g><g transform="translate(-38,-38) scale(1,1)"><path fill="#FFFFFF" stroke="none" d="M 198.41903551203197 132.3253497152483 L 190 112 L 181.58096448796803 132.3253497152483"/></g><g transform="translate(-38,-38) scale(1,1)"><path fill="none" stroke="#000000" d="M 198.41903551203197 132.3253497152483 L 190 112 L 181.58096448796803 132.3253497152483 L 198.41903551203197 132.3253497152483" stroke-miterlimit="10"/></g><g transform="translate(-38,-38) scale(1,1)"><path fill="none" stroke="#000000" d="M 425 183 L 265 112" stroke-miterlimit="10" stroke-dasharray="3"/></g><g transform="translate(-38,-38) scale(1,1)"><path fill="#FFFFFF" stroke="none" d="M 286.99315546105674 112.54873751993895 L 265 112 L 280.16349334476286 127.93952538764351"/></g><g transform="translate(-38,-38) scale(1,1)"><path fill="none" stroke="#000000" d="M 286.99315546105674 112.54873751993895 L 265 112 L 280.16349334476286 127.93952538764351 L 286.99315546105674 112.54873751993895" stroke-miterlimit="10"/></g><g transform="translate(-38,-38) scale(1,1)"><rect fill="#C0C0C0" stroke="none" x="423" y="391" width="284.9833984375" height="72" opacity="0.2"/></g><g transform="translate(-38,-38) scale(1,1)"><rect fill="#ffffff" stroke="none" x="416" y="384" width="284.9833984375" height="72"/></g><g transform="translate(-38,-38) scale(1,1)"><path fill="none" stroke="#000000" d="M 416 384 L 700.9833984375 384 L 700.9833984375 456 L 416 456 L 416 384 Z Z" stroke-miterlimit="10"/></g><g transform="translate(-38,-38) scale(1,1)"><path fill="none" stroke="#000000" d="M 416 409 L 700.9833984375 409" stroke-miterlimit="10"/></g><g transform="translate(-38,-38) scale(1,1)"><path fill="none" stroke="#000000" d="M 416 419 L 700.9833984375 419" stroke-miterlimit="10"/></g><g transform="translate(-38,-38) scale(1,1)"><g><path fill="none" stroke="none"/><text fill="#000000" stroke="none" font-family="Arial" font-size="13px" font-style="normal" font-weight="bold" text-decoration="none" x="526.693115234375" y="403.5">Application</text></g></g><g transform="translate(-38,-38) scale(1,1)"><g><path fill="none" stroke="none"/><text fill="#000000" stroke="none" font-family="Arial" font-size="13px" font-style="normal" font-weight="normal" text-decoration="none" x="421" y="436.5">+main()</text></g></g><g transform="translate(-38,-38) scale(1,1)"><path fill="none" stroke="#000000" d="M 333 80 L 558 80 L 558 184" stroke-miterlimit="10"/></g><g transform="translate(-38,-38) scale(1,1)"><path fill="#FFFFFF" stroke="none" d="M 553.790482243984 173.83732514237585 L 558 184 L 562.209517756016 173.83732514237585 L 558 162"/></g><g transform="translate(-38,-38) scale(1,1)"><path fill="none" stroke="#000000" d="M 553.790482243984 173.83732514237585 L 558 184 L 562.209517756016 173.83732514237585 L 558 162 L 553.790482243984 173.83732514237585" stroke-miterlimit="10"/></g><g transform="translate(-38,-38) scale(1,1)"><path fill="none" stroke="#000000" d="M 490 383 L 258 257" stroke-miterlimit="10" stroke-dasharray="3"/></g><g transform="translate(-38,-38) scale(1,1)"><path fill="none" stroke="#000000" d="M 268.9396095817641 258.1510613357137 L 258 257 L 264.92154884275396 265.54939539484354" stroke-miterlimit="10"/></g><g transform="translate(-38,-38) scale(1,1)"><g><path fill="none" stroke="none"/><text fill="#000000" stroke="none" font-family="Arial" font-size="13px" font-style="normal" font-weight="normal" text-decoration="none" x="344.5" y="339.5">+usage</text></g></g><g transform="translate(-38,-38) scale(1,1)"><path fill="none" stroke="#000000" d="M 558 383 L 558 302" stroke-miterlimit="10" stroke-dasharray="3"/></g><g transform="translate(-38,-38) scale(1,1)"><path fill="none" stroke="#000000" d="M 562.209517756016 312.16267485762415 L 558 302 L 553.790482243984 312.16267485762415" stroke-miterlimit="10"/></g><g transform="translate(-38,-38) scale(1,1)"><g><path fill="none" stroke="none"/><text fill="#000000" stroke="none" font-family="Arial" font-size="13px" font-style="normal" font-weight="normal" text-decoration="none" x="510.5" y="340.5">+usage</text></g></g></g></svg>