<svg version="1.1" xmlns="http://www.w3.org/2000/svg" xmlns:xlink="http://www.w3.org/1999/xlink" width="796.1416015625" height="396"><defs/><g><g transform="translate(-102,-134) scale(1,1)"><rect fill="#C0C0C0" stroke="none" x="119" y="151" width="248.1416015625" height="63" opacity="0.2"/></g><g transform="translate(-102,-134) scale(1,1)"><rect fill="#ffffff" stroke="none" x="112" y="144" width="248.1416015625" height="63"/></g><g transform="translate(-102,-134) scale(1,1)"><path fill="none" stroke="#000000" d="M 112 144 L 360.1416015625 144 L 360.1416015625 207 L 112 207 L 112 144 Z Z" stroke-miterlimit="10"/></g><g transform="translate(-102,-134) scale(1,1)"><path fill="none" stroke="#000000" d="M 112 182 L 360.1416015625 182" stroke-miterlimit="10"/></g><g transform="translate(-102,-134) scale(1,1)"><g><path fill="none" stroke="none"/><text fill="#000000" stroke="none" font-family="Arial" font-size="13px" font-style="normal" font-weight="normal" text-decoration="none" x="203.910400390625" y="161.5">«interface»</text></g></g><g transform="translate(-102,-134) scale(1,1)"><g><path fill="none" stroke="none"/><text fill="#000000" stroke="none" font-family="Arial" font-size="13px" font-style="normal" font-weight="bold" text-decoration="none" x="202.46630859375" y="176.5">Component</text></g></g><g transform="translate(-102,-134) scale(1,1)"><g><path fill="none" stroke="none"/><text fill="#000000" stroke="none" font-family="Arial" font-size="13px" font-style="normal" font-weight="normal" text-decoration="none" x="117" y="199.5">+operation()</text></g></g><g transform="translate(-102,-134) scale(1,1)"><rect fill="#C0C0C0" stroke="none" x="119" y="279" width="248.1416015625" height="72" opacity="0.2"/></g><g transform="translate(-102,-134) scale(1,1)"><rect fill="#ffffff" stroke="none" x="112" y="272" width="248.1416015625" height="72"/></g><g transform="translate(-102,-134) scale(1,1)"><path fill="none" stroke="#000000" d="M 112 272 L 360.1416015625 272 L 360.1416015625 344 L 112 344 L 112 272 Z Z" stroke-miterlimit="10"/></g><g transform="translate(-102,-134) scale(1,1)"><path fill="none" stroke="#000000" d="M 112 297 L 360.1416015625 297" stroke-miterlimit="10"/></g><g transform="translate(-102,-134) scale(1,1)"><path fill="none" stroke="#000000" d="M 112 307 L 360.1416015625 307" stroke-miterlimit="10"/></g><g transform="translate(-102,-134) scale(1,1)"><g><path fill="none" stroke="none"/><text fill="#000000" stroke="none" font-family="Arial" font-size="13px" font-style="normal" font-weight="bold" text-decoration="none" x="176.091796875" y="291.5">ConcreteComponent</text></g></g><g transform="translate(-102,-134) scale(1,1)"><g><path fill="none" stroke="none"/><text fill="#000000" stroke="none" font-family="Arial" font-size="13px" font-style="normal" font-weight="normal" text-decoration="none" x="117" y="324.5">+operation()</text></g></g><g transform="translate(-102,-134) scale(1,1)"><rect fill="#C0C0C0" stroke="none" x="495" y="287" width="248.1416015625" height="72" opacity="0.2"/></g><g transform="translate(-102,-134) scale(1,1)"><rect fill="#ffffff" stroke="none" x="488" y="280" width="248.1416015625" height="72"/></g><g transform="translate(-102,-134) scale(1,1)"><path fill="none" stroke="#000000" d="M 488 280 L 736.1416015625 280 L 736.1416015625 352 L 488 352 L 488 280 Z Z" stroke-miterlimit="10"/></g><g transform="translate(-102,-134) scale(1,1)"><path fill="none" stroke="#000000" d="M 488 305 L 736.1416015625 305" stroke-miterlimit="10"/></g><g transform="translate(-102,-134) scale(1,1)"><path fill="none" stroke="#000000" d="M 488 328 L 736.1416015625 328" stroke-miterlimit="10"/></g><g transform="translate(-102,-134) scale(1,1)"><g><path fill="none" stroke="none"/><text fill="#000000" stroke="none" font-family="Arial" font-size="13px" font-style="italic" font-weight="bold" text-decoration="none" x="584.99169921875" y="299.5">Decorator</text></g></g><g transform="translate(-102,-134) scale(1,1)"><g><path fill="none" stroke="none"/><text fill="#000000" stroke="none" font-family="Arial" font-size="13px" font-style="normal" font-weight="normal" text-decoration="none" x="493" y="322.5">-component: Component</text></g></g><g transform="translate(-102,-134) scale(1,1)"><g><path fill="none" stroke="none"/><text fill="#000000" stroke="none" font-family="Arial" font-size="13px" font-style="normal" font-weight="normal" text-decoration="none" x="493" y="345.5">+operation()</text></g></g><g transform="translate(-102,-134) scale(1,1)"><rect fill="#C0C0C0" stroke="none" x="647" y="455" width="248.1416015625" height="72" opacity="0.2"/></g><g transform="translate(-102,-134) scale(1,1)"><rect fill="#ffffff" stroke="none" x="640" y="448" width="248.1416015625" height="72"/></g><g transform="translate(-102,-134) scale(1,1)"><path fill="none" stroke="#000000" d="M 640 448 L 888.1416015625 448 L 888.1416015625 520 L 640 520 L 640 448 Z Z" stroke-miterlimit="10"/></g><g transform="translate(-102,-134) scale(1,1)"><path fill="none" stroke="#000000" d="M 640 473 L 888.1416015625 473" stroke-miterlimit="10"/></g><g transform="translate(-102,-134) scale(1,1)"><path fill="none" stroke="#000000" d="M 640 483 L 888.1416015625 483" stroke-miterlimit="10"/></g><g transform="translate(-102,-134) scale(1,1)"><g><path fill="none" stroke="none"/><text fill="#000000" stroke="none" font-family="Arial" font-size="13px" font-style="normal" font-weight="bold" text-decoration="none" x="731.1962890625" y="467.5">DecoratorA</text></g></g><g transform="translate(-102,-134) scale(1,1)"><g><path fill="none" stroke="none"/><text fill="#000000" stroke="none" font-family="Arial" font-size="13px" font-style="normal" font-weight="normal" text-decoration="none" x="645" y="500.5">+operation()</text></g></g><g transform="translate(-102,-134) scale(1,1)"><rect fill="#C0C0C0" stroke="none" x="303" y="455" width="248.1416015625" height="72" opacity="0.2"/></g><g transform="translate(-102,-134) scale(1,1)"><rect fill="#ffffff" stroke="none" x="296" y="448" width="248.1416015625" height="72"/></g><g transform="translate(-102,-134) scale(1,1)"><path fill="none" stroke="#000000" d="M 296 448 L 544.1416015625 448 L 544.1416015625 520 L 296 520 L 296 448 Z Z" stroke-miterlimit="10"/></g><g transform="translate(-102,-134) scale(1,1)"><path fill="none" stroke="#000000" d="M 296 473 L 544.1416015625 473" stroke-miterlimit="10"/></g><g transform="translate(-102,-134) scale(1,1)"><path fill="none" stroke="#000000" d="M 296 483 L 544.1416015625 483" stroke-miterlimit="10"/></g><g transform="translate(-102,-134) scale(1,1)"><g><path fill="none" stroke="none"/><text fill="#000000" stroke="none" font-family="Arial" font-size="13px" font-style="normal" font-weight="bold" text-decoration="none" x="387.1962890625" y="467.5">DecoratorB</text></g></g><g transform="translate(-102,-134) scale(1,1)"><g><path fill="none" stroke="none"/><text fill="#000000" stroke="none" font-family="Arial" font-size="13px" font-style="normal" font-weight="normal" text-decoration="none" x="301" y="500.5">+operation()</text></g></g><g transform="translate(-102,-134) scale(1,1)"><path fill="none" stroke="#000000" d="M 236 271 L 236 208" stroke-miterlimit="10" stroke-dasharray="3"/></g><g transform="translate(-102,-134) scale(1,1)"><path fill="#FFFFFF" stroke="none" d="M 244.41903551203197 228.3253497152483 L 236 208 L 227.58096448796803 228.3253497152483"/></g><g transform="translate(-102,-134) scale(1,1)"><path fill="none" stroke="#000000" d="M 244.41903551203197 228.3253497152483 L 236 208 L 227.58096448796803 228.3253497152483 L 244.41903551203197 228.3253497152483" stroke-miterlimit="10"/></g><g transform="translate(-102,-134) scale(1,1)"><path fill="none" stroke="#000000" d="M 513 279 L 324 208" stroke-miterlimit="10" stroke-dasharray="3"/></g><g transform="translate(-102,-134) scale(1,1)"><path fill="#FFFFFF" stroke="none" d="M 345.98776763903595 207.26646455316563 L 324 208 L 340.0663874894137 223.02901171201918"/></g><g transform="translate(-102,-134) scale(1,1)"><path fill="none" stroke="#000000" d="M 345.98776763903595 207.26646455316563 L 324 208 L 340.0663874894137 223.02901171201918 L 345.98776763903595 207.26646455316563" stroke-miterlimit="10"/></g><g transform="translate(-102,-134) scale(1,1)"><path fill="none" stroke="#000000" d="M 462 447 L 570 353" stroke-miterlimit="10"/></g><g transform="translate(-102,-134) scale(1,1)"><path fill="#FFFFFF" stroke="none" d="M 560.1957956806971 372.69460783223064 L 570 353 L 549.1411898907024 359.99357139266243"/></g><g transform="translate(-102,-134) scale(1,1)"><path fill="none" stroke="#000000" d="M 560.1957956806971 372.69460783223064 L 570 353 L 549.1411898907024 359.99357139266243 L 560.1957956806971 372.69460783223064" stroke-miterlimit="10"/></g><g transform="translate(-102,-134) scale(1,1)"><path fill="none" stroke="#000000" d="M 731 447 L 645 353" stroke-miterlimit="10"/></g><g transform="translate(-102,-134) scale(1,1)"><path fill="#FFFFFF" stroke="none" d="M 664.9314946439582 362.313190713062 L 645 353 L 652.5082747142364 373.6791153296159"/></g><g transform="translate(-102,-134) scale(1,1)"><path fill="none" stroke="#000000" d="M 664.9314946439582 362.313190713062 L 645 353 L 652.5082747142364 373.6791153296159 L 664.9314946439582 362.313190713062" stroke-miterlimit="10"/></g><g transform="translate(-102,-134) scale(1,1)"><path fill="none" stroke="#000000" d="M 360 160 L 608 160 L 608 280" stroke-miterlimit="10"/></g><g transform="translate(-102,-134) scale(1,1)"><path fill="#FFFFFF" stroke="none" d="M 603.790482243984 269.83732514237585 L 608 280 L 612.209517756016 269.83732514237585 L 608 258"/></g><g transform="translate(-102,-134) scale(1,1)"><path fill="none" stroke="#000000" d="M 603.790482243984 269.83732514237585 L 608 280 L 612.209517756016 269.83732514237585 L 608 258 L 603.790482243984 269.83732514237585" stroke-miterlimit="10"/></g><g transform="translate(-102,-134) scale(1,1)"><path fill="#ffffff" stroke="none" d="M 624 232 L 800.32080078125 232 L 810.32080078125 242 L 810.32080078125 270 L 624 270 L 624 232"/></g><g transform="translate(-102,-134) scale(1,1)"><path fill="none" stroke="#000000" d="M 624 232 L 800.32080078125 232 L 810.32080078125 242 L 810.32080078125 270 L 624 270 L 624 232 L 624 232" stroke-miterlimit="10"/></g><g transform="translate(-102,-134) scale(1,1)"><path fill="none" stroke="#000000" d="M 800.32080078125 232 L 800.32080078125 242 L 810.32080078125 242 L 800.32080078125 232" stroke-miterlimit="10"/></g><g transform="translate(-102,-134) scale(1,1)"><g><path fill="none" stroke="none"/><text fill="#000000" stroke="none" font-family="Arial" font-size="13px" font-style="normal" font-weight="normal" text-decoration="none" x="629" y="250">通过构造函数传入component</text></g></g></g></svg>