<svg version="1.1" xmlns="http://www.w3.org/2000/svg" xmlns:xlink="http://www.w3.org/1999/xlink" width="536.39453125" height="581"><defs/><g><g transform="translate(-142,-22) scale(1,1)"><rect fill="#C0C0C0" stroke="none" x="183" y="183" width="86.3017578125" height="57" opacity="0.2"/></g><g transform="translate(-142,-22) scale(1,1)"><rect fill="#ffffff" stroke="none" x="176" y="176" width="86.3017578125" height="57"/></g><g transform="translate(-142,-22) scale(1,1)"><path fill="none" stroke="#000000" d="M 176 176 L 262.3017578125 176 L 262.3017578125 233 L 176 233 L 176 176 Z Z" stroke-miterlimit="10"/></g><g transform="translate(-142,-22) scale(1,1)"><path fill="none" stroke="#000000" d="M 176 201 L 262.3017578125 201" stroke-miterlimit="10"/></g><g transform="translate(-142,-22) scale(1,1)"><path fill="none" stroke="#000000" d="M 176 211 L 262.3017578125 211" stroke-miterlimit="10"/></g><g transform="translate(-142,-22) scale(1,1)"><g><path fill="none" stroke="none"/><text fill="#000000" stroke="none" font-family="Arial" font-size="13px" font-style="normal" font-weight="bold" text-decoration="none" x="183.013671875" y="195.5">JavaStudent</text></g></g><g transform="translate(-142,-22) scale(1,1)"><g><path fill="none" stroke="none"/><text fill="#000000" stroke="none" font-family="Arial" font-size="13px" font-style="normal" font-weight="normal" text-decoration="none" x="181" y="228.5">+study()</text></g></g><g transform="translate(-142,-22) scale(1,1)"><rect fill="#C0C0C0" stroke="none" x="551" y="183" width="101.4345703125" height="57" opacity="0.2"/></g><g transform="translate(-142,-22) scale(1,1)"><rect fill="#ffffff" stroke="none" x="544" y="176" width="101.4345703125" height="57"/></g><g transform="translate(-142,-22) scale(1,1)"><path fill="none" stroke="#000000" d="M 544 176 L 645.4345703125 176 L 645.4345703125 233 L 544 233 L 544 176 Z Z" stroke-miterlimit="10"/></g><g transform="translate(-142,-22) scale(1,1)"><path fill="none" stroke="#000000" d="M 544 201 L 645.4345703125 201" stroke-miterlimit="10"/></g><g transform="translate(-142,-22) scale(1,1)"><path fill="none" stroke="#000000" d="M 544 211 L 645.4345703125 211" stroke-miterlimit="10"/></g><g transform="translate(-142,-22) scale(1,1)"><g><path fill="none" stroke="none"/><text fill="#000000" stroke="none" font-family="Arial" font-size="13px" font-style="normal" font-weight="bold" text-decoration="none" x="552.07373046875" y="195.5">PythonStudent</text></g></g><g transform="translate(-142,-22) scale(1,1)"><g><path fill="none" stroke="none"/><text fill="#000000" stroke="none" font-family="Arial" font-size="13px" font-style="normal" font-weight="normal" text-decoration="none" x="549" y="228.5">+study()</text></g></g><g transform="translate(-142,-22) scale(1,1)"><rect fill="#C0C0C0" stroke="none" x="375" y="39" width="73.32080078125" height="70" opacity="0.2"/></g><g transform="translate(-142,-22) scale(1,1)"><rect fill="#ffffff" stroke="none" x="368" y="32" width="73.32080078125" height="70"/></g><g transform="translate(-142,-22) scale(1,1)"><path fill="none" stroke="#000000" d="M 368 32 L 441.32080078125 32 L 441.32080078125 102 L 368 102 L 368 32 Z Z" stroke-miterlimit="10"/></g><g transform="translate(-142,-22) scale(1,1)"><path fill="none" stroke="#000000" d="M 368 70 L 441.32080078125 70" stroke-miterlimit="10"/></g><g transform="translate(-142,-22) scale(1,1)"><path fill="none" stroke="#000000" d="M 368 80 L 441.32080078125 80" stroke-miterlimit="10"/></g><g transform="translate(-142,-22) scale(1,1)"><g><path fill="none" stroke="none"/><text fill="#000000" stroke="none" font-family="Arial" font-size="13px" font-style="normal" font-weight="normal" text-decoration="none" x="372.5" y="49.5">«interface»</text></g></g><g transform="translate(-142,-22) scale(1,1)"><g><path fill="none" stroke="none"/><text fill="#000000" stroke="none" font-family="Arial" font-size="13px" font-style="normal" font-weight="bold" text-decoration="none" x="382.253173828125" y="64.5">Student</text></g></g><g transform="translate(-142,-22) scale(1,1)"><g><path fill="none" stroke="none"/><text fill="#000000" stroke="none" font-family="Arial" font-size="13px" font-style="normal" font-weight="normal" text-decoration="none" x="373" y="97.5">+study()</text></g></g><g transform="translate(-142,-22) scale(1,1)"><path fill="none" stroke="#000000" d="M 258 175 L 367 94" stroke-miterlimit="10" stroke-dasharray="3"/></g><g transform="translate(-142,-22) scale(1,1)"><path fill="#FFFFFF" stroke="none" d="M 355.7076121153054 112.88073027882137 L 367 94 L 345.66438353703484 99.3657683648524"/></g><g transform="translate(-142,-22) scale(1,1)"><path fill="none" stroke="#000000" d="M 355.7076121153054 112.88073027882137 L 367 94 L 345.66438353703484 99.3657683648524 L 355.7076121153054 112.88073027882137" stroke-miterlimit="10"/></g><g transform="translate(-142,-22) scale(1,1)"><path fill="none" stroke="#000000" d="M 258 175 L 367 94" stroke-miterlimit="10" stroke-dasharray="3"/></g><g transform="translate(-142,-22) scale(1,1)"><path fill="#FFFFFF" stroke="none" d="M 355.7076121153054 112.88073027882137 L 367 94 L 345.66438353703484 99.3657683648524"/></g><g transform="translate(-142,-22) scale(1,1)"><path fill="none" stroke="#000000" d="M 355.7076121153054 112.88073027882137 L 367 94 L 345.66438353703484 99.3657683648524 L 355.7076121153054 112.88073027882137" stroke-miterlimit="10"/></g><g transform="translate(-142,-22) scale(1,1)"><path fill="none" stroke="#000000" d="M 554 175 L 442 95" stroke-miterlimit="10" stroke-dasharray="3"/></g><g transform="translate(-142,-22) scale(1,1)"><path fill="#FFFFFF" stroke="none" d="M 463.43288237115024 99.96301856378133 L 442 95 L 453.64595238340945 113.66472054661843"/></g><g transform="translate(-142,-22) scale(1,1)"><path fill="none" stroke="#000000" d="M 463.43288237115024 99.96301856378133 L 442 95 L 453.64595238340945 113.66472054661843 L 463.43288237115024 99.96301856378133" stroke-miterlimit="10"/></g><g transform="translate(-142,-22) scale(1,1)"><rect fill="#C0C0C0" stroke="none" x="159" y="383" width="133.26171875" height="44" opacity="0.2"/></g><g transform="translate(-142,-22) scale(1,1)"><rect fill="#ffffff" stroke="none" x="152" y="376" width="133.26171875" height="44"/></g><g transform="translate(-142,-22) scale(1,1)"><path fill="none" stroke="#000000" d="M 152 376 L 285.26171875 376 L 285.26171875 420 L 152 420 L 152 376 Z Z" stroke-miterlimit="10"/></g><g transform="translate(-142,-22) scale(1,1)"><path fill="none" stroke="#000000" d="M 152 401 L 285.26171875 401" stroke-miterlimit="10"/></g><g transform="translate(-142,-22) scale(1,1)"><path fill="none" stroke="#000000" d="M 152 411 L 285.26171875 411" stroke-miterlimit="10"/></g><g transform="translate(-142,-22) scale(1,1)"><g><path fill="none" stroke="none"/><text fill="#000000" stroke="none" font-family="Arial" font-size="13px" font-style="normal" font-weight="bold" text-decoration="none" x="160.82275390625" y="395.5">JavaStudentFactory</text></g></g><g transform="translate(-142,-22) scale(1,1)"><rect fill="#C0C0C0" stroke="none" x="527" y="383" width="148.39453125" height="44" opacity="0.2"/></g><g transform="translate(-142,-22) scale(1,1)"><rect fill="#ffffff" stroke="none" x="520" y="376" width="148.39453125" height="44"/></g><g transform="translate(-142,-22) scale(1,1)"><path fill="none" stroke="#000000" d="M 520 376 L 668.39453125 376 L 668.39453125 420 L 520 420 L 520 376 Z Z" stroke-miterlimit="10"/></g><g transform="translate(-142,-22) scale(1,1)"><path fill="none" stroke="#000000" d="M 520 401 L 668.39453125 401" stroke-miterlimit="10"/></g><g transform="translate(-142,-22) scale(1,1)"><path fill="none" stroke="#000000" d="M 520 411 L 668.39453125 411" stroke-miterlimit="10"/></g><g transform="translate(-142,-22) scale(1,1)"><g><path fill="none" stroke="none"/><text fill="#000000" stroke="none" font-family="Arial" font-size="13px" font-style="normal" font-weight="bold" text-decoration="none" x="529.8828125" y="395.5">PythonStudentFactory</text></g></g><g transform="translate(-142,-22) scale(1,1)"><rect fill="#C0C0C0" stroke="none" x="343" y="247" width="152" height="72" opacity="0.2"/></g><g transform="translate(-142,-22) scale(1,1)"><rect fill="#ffffff" stroke="none" x="336" y="240" width="152" height="72"/></g><g transform="translate(-142,-22) scale(1,1)"><path fill="none" stroke="#000000" d="M 336 240 L 488 240 L 488 312 L 336 312 L 336 240 Z Z" stroke-miterlimit="10"/></g><g transform="translate(-142,-22) scale(1,1)"><path fill="none" stroke="#000000" d="M 336 278 L 488 278" stroke-miterlimit="10"/></g><g transform="translate(-142,-22) scale(1,1)"><path fill="none" stroke="#000000" d="M 336 288 L 488 288" stroke-miterlimit="10"/></g><g transform="translate(-142,-22) scale(1,1)"><g><path fill="none" stroke="none"/><text fill="#000000" stroke="none" font-family="Arial" font-size="13px" font-style="normal" font-weight="normal" text-decoration="none" x="379.839599609375" y="257.5">«interface»</text></g></g><g transform="translate(-142,-22) scale(1,1)"><g><path fill="none" stroke="none"/><text fill="#000000" stroke="none" font-family="Arial" font-size="13px" font-style="normal" font-weight="bold" text-decoration="none" x="367.921875" y="272.5">StudentFactory</text></g></g><g transform="translate(-142,-22) scale(1,1)"><g><path fill="none" stroke="none"/><text fill="#000000" stroke="none" font-family="Arial" font-size="13px" font-style="normal" font-weight="normal" text-decoration="none" x="341" y="305.5">+getStudent(): Student</text></g></g><g transform="translate(-142,-22) scale(1,1)"><path fill="none" stroke="#000000" d="M 255 375 L 353 313" stroke-miterlimit="10" stroke-dasharray="3"/></g><g transform="translate(-142,-22) scale(1,1)"><path fill="#FFFFFF" stroke="none" d="M 340.3246446849143 330.98152851223523 L 353 313 L 331.3223095556532 316.75203104985474"/></g><g transform="translate(-142,-22) scale(1,1)"><path fill="none" stroke="#000000" d="M 340.3246446849143 330.98152851223523 L 353 313 L 331.3223095556532 316.75203104985474 L 340.3246446849143 330.98152851223523" stroke-miterlimit="10"/></g><g transform="translate(-142,-22) scale(1,1)"><path fill="none" stroke="#000000" d="M 560 375 L 467 313" stroke-miterlimit="10" stroke-dasharray="3"/></g><g transform="translate(-142,-22) scale(1,1)"><path fill="#FFFFFF" stroke="none" d="M 488.58175386364326 317.2694144995677 L 467 313 L 479.24167256254066 331.2795364512216"/></g><g transform="translate(-142,-22) scale(1,1)"><path fill="none" stroke="#000000" d="M 488.58175386364326 317.2694144995677 L 467 313 L 479.24167256254066 331.2795364512216 L 488.58175386364326 317.2694144995677" stroke-miterlimit="10"/></g><g transform="translate(-142,-22) scale(1,1)"><path fill="none" stroke="#000000" d="M 218 375 L 219 234" stroke-miterlimit="10" stroke-dasharray="3"/></g><g transform="translate(-142,-22) scale(1,1)"><path fill="none" stroke="#000000" d="M 223.13733799655162 244.1922732646986 L 219 234 L 214.7185142122477 244.13256529459716" stroke-miterlimit="10"/></g><g transform="translate(-142,-22) scale(1,1)"><g><path fill="none" stroke="none"/><text fill="#000000" stroke="none" font-family="Arial" font-size="13px" font-style="normal" font-weight="normal" text-decoration="none" x="163.5" y="308.5">+create</text></g></g><g transform="translate(-142,-22) scale(1,1)"><path fill="none" stroke="#000000" d="M 594 375 L 594 234" stroke-miterlimit="10" stroke-dasharray="3"/></g><g transform="translate(-142,-22) scale(1,1)"><path fill="none" stroke="#000000" d="M 598.209517756016 244.16267485762415 L 594 234 L 589.790482243984 244.16267485762415" stroke-miterlimit="10"/></g><g transform="translate(-142,-22) scale(1,1)"><g><path fill="none" stroke="none"/><text fill="#000000" stroke="none" font-family="Arial" font-size="13px" font-style="normal" font-weight="normal" text-decoration="none" x="598.5" y="308.5">+create</text></g></g><g transform="translate(-142,-22) scale(1,1)"><rect fill="#C0C0C0" stroke="none" x="367" y="543" width="94.61083984375" height="57" opacity="0.2"/></g><g transform="translate(-142,-22) scale(1,1)"><rect fill="#ffffff" stroke="none" x="360" y="536" width="94.61083984375" height="57"/></g><g transform="translate(-142,-22) scale(1,1)"><path fill="none" stroke="#000000" d="M 360 536 L 454.61083984375 536 L 454.61083984375 593 L 360 593 L 360 536 Z Z" stroke-miterlimit="10"/></g><g transform="translate(-142,-22) scale(1,1)"><path fill="none" stroke="#000000" d="M 360 561 L 454.61083984375 561" stroke-miterlimit="10"/></g><g transform="translate(-142,-22) scale(1,1)"><path fill="none" stroke="#000000" d="M 360 571 L 454.61083984375 571" stroke-miterlimit="10"/></g><g transform="translate(-142,-22) scale(1,1)"><g><path fill="none" stroke="none"/><text fill="#000000" stroke="none" font-family="Arial" font-size="13px" font-style="normal" font-weight="bold" text-decoration="none" x="375.5068359375" y="555.5">Application</text></g></g><g transform="translate(-142,-22) scale(1,1)"><g><path fill="none" stroke="none"/><text fill="#000000" stroke="none" font-family="Arial" font-size="13px" font-style="normal" font-weight="normal" text-decoration="none" x="365" y="588.5">+Main(String[])</text></g></g><g transform="translate(-142,-22) scale(1,1)"><path fill="none" stroke="#000000" d="M 374 535 L 244 421" stroke-miterlimit="10" stroke-dasharray="3"/></g><g transform="translate(-142,-22) scale(1,1)"><path fill="none" stroke="#000000" d="M 254.41633812401201 424.53551977596703 L 244 421 L 248.86547331401545 430.86545333122626" stroke-miterlimit="10"/></g><g transform="translate(-142,-22) scale(1,1)"><g><path fill="none" stroke="none"/><text fill="#000000" stroke="none" font-family="Arial" font-size="13px" font-style="normal" font-weight="normal" text-decoration="none" x="255.5" y="492.5">+usage</text></g></g><g transform="translate(-142,-22) scale(1,1)"><path fill="none" stroke="#000000" d="M 440 535 L 568 421" stroke-miterlimit="10" stroke-dasharray="3"/></g><g transform="translate(-142,-22) scale(1,1)"><path fill="none" stroke="#000000" d="M 563.2105667665882 430.9025920496954 L 568 421 L 557.6111692929506 424.61554927227786" stroke-miterlimit="10"/></g><g transform="translate(-142,-22) scale(1,1)"><g><path fill="none" stroke="none"/><text fill="#000000" stroke="none" font-family="Arial" font-size="13px" font-style="normal" font-weight="normal" text-decoration="none" x="526.5" y="483.5">+usage</text></g></g></g></svg>