<svg version="1.1" xmlns="http://www.w3.org/2000/svg" xmlns:xlink="http://www.w3.org/1999/xlink" width="536.39453125" height="685"><defs/><g><g transform="translate(-142,-22) scale(1,1)"><rect fill="#C0C0C0" stroke="none" x="183" y="183" width="86.3017578125" height="57" opacity="0.2"/></g><g transform="translate(-142,-22) scale(1,1)"><rect fill="#ffffff" stroke="none" x="176" y="176" width="86.3017578125" height="57"/></g><g transform="translate(-142,-22) scale(1,1)"><path fill="none" stroke="#000000" d="M 176 176 L 262.3017578125 176 L 262.3017578125 233 L 176 233 L 176 176 Z Z" stroke-miterlimit="10"/></g><g transform="translate(-142,-22) scale(1,1)"><path fill="none" stroke="#000000" d="M 176 201 L 262.3017578125 201" stroke-miterlimit="10"/></g><g transform="translate(-142,-22) scale(1,1)"><path fill="none" stroke="#000000" d="M 176 211 L 262.3017578125 211" stroke-miterlimit="10"/></g><g transform="translate(-142,-22) scale(1,1)"><g><path fill="none" stroke="none"/><text fill="#000000" stroke="none" font-family="Arial" font-size="13px" font-style="normal" font-weight="bold" text-decoration="none" x="183.013671875" y="195.5">JavaStudent</text></g></g><g transform="translate(-142,-22) scale(1,1)"><g><path fill="none" stroke="none"/><text fill="#000000" stroke="none" font-family="Arial" font-size="13px" font-style="normal" font-weight="normal" text-decoration="none" x="181" y="228.5">+study()</text></g></g><g transform="translate(-142,-22) scale(1,1)"><rect fill="#C0C0C0" stroke="none" x="551" y="183" width="101.4345703125" height="57" opacity="0.2"/></g><g transform="translate(-142,-22) scale(1,1)"><rect fill="#ffffff" stroke="none" x="544" y="176" width="101.4345703125" height="57"/></g><g transform="translate(-142,-22) scale(1,1)"><path fill="none" stroke="#000000" d="M 544 176 L 645.4345703125 176 L 645.4345703125 233 L 544 233 L 544 176 Z Z" stroke-miterlimit="10"/></g><g transform="translate(-142,-22) scale(1,1)"><path fill="none" stroke="#000000" d="M 544 201 L 645.4345703125 201" stroke-miterlimit="10"/></g><g transform="translate(-142,-22) scale(1,1)"><path fill="none" stroke="#000000" d="M 544 211 L 645.4345703125 211" stroke-miterlimit="10"/></g><g transform="translate(-142,-22) scale(1,1)"><g><path fill="none" stroke="none"/><text fill="#000000" stroke="none" font-family="Arial" font-size="13px" font-style="normal" font-weight="bold" text-decoration="none" x="552.07373046875" y="195.5">PythonStudent</text></g></g><g transform="translate(-142,-22) scale(1,1)"><g><path fill="none" stroke="none"/><text fill="#000000" stroke="none" font-family="Arial" font-size="13px" font-style="normal" font-weight="normal" text-decoration="none" x="549" y="228.5">+study()</text></g></g><g transform="translate(-142,-22) scale(1,1)"><rect fill="#C0C0C0" stroke="none" x="375" y="39" width="73.32080078125" height="70" opacity="0.2"/></g><g transform="translate(-142,-22) scale(1,1)"><rect fill="#ffffff" stroke="none" x="368" y="32" width="73.32080078125" height="70"/></g><g transform="translate(-142,-22) scale(1,1)"><path fill="none" stroke="#000000" d="M 368 32 L 441.32080078125 32 L 441.32080078125 102 L 368 102 L 368 32 Z Z" stroke-miterlimit="10"/></g><g transform="translate(-142,-22) scale(1,1)"><path fill="none" stroke="#000000" d="M 368 70 L 441.32080078125 70" stroke-miterlimit="10"/></g><g transform="translate(-142,-22) scale(1,1)"><path fill="none" stroke="#000000" d="M 368 80 L 441.32080078125 80" stroke-miterlimit="10"/></g><g transform="translate(-142,-22) scale(1,1)"><g><path fill="none" stroke="none"/><text fill="#000000" stroke="none" font-family="Arial" font-size="13px" font-style="normal" font-weight="normal" text-decoration="none" x="372.5" y="49.5">«interface»</text></g></g><g transform="translate(-142,-22) scale(1,1)"><g><path fill="none" stroke="none"/><text fill="#000000" stroke="none" font-family="Arial" font-size="13px" font-style="normal" font-weight="bold" text-decoration="none" x="382.253173828125" y="64.5">Student</text></g></g><g transform="translate(-142,-22) scale(1,1)"><g><path fill="none" stroke="none"/><text fill="#000000" stroke="none" font-family="Arial" font-size="13px" font-style="normal" font-weight="normal" text-decoration="none" x="373" y="97.5">+study()</text></g></g><g transform="translate(-142,-22) scale(1,1)"><path fill="none" stroke="#000000" d="M 258 175 L 367 94" stroke-miterlimit="10" stroke-dasharray="3"/></g><g transform="translate(-142,-22) scale(1,1)"><path fill="#FFFFFF" stroke="none" d="M 355.7076121153054 112.88073027882137 L 367 94 L 345.66438353703484 99.3657683648524"/></g><g transform="translate(-142,-22) scale(1,1)"><path fill="none" stroke="#000000" d="M 355.7076121153054 112.88073027882137 L 367 94 L 345.66438353703484 99.3657683648524 L 355.7076121153054 112.88073027882137" stroke-miterlimit="10"/></g><g transform="translate(-142,-22) scale(1,1)"><path fill="none" stroke="#000000" d="M 258 175 L 367 94" stroke-miterlimit="10" stroke-dasharray="3"/></g><g transform="translate(-142,-22) scale(1,1)"><path fill="#FFFFFF" stroke="none" d="M 355.7076121153054 112.88073027882137 L 367 94 L 345.66438353703484 99.3657683648524"/></g><g transform="translate(-142,-22) scale(1,1)"><path fill="none" stroke="#000000" d="M 355.7076121153054 112.88073027882137 L 367 94 L 345.66438353703484 99.3657683648524 L 355.7076121153054 112.88073027882137" stroke-miterlimit="10"/></g><g transform="translate(-142,-22) scale(1,1)"><path fill="none" stroke="#000000" d="M 554 175 L 442 95" stroke-miterlimit="10" stroke-dasharray="3"/></g><g transform="translate(-142,-22) scale(1,1)"><path fill="#FFFFFF" stroke="none" d="M 463.43288237115024 99.96301856378133 L 442 95 L 453.64595238340945 113.66472054661843"/></g><g transform="translate(-142,-22) scale(1,1)"><path fill="none" stroke="#000000" d="M 463.43288237115024 99.96301856378133 L 442 95 L 453.64595238340945 113.66472054661843 L 463.43288237115024 99.96301856378133" stroke-miterlimit="10"/></g><g transform="translate(-142,-22) scale(1,1)"><rect fill="#C0C0C0" stroke="none" x="159" y="383" width="140.17431640625" height="57" opacity="0.2"/></g><g transform="translate(-142,-22) scale(1,1)"><rect fill="#ffffff" stroke="none" x="152" y="376" width="140.17431640625" height="57"/></g><g transform="translate(-142,-22) scale(1,1)"><path fill="none" stroke="#000000" d="M 152 376 L 292.17431640625 376 L 292.17431640625 433 L 152 433 L 152 376 Z Z" stroke-miterlimit="10"/></g><g transform="translate(-142,-22) scale(1,1)"><path fill="none" stroke="#000000" d="M 152 401 L 292.17431640625 401" stroke-miterlimit="10"/></g><g transform="translate(-142,-22) scale(1,1)"><path fill="none" stroke="#000000" d="M 152 411 L 292.17431640625 411" stroke-miterlimit="10"/></g><g transform="translate(-142,-22) scale(1,1)"><g><path fill="none" stroke="none"/><text fill="#000000" stroke="none" font-family="Arial" font-size="13px" font-style="normal" font-weight="bold" text-decoration="none" x="164.279052734375" y="395.5">JavaStudentFactory</text></g></g><g transform="translate(-142,-22) scale(1,1)"><g><path fill="none" stroke="none"/><text fill="#000000" stroke="none" font-family="Arial" font-size="13px" font-style="normal" font-weight="normal" text-decoration="none" x="157" y="428.5">+getStudent(): Student</text></g></g><g transform="translate(-142,-22) scale(1,1)"><rect fill="#C0C0C0" stroke="none" x="527" y="383" width="148.39453125" height="57" opacity="0.2"/></g><g transform="translate(-142,-22) scale(1,1)"><rect fill="#ffffff" stroke="none" x="520" y="376" width="148.39453125" height="57"/></g><g transform="translate(-142,-22) scale(1,1)"><path fill="none" stroke="#000000" d="M 520 376 L 668.39453125 376 L 668.39453125 433 L 520 433 L 520 376 Z Z" stroke-miterlimit="10"/></g><g transform="translate(-142,-22) scale(1,1)"><path fill="none" stroke="#000000" d="M 520 401 L 668.39453125 401" stroke-miterlimit="10"/></g><g transform="translate(-142,-22) scale(1,1)"><path fill="none" stroke="#000000" d="M 520 411 L 668.39453125 411" stroke-miterlimit="10"/></g><g transform="translate(-142,-22) scale(1,1)"><g><path fill="none" stroke="none"/><text fill="#000000" stroke="none" font-family="Arial" font-size="13px" font-style="normal" font-weight="bold" text-decoration="none" x="529.8828125" y="395.5">PythonStudentFactory</text></g></g><g transform="translate(-142,-22) scale(1,1)"><g><path fill="none" stroke="none"/><text fill="#000000" stroke="none" font-family="Arial" font-size="13px" font-style="normal" font-weight="normal" text-decoration="none" x="525" y="428.5">+getStudent(): Student</text></g></g><g transform="translate(-142,-22) scale(1,1)"><rect fill="#C0C0C0" stroke="none" x="327" y="519" width="152" height="72" opacity="0.2"/></g><g transform="translate(-142,-22) scale(1,1)"><rect fill="#ffffff" stroke="none" x="320" y="512" width="152" height="72"/></g><g transform="translate(-142,-22) scale(1,1)"><path fill="none" stroke="#000000" d="M 320 512 L 472 512 L 472 584 L 320 584 L 320 512 Z Z" stroke-miterlimit="10"/></g><g transform="translate(-142,-22) scale(1,1)"><path fill="none" stroke="#000000" d="M 320 550 L 472 550" stroke-miterlimit="10"/></g><g transform="translate(-142,-22) scale(1,1)"><path fill="none" stroke="#000000" d="M 320 560 L 472 560" stroke-miterlimit="10"/></g><g transform="translate(-142,-22) scale(1,1)"><g><path fill="none" stroke="none"/><text fill="#000000" stroke="none" font-family="Arial" font-size="13px" font-style="normal" font-weight="normal" text-decoration="none" x="363.839599609375" y="529.5">«interface»</text></g></g><g transform="translate(-142,-22) scale(1,1)"><g><path fill="none" stroke="none"/><text fill="#000000" stroke="none" font-family="Arial" font-size="13px" font-style="normal" font-weight="bold" text-decoration="none" x="351.921875" y="544.5">StudentFactory</text></g></g><g transform="translate(-142,-22) scale(1,1)"><g><path fill="none" stroke="none"/><text fill="#000000" stroke="none" font-family="Arial" font-size="13px" font-style="normal" font-weight="normal" text-decoration="none" x="325" y="577.5">+getStudent(): Student</text></g></g><g transform="translate(-142,-22) scale(1,1)"><path fill="none" stroke="#000000" d="M 258 434 L 351 511" stroke-miterlimit="10" stroke-dasharray="3"/></g><g transform="translate(-142,-22) scale(1,1)"><path fill="#FFFFFF" stroke="none" d="M 329.97518544815205 504.52256431445255 L 351 511 L 340.71344975514904 491.5529723592484"/></g><g transform="translate(-142,-22) scale(1,1)"><path fill="none" stroke="#000000" d="M 329.97518544815205 504.52256431445255 L 351 511 L 340.71344975514904 491.5529723592484 L 329.97518544815205 504.52256431445255" stroke-miterlimit="10"/></g><g transform="translate(-142,-22) scale(1,1)"><path fill="none" stroke="#000000" d="M 553 434 L 447 511" stroke-miterlimit="10" stroke-dasharray="3"/></g><g transform="translate(-142,-22) scale(1,1)"><path fill="#FFFFFF" stroke="none" d="M 458.49653302311714 492.2428752616938 L 447 511 L 468.39256655879944 505.86598636276295"/></g><g transform="translate(-142,-22) scale(1,1)"><path fill="none" stroke="#000000" d="M 458.49653302311714 492.2428752616938 L 447 511 L 468.39256655879944 505.86598636276295 L 458.49653302311714 492.2428752616938" stroke-miterlimit="10"/></g><g transform="translate(-142,-22) scale(1,1)"><path fill="none" stroke="#000000" d="M 222 375 L 219 234" stroke-miterlimit="10" stroke-dasharray="3"/></g><g transform="translate(-142,-22) scale(1,1)"><path fill="none" stroke="#000000" d="M 223.42474346760469 244.0708314078774 L 219 234 L 215.0076129302576 244.2499192916507" stroke-miterlimit="10"/></g><g transform="translate(-142,-22) scale(1,1)"><g><path fill="none" stroke="none"/><text fill="#000000" stroke="none" font-family="Arial" font-size="13px" font-style="normal" font-weight="normal" text-decoration="none" x="165.5" y="309.5">+create</text></g></g><g transform="translate(-142,-22) scale(1,1)"><path fill="none" stroke="#000000" d="M 594 375 L 594 234" stroke-miterlimit="10" stroke-dasharray="3"/></g><g transform="translate(-142,-22) scale(1,1)"><path fill="none" stroke="#000000" d="M 598.209517756016 244.16267485762415 L 594 234 L 589.790482243984 244.16267485762415" stroke-miterlimit="10"/></g><g transform="translate(-142,-22) scale(1,1)"><g><path fill="none" stroke="none"/><text fill="#000000" stroke="none" font-family="Arial" font-size="13px" font-style="normal" font-weight="normal" text-decoration="none" x="598.5" y="308.5">+create</text></g></g><g transform="translate(-142,-22) scale(1,1)"><rect fill="#C0C0C0" stroke="none" x="359" y="647" width="97" height="57" opacity="0.2"/></g><g transform="translate(-142,-22) scale(1,1)"><rect fill="#ffffff" stroke="none" x="352" y="640" width="97" height="57"/></g><g transform="translate(-142,-22) scale(1,1)"><path fill="none" stroke="#000000" d="M 352 640 L 449 640 L 449 697 L 352 697 L 352 640 Z Z" stroke-miterlimit="10"/></g><g transform="translate(-142,-22) scale(1,1)"><path fill="none" stroke="#000000" d="M 352 665 L 449 665" stroke-miterlimit="10"/></g><g transform="translate(-142,-22) scale(1,1)"><path fill="none" stroke="#000000" d="M 352 675 L 449 675" stroke-miterlimit="10"/></g><g transform="translate(-142,-22) scale(1,1)"><g><path fill="none" stroke="none"/><text fill="#000000" stroke="none" font-family="Arial" font-size="13px" font-style="normal" font-weight="bold" text-decoration="none" x="368.701416015625" y="659.5">Application</text></g></g><g transform="translate(-142,-22) scale(1,1)"><g><path fill="none" stroke="none"/><text fill="#000000" stroke="none" font-family="Arial" font-size="13px" font-style="normal" font-weight="normal" text-decoration="none" x="357" y="692.5">+Main(String[])</text></g></g><g transform="translate(-142,-22) scale(1,1)"><path fill="none" stroke="#000000" d="M 399 639 L 397 585" stroke-miterlimit="10" stroke-dasharray="3"/></g><g transform="translate(-142,-22) scale(1,1)"><path fill="none" stroke="#000000" d="M 401.58277100829406 594.9999104938764 L 397 585 L 393.1695039351113 595.3115129780683" stroke-miterlimit="10"/></g><g transform="translate(-142,-22) scale(1,1)"><g><path fill="none" stroke="none"/><text fill="#000000" stroke="none" font-family="Arial" font-size="13px" font-style="normal" font-weight="normal" text-decoration="none" x="343.5" y="618.5">+usage</text></g></g></g></svg>