<svg version="1.1" xmlns="http://www.w3.org/2000/svg" xmlns:xlink="http://www.w3.org/1999/xlink" width="536.39453125" height="581"><defs/><g><g transform="translate(-142,-22) scale(1,1)"><rect fill="#C0C0C0" stroke="none" x="183" y="183" width="86.3017578125" height="57" opacity="0.2"/></g><g transform="translate(-142,-22) scale(1,1)"><rect fill="#ffffff" stroke="none" x="176" y="176" width="86.3017578125" height="57"/></g><g transform="translate(-142,-22) scale(1,1)"><path fill="none" stroke="#000000" d="M 176 176 L 262.3017578125 176 L 262.3017578125 233 L 176 233 L 176 176 Z Z" stroke-miterlimit="10"/></g><g transform="translate(-142,-22) scale(1,1)"><path fill="none" stroke="#000000" d="M 176 201 L 262.3017578125 201" stroke-miterlimit="10"/></g><g transform="translate(-142,-22) scale(1,1)"><path fill="none" stroke="#000000" d="M 176 211 L 262.3017578125 211" stroke-miterlimit="10"/></g><g transform="translate(-142,-22) scale(1,1)"><g><path fill="none" stroke="none"/><text fill="#000000" stroke="none" font-family="Arial" font-size="13px" font-style="normal" font-weight="bold" text-decoration="none" x="183.013671875" y="195.5">JavaStudent</text></g></g><g transform="translate(-142,-22) scale(1,1)"><g><path fill="none" stroke="none"/><text fill="#000000" stroke="none" font-family="Arial" font-size="13px" font-style="normal" font-weight="normal" text-decoration="none" x="181" y="228.5">+study()</text></g></g><g transform="translate(-142,-22) scale(1,1)"><rect fill="#C0C0C0" stroke="none" x="551" y="183" width="101.4345703125" height="57" opacity="0.2"/></g><g transform="translate(-142,-22) scale(1,1)"><rect fill="#ffffff" stroke="none" x="544" y="176" width="101.4345703125" height="57"/></g><g transform="translate(-142,-22) scale(1,1)"><path fill="none" stroke="#000000" d="M 544 176 L 645.4345703125 176 L 645.4345703125 233 L 544 233 L 544 176 Z Z" stroke-miterlimit="10"/></g><g transform="translate(-142,-22) scale(1,1)"><path fill="none" stroke="#000000" d="M 544 201 L 645.4345703125 201" stroke-miterlimit="10"/></g><g transform="translate(-142,-22) scale(1,1)"><path fill="none" stroke="#000000" d="M 544 211 L 645.4345703125 211" stroke-miterlimit="10"/></g><g transform="translate(-142,-22) scale(1,1)"><g><path fill="none" stroke="none"/><text fill="#000000" stroke="none" font-family="Arial" font-size="13px" font-style="normal" font-weight="bold" text-decoration="none" x="552.07373046875" y="195.5">PythonStudent</text></g></g><g transform="translate(-142,-22) scale(1,1)"><g><path fill="none" stroke="none"/><text fill="#000000" stroke="none" font-family="Arial" font-size="13px" font-style="normal" font-weight="normal" text-decoration="none" x="549" y="228.5">+study()</text></g></g><g transform="translate(-142,-22) scale(1,1)"><rect fill="#C0C0C0" stroke="none" x="375" y="39" width="73.32080078125" height="70" opacity="0.2"/></g><g transform="translate(-142,-22) scale(1,1)"><rect fill="#ffffff" stroke="none" x="368" y="32" width="73.32080078125" height="70"/></g><g transform="translate(-142,-22) scale(1,1)"><path fill="none" stroke="#000000" d="M 368 32 L 441.32080078125 32 L 441.32080078125 102 L 368 102 L 368 32 Z Z" stroke-miterlimit="10"/></g><g transform="translate(-142,-22) scale(1,1)"><path fill="none" stroke="#000000" d="M 368 70 L 441.32080078125 70" stroke-miterlimit="10"/></g><g transform="translate(-142,-22) scale(1,1)"><path fill="none" stroke="#000000" d="M 368 80 L 441.32080078125 80" stroke-miterlimit="10"/></g><g transform="translate(-142,-22) scale(1,1)"><g><path fill="none" stroke="none"/><text fill="#000000" stroke="none" font-family="Arial" font-size="13px" font-style="normal" font-weight="normal" text-decoration="none" x="372.5" y="49.5">«interface»</text></g></g><g transform="translate(-142,-22) scale(1,1)"><g><path fill="none" stroke="none"/><text fill="#000000" stroke="none" font-family="Arial" font-size="13px" font-style="normal" font-weight="bold" text-decoration="none" x="382.253173828125" y="64.5">Student</text></g></g><g transform="translate(-142,-22) scale(1,1)"><g><path fill="none" stroke="none"/><text fill="#000000" stroke="none" font-family="Arial" font-size="13px" font-style="normal" font-weight="normal" text-decoration="none" x="373" y="97.5">+study()</text></g></g><g transform="translate(-142,-22) scale(1,1)"><path fill="none" stroke="#000000" d="M 258 175 L 367 94" stroke-miterlimit="10" stroke-dasharray="3"/></g><g transform="translate(-142,-22) scale(1,1)"><path fill="#FFFFFF" stroke="none" d="M 355.7076121153054 112.88073027882137 L 367 94 L 345.66438353703484 99.3657683648524"/></g><g transform="translate(-142,-22) scale(1,1)"><path fill="none" stroke="#000000" d="M 355.7076121153054 112.88073027882137 L 367 94 L 345.66438353703484 99.3657683648524 L 355.7076121153054 112.88073027882137" stroke-miterlimit="10"/></g><g transform="translate(-142,-22) scale(1,1)"><path fill="none" stroke="#000000" d="M 258 175 L 367 94" stroke-miterlimit="10" stroke-dasharray="3"/></g><g transform="translate(-142,-22) scale(1,1)"><path fill="#FFFFFF" stroke="none" d="M 355.7076121153054 112.88073027882137 L 367 94 L 345.66438353703484 99.3657683648524"/></g><g transform="translate(-142,-22) scale(1,1)"><path fill="none" stroke="#000000" d="M 355.7076121153054 112.88073027882137 L 367 94 L 345.66438353703484 99.3657683648524 L 355.7076121153054 112.88073027882137" stroke-miterlimit="10"/></g><g transform="translate(-142,-22) scale(1,1)"><path fill="none" stroke="#000000" d="M 554 175 L 442 95" stroke-miterlimit="10" stroke-dasharray="3"/></g><g transform="translate(-142,-22) scale(1,1)"><path fill="#FFFFFF" stroke="none" d="M 463.43288237115024 99.96301856378133 L 442 95 L 453.64595238340945 113.66472054661843"/></g><g transform="translate(-142,-22) scale(1,1)"><path fill="none" stroke="#000000" d="M 463.43288237115024 99.96301856378133 L 442 95 L 453.64595238340945 113.66472054661843 L 463.43288237115024 99.96301856378133" stroke-miterlimit="10"/></g><g transform="translate(-142,-22) scale(1,1)"><rect fill="#C0C0C0" stroke="none" x="159" y="383" width="140.17431640625" height="57" opacity="0.2"/></g><g transform="translate(-142,-22) scale(1,1)"><rect fill="#ffffff" stroke="none" x="152" y="376" width="140.17431640625" height="57"/></g><g transform="translate(-142,-22) scale(1,1)"><path fill="none" stroke="#000000" d="M 152 376 L 292.17431640625 376 L 292.17431640625 433 L 152 433 L 152 376 Z Z" stroke-miterlimit="10"/></g><g transform="translate(-142,-22) scale(1,1)"><path fill="none" stroke="#000000" d="M 152 401 L 292.17431640625 401" stroke-miterlimit="10"/></g><g transform="translate(-142,-22) scale(1,1)"><path fill="none" stroke="#000000" d="M 152 411 L 292.17431640625 411" stroke-miterlimit="10"/></g><g transform="translate(-142,-22) scale(1,1)"><g><path fill="none" stroke="none"/><text fill="#000000" stroke="none" font-family="Arial" font-size="13px" font-style="normal" font-weight="bold" text-decoration="none" x="164.279052734375" y="395.5">JavaStudentFactory</text></g></g><g transform="translate(-142,-22) scale(1,1)"><g><path fill="none" stroke="none"/><text fill="#000000" stroke="none" font-family="Arial" font-size="13px" font-style="normal" font-weight="normal" text-decoration="none" x="157" y="428.5">+getStudent(): Student</text></g></g><g transform="translate(-142,-22) scale(1,1)"><rect fill="#C0C0C0" stroke="none" x="527" y="383" width="148.39453125" height="57" opacity="0.2"/></g><g transform="translate(-142,-22) scale(1,1)"><rect fill="#ffffff" stroke="none" x="520" y="376" width="148.39453125" height="57"/></g><g transform="translate(-142,-22) scale(1,1)"><path fill="none" stroke="#000000" d="M 520 376 L 668.39453125 376 L 668.39453125 433 L 520 433 L 520 376 Z Z" stroke-miterlimit="10"/></g><g transform="translate(-142,-22) scale(1,1)"><path fill="none" stroke="#000000" d="M 520 401 L 668.39453125 401" stroke-miterlimit="10"/></g><g transform="translate(-142,-22) scale(1,1)"><path fill="none" stroke="#000000" d="M 520 411 L 668.39453125 411" stroke-miterlimit="10"/></g><g transform="translate(-142,-22) scale(1,1)"><g><path fill="none" stroke="none"/><text fill="#000000" stroke="none" font-family="Arial" font-size="13px" font-style="normal" font-weight="bold" text-decoration="none" x="529.8828125" y="395.5">PythonStudentFactory</text></g></g><g transform="translate(-142,-22) scale(1,1)"><g><path fill="none" stroke="none"/><text fill="#000000" stroke="none" font-family="Arial" font-size="13px" font-style="normal" font-weight="normal" text-decoration="none" x="525" y="428.5">+getStudent(): Student</text></g></g><g transform="translate(-142,-22) scale(1,1)"><rect fill="#C0C0C0" stroke="none" x="343" y="247" width="152" height="72" opacity="0.2"/></g><g transform="translate(-142,-22) scale(1,1)"><rect fill="#ffffff" stroke="none" x="336" y="240" width="152" height="72"/></g><g transform="translate(-142,-22) scale(1,1)"><path fill="none" stroke="#000000" d="M 336 240 L 488 240 L 488 312 L 336 312 L 336 240 Z Z" stroke-miterlimit="10"/></g><g transform="translate(-142,-22) scale(1,1)"><path fill="none" stroke="#000000" d="M 336 278 L 488 278" stroke-miterlimit="10"/></g><g transform="translate(-142,-22) scale(1,1)"><path fill="none" stroke="#000000" d="M 336 288 L 488 288" stroke-miterlimit="10"/></g><g transform="translate(-142,-22) scale(1,1)"><g><path fill="none" stroke="none"/><text fill="#000000" stroke="none" font-family="Arial" font-size="13px" font-style="normal" font-weight="normal" text-decoration="none" x="379.839599609375" y="257.5">«interface»</text></g></g><g transform="translate(-142,-22) scale(1,1)"><g><path fill="none" stroke="none"/><text fill="#000000" stroke="none" font-family="Arial" font-size="13px" font-style="normal" font-weight="bold" text-decoration="none" x="367.921875" y="272.5">StudentFactory</text></g></g><g transform="translate(-142,-22) scale(1,1)"><g><path fill="none" stroke="none"/><text fill="#000000" stroke="none" font-family="Arial" font-size="13px" font-style="normal" font-weight="normal" text-decoration="none" x="341" y="305.5">+getStudent(): Student</text></g></g><g transform="translate(-142,-22) scale(1,1)"><path fill="none" stroke="#000000" d="M 265 375 L 357 313" stroke-miterlimit="10" stroke-dasharray="3"/></g><g transform="translate(-142,-22) scale(1,1)"><path fill="#FFFFFF" stroke="none" d="M 344.8498769953038 331.34051555902266 L 357 313 L 335.4398627088863 317.377268553371"/></g><g transform="translate(-142,-22) scale(1,1)"><path fill="none" stroke="#000000" d="M 344.8498769953038 331.34051555902266 L 357 313 L 335.4398627088863 317.377268553371 L 344.8498769953038 331.34051555902266" stroke-miterlimit="10"/></g><g transform="translate(-142,-22) scale(1,1)"><path fill="none" stroke="#000000" d="M 553 375 L 465 313" stroke-miterlimit="10" stroke-dasharray="3"/></g><g transform="translate(-142,-22) scale(1,1)"><path fill="#FFFFFF" stroke="none" d="M 486.46458958229437 317.8240433314451 L 465 313 L 476.76664309662385 331.58887060142905"/></g><g transform="translate(-142,-22) scale(1,1)"><path fill="none" stroke="#000000" d="M 486.46458958229437 317.8240433314451 L 465 313 L 476.76664309662385 331.58887060142905 L 486.46458958229437 317.8240433314451" stroke-miterlimit="10"/></g><g transform="translate(-142,-22) scale(1,1)"><path fill="none" stroke="#000000" d="M 222 375 L 219 234" stroke-miterlimit="10" stroke-dasharray="3"/></g><g transform="translate(-142,-22) scale(1,1)"><path fill="none" stroke="#000000" d="M 223.42474346760469 244.0708314078774 L 219 234 L 215.0076129302576 244.2499192916507" stroke-miterlimit="10"/></g><g transform="translate(-142,-22) scale(1,1)"><g><path fill="none" stroke="none"/><text fill="#000000" stroke="none" font-family="Arial" font-size="13px" font-style="normal" font-weight="normal" text-decoration="none" x="165.5" y="309.5">+create</text></g></g><g transform="translate(-142,-22) scale(1,1)"><path fill="none" stroke="#000000" d="M 594 375 L 594 234" stroke-miterlimit="10" stroke-dasharray="3"/></g><g transform="translate(-142,-22) scale(1,1)"><path fill="none" stroke="#000000" d="M 598.209517756016 244.16267485762415 L 594 234 L 589.790482243984 244.16267485762415" stroke-miterlimit="10"/></g><g transform="translate(-142,-22) scale(1,1)"><g><path fill="none" stroke="none"/><text fill="#000000" stroke="none" font-family="Arial" font-size="13px" font-style="normal" font-weight="normal" text-decoration="none" x="598.5" y="308.5">+create</text></g></g><g transform="translate(-142,-22) scale(1,1)"><rect fill="#C0C0C0" stroke="none" x="367" y="543" width="97" height="57" opacity="0.2"/></g><g transform="translate(-142,-22) scale(1,1)"><rect fill="#ffffff" stroke="none" x="360" y="536" width="97" height="57"/></g><g transform="translate(-142,-22) scale(1,1)"><path fill="none" stroke="#000000" d="M 360 536 L 457 536 L 457 593 L 360 593 L 360 536 Z Z" stroke-miterlimit="10"/></g><g transform="translate(-142,-22) scale(1,1)"><path fill="none" stroke="#000000" d="M 360 561 L 457 561" stroke-miterlimit="10"/></g><g transform="translate(-142,-22) scale(1,1)"><path fill="none" stroke="#000000" d="M 360 571 L 457 571" stroke-miterlimit="10"/></g><g transform="translate(-142,-22) scale(1,1)"><g><path fill="none" stroke="none"/><text fill="#000000" stroke="none" font-family="Arial" font-size="13px" font-style="normal" font-weight="bold" text-decoration="none" x="376.701416015625" y="555.5">Application</text></g></g><g transform="translate(-142,-22) scale(1,1)"><g><path fill="none" stroke="none"/><text fill="#000000" stroke="none" font-family="Arial" font-size="13px" font-style="normal" font-weight="normal" text-decoration="none" x="365" y="588.5">+Main(String[])</text></g></g><g transform="translate(-142,-22) scale(1,1)"><path fill="none" stroke="#000000" d="M 374 535 L 257 434" stroke-miterlimit="10" stroke-dasharray="3"/></g><g transform="translate(-142,-22) scale(1,1)"><path fill="none" stroke="#000000" d="M 267.4435396887973 437.45434201672555 L 257 434 L 261.9421090689752 443.8272863981037" stroke-miterlimit="10"/></g><g transform="translate(-142,-22) scale(1,1)"><g><path fill="none" stroke="none"/><text fill="#000000" stroke="none" font-family="Arial" font-size="13px" font-style="normal" font-weight="normal" text-decoration="none" x="261.5" y="498.5">+usage</text></g></g><g transform="translate(-142,-22) scale(1,1)"><path fill="none" stroke="#000000" d="M 442 535 L 559 434" stroke-miterlimit="10" stroke-dasharray="3"/></g><g transform="translate(-142,-22) scale(1,1)"><path fill="none" stroke="#000000" d="M 554.0578909310249 443.8272863981037 L 559 434 L 548.5564603112027 437.45434201672555" stroke-miterlimit="10"/></g><g transform="translate(-142,-22) scale(1,1)"><g><path fill="none" stroke="none"/><text fill="#000000" stroke="none" font-family="Arial" font-size="13px" font-style="normal" font-weight="normal" text-decoration="none" x="522.5" y="491.5">+usage</text></g></g></g></svg>