<svg version="1.1" xmlns="http://www.w3.org/2000/svg" xmlns:xlink="http://www.w3.org/1999/xlink" width="465.26806640625" height="261"><defs/><g><g transform="translate(-142,-174) scale(1,1)"><rect fill="#C0C0C0" stroke="none" x="159" y="191" width="195.0625" height="85" opacity="0.2"/></g><g transform="translate(-142,-174) scale(1,1)"><rect fill="#ffffff" stroke="none" x="152" y="184" width="195.0625" height="85"/></g><g transform="translate(-142,-174) scale(1,1)"><path fill="none" stroke="#000000" d="M 152 184 L 347.0625 184 L 347.0625 269 L 152 269 L 152 184 Z Z" stroke-miterlimit="10"/></g><g transform="translate(-142,-174) scale(1,1)"><path fill="none" stroke="#000000" d="M 152 209 L 347.0625 209" stroke-miterlimit="10"/></g><g transform="translate(-142,-174) scale(1,1)"><path fill="none" stroke="#000000" d="M 152 247 L 347.0625 247" stroke-miterlimit="10"/></g><g transform="translate(-142,-174) scale(1,1)"><g><path fill="none" stroke="none"/><text fill="#000000" stroke="none" font-family="Arial" font-size="13px" font-style="normal" font-weight="bold" text-decoration="none" x="222.07763671875" y="203.5">Flyweight</text></g></g><g transform="translate(-142,-174) scale(1,1)"><g><path fill="none" stroke="none"/><text fill="#000000" stroke="none" font-family="Arial" font-size="13px" font-style="normal" font-weight="normal" text-decoration="none" x="157" y="226.5">-intrinsicState</text></g></g><g transform="translate(-142,-174) scale(1,1)"><g><path fill="none" stroke="none"/><text fill="#000000" stroke="none" font-family="Arial" font-size="13px" font-style="normal" font-weight="normal" text-decoration="none" x="157" y="241.5">-extrinsicState</text></g></g><g transform="translate(-142,-174) scale(1,1)"><g><path fill="none" stroke="none"/><text fill="#000000" stroke="none" font-family="Arial" font-size="13px" font-style="normal" font-weight="normal" text-decoration="none" x="157" y="264.5">+operation(String extrinsicState)</text></g></g><g transform="translate(-142,-174) scale(1,1)"><rect fill="#C0C0C0" stroke="none" x="471" y="207" width="133.26806640625" height="57" opacity="0.2"/></g><g transform="translate(-142,-174) scale(1,1)"><rect fill="#ffffff" stroke="none" x="464" y="200" width="133.26806640625" height="57"/></g><g transform="translate(-142,-174) scale(1,1)"><path fill="none" stroke="#000000" d="M 464 200 L 597.26806640625 200 L 597.26806640625 257 L 464 257 L 464 200 Z Z" stroke-miterlimit="10"/></g><g transform="translate(-142,-174) scale(1,1)"><path fill="none" stroke="#000000" d="M 464 225 L 597.26806640625 225" stroke-miterlimit="10"/></g><g transform="translate(-142,-174) scale(1,1)"><path fill="none" stroke="#000000" d="M 464 248 L 597.26806640625 248" stroke-miterlimit="10"/></g><g transform="translate(-142,-174) scale(1,1)"><g><path fill="none" stroke="none"/><text fill="#000000" stroke="none" font-family="Arial" font-size="13px" font-style="normal" font-weight="bold" text-decoration="none" x="481.509521484375" y="219.5">FlyweightFactory</text></g></g><g transform="translate(-142,-174) scale(1,1)"><g><path fill="none" stroke="none"/><text fill="#000000" stroke="none" font-family="Arial" font-size="13px" font-style="normal" font-weight="normal" text-decoration="none" x="469" y="242.5">-flyweights: HashMap</text></g></g><g transform="translate(-142,-174) scale(1,1)"><rect fill="#C0C0C0" stroke="none" x="343" y="375" width="89.57080078125" height="57" opacity="0.2"/></g><g transform="translate(-142,-174) scale(1,1)"><rect fill="#ffffff" stroke="none" x="336" y="368" width="89.57080078125" height="57"/></g><g transform="translate(-142,-174) scale(1,1)"><path fill="none" stroke="#000000" d="M 336 368 L 425.57080078125 368 L 425.57080078125 425 L 336 425 L 336 368 Z Z" stroke-miterlimit="10"/></g><g transform="translate(-142,-174) scale(1,1)"><path fill="none" stroke="#000000" d="M 336 393 L 425.57080078125 393" stroke-miterlimit="10"/></g><g transform="translate(-142,-174) scale(1,1)"><path fill="none" stroke="#000000" d="M 336 403 L 425.57080078125 403" stroke-miterlimit="10"/></g><g transform="translate(-142,-174) scale(1,1)"><g><path fill="none" stroke="none"/><text fill="#000000" stroke="none" font-family="Arial" font-size="13px" font-style="normal" font-weight="bold" text-decoration="none" x="348.98681640625" y="387.5">Application</text></g></g><g transform="translate(-142,-174) scale(1,1)"><g><path fill="none" stroke="none"/><text fill="#000000" stroke="none" font-family="Arial" font-size="13px" font-style="normal" font-weight="normal" text-decoration="none" x="341" y="420.5">+main()</text></g></g><g transform="translate(-142,-174) scale(1,1)"><path fill="none" stroke="#000000" d="M 348 227 L 463 228" stroke-miterlimit="10"/></g><g transform="translate(-142,-174) scale(1,1)"><path fill="#000000" stroke="none" d="M 452.80110622430794 232.12099087018515 L 463 228 L 452.8743124610911 223.70227364012266 L 441.0008317108674 227.8087028844423"/></g><g transform="translate(-142,-174) scale(1,1)"><path fill="none" stroke="#000000" d="M 452.80110622430794 232.12099087018515 L 463 228 L 452.8743124610911 223.70227364012266 L 441.0008317108674 227.8087028844423 L 452.80110622430794 232.12099087018515" stroke-miterlimit="10"/></g><g transform="translate(-142,-174) scale(1,1)"><path fill="none" stroke="#000000" d="M 406 367 L 503 258" stroke-miterlimit="10" stroke-dasharray="3"/></g><g transform="translate(-142,-174) scale(1,1)"><path fill="none" stroke="#000000" d="M 499.38860488713726 268.39027551794425 L 503 258 L 493.09932374901587 262.7933923032857" stroke-miterlimit="10"/></g><g transform="translate(-142,-174) scale(1,1)"><g><path fill="none" stroke="none"/><text fill="#000000" stroke="none" font-family="Arial" font-size="13px" font-style="normal" font-weight="normal" text-decoration="none" x="420.5" y="307.5">+usage</text></g></g><g transform="translate(-142,-174) scale(1,1)"><path fill="none" stroke="#000000" d="M 358 367 L 283 270" stroke-miterlimit="10" stroke-dasharray="3"/></g><g transform="translate(-142,-174) scale(1,1)"><path fill="none" stroke="#000000" d="M 292.5464738921764 275.4648729377722 L 283 270 L 285.88612771295664 280.6146251381998" stroke-miterlimit="10"/></g><g transform="translate(-142,-174) scale(1,1)"><g><path fill="none" stroke="none"/><text fill="#000000" stroke="none" font-family="Arial" font-size="13px" font-style="normal" font-weight="normal" text-decoration="none" x="286.5" y="333.5">+usage</text></g></g></g></svg>