<svg version="1.1" xmlns="http://www.w3.org/2000/svg" xmlns:xlink="http://www.w3.org/1999/xlink" width="899.3251953125" height="492"><defs/><g><g transform="translate(-6,-6) scale(1,1)"><rect fill="#C0C0C0" stroke="none" x="111" y="39" width="263.3251953125" height="75" opacity="0.2"/></g><g transform="translate(-6,-6) scale(1,1)"><rect fill="#ffffff" stroke="none" x="104" y="32" width="263.3251953125" height="75"/></g><g transform="translate(-6,-6) scale(1,1)"><path fill="none" stroke="#000000" d="M 104 32 L 367.3251953125 32 L 367.3251953125 107 L 104 107 L 104 32 Z Z" stroke-miterlimit="10"/></g><g transform="translate(-6,-6) scale(1,1)"><path fill="none" stroke="#000000" d="M 104 85 L 367.3251953125 85" stroke-miterlimit="10"/></g><g transform="translate(-6,-6) scale(1,1)"><g><path fill="none" stroke="none"/><text fill="#000000" stroke="none" font-family="Arial" font-size="13px" font-style="normal" font-weight="normal" text-decoration="none" x="203.502197265625" y="49.5">«interface»</text></g></g><g transform="translate(-6,-6) scale(1,1)"><g><path fill="none" stroke="none"/><text fill="#000000" stroke="none" font-family="Arial" font-size="13px" font-style="normal" font-weight="bold" text-decoration="none" x="203.508544921875" y="64.5">Expression</text></g></g><g transform="translate(-6,-6) scale(1,1)"><g><path fill="none" stroke="none"/><text fill="#000000" stroke="none" font-family="Arial" font-size="13px" font-style="normal" font-weight="normal" text-decoration="none" x="108.5" y="79.5">(from com.lizq.design.behavioral.interpreter)</text></g></g><g transform="translate(-6,-6) scale(1,1)"><g><path fill="none" stroke="none"/><text fill="#000000" stroke="none" font-family="Arial" font-size="13px" font-style="normal" font-weight="normal" text-decoration="none" x="109" y="102.5">+interpret(): int</text></g></g><g transform="translate(-6,-6) scale(1,1)"><rect fill="#C0C0C0" stroke="none" x="495" y="215" width="263.3251953125" height="100" opacity="0.2"/></g><g transform="translate(-6,-6) scale(1,1)"><rect fill="#ffffff" stroke="none" x="488" y="208" width="263.3251953125" height="100"/></g><g transform="translate(-6,-6) scale(1,1)"><path fill="none" stroke="#000000" d="M 488 208 L 751.3251953125 208 L 751.3251953125 308 L 488 308 L 488 208 Z Z" stroke-miterlimit="10"/></g><g transform="translate(-6,-6) scale(1,1)"><path fill="none" stroke="#000000" d="M 488 248 L 751.3251953125 248" stroke-miterlimit="10"/></g><g transform="translate(-6,-6) scale(1,1)"><path fill="none" stroke="#000000" d="M 488 271 L 751.3251953125 271" stroke-miterlimit="10"/></g><g transform="translate(-6,-6) scale(1,1)"><g><path fill="none" stroke="none"/><text fill="#000000" stroke="none" font-family="Arial" font-size="13px" font-style="normal" font-weight="bold" text-decoration="none" x="573.784912109375" y="227.5">NumExpression</text></g></g><g transform="translate(-6,-6) scale(1,1)"><g><path fill="none" stroke="none"/><text fill="#000000" stroke="none" font-family="Arial" font-size="13px" font-style="normal" font-weight="normal" text-decoration="none" x="492.5" y="242.5">(from com.lizq.design.behavioral.interpreter)</text></g></g><g transform="translate(-6,-6) scale(1,1)"><g><path fill="none" stroke="none"/><text fill="#000000" stroke="none" font-family="Arial" font-size="13px" font-style="normal" font-weight="normal" text-decoration="none" x="493" y="265.5">-num: String</text></g></g><g transform="translate(-6,-6) scale(1,1)"><g><path fill="none" stroke="none"/><text fill="#000000" stroke="none" font-family="Arial" font-size="13px" font-style="normal" font-weight="normal" text-decoration="none" x="493" y="288.5">+interpret(): int</text></g></g><g transform="translate(-6,-6) scale(1,1)"><g><path fill="none" stroke="none"/><text fill="#000000" stroke="none" font-family="Arial" font-size="13px" font-style="normal" font-weight="normal" text-decoration="none" x="493" y="303.5">+NumExpression(num: String)</text></g></g><g transform="translate(-6,-6) scale(1,1)"><rect fill="#C0C0C0" stroke="none" x="23" y="215" width="431.34130859375" height="100" opacity="0.2"/></g><g transform="translate(-6,-6) scale(1,1)"><rect fill="#ffffff" stroke="none" x="16" y="208" width="431.34130859375" height="100"/></g><g transform="translate(-6,-6) scale(1,1)"><path fill="none" stroke="#000000" d="M 16 208 L 447.34130859375 208 L 447.34130859375 308 L 16 308 L 16 208 Z Z" stroke-miterlimit="10"/></g><g transform="translate(-6,-6) scale(1,1)"><path fill="none" stroke="#000000" d="M 16 248 L 447.34130859375 248" stroke-miterlimit="10"/></g><g transform="translate(-6,-6) scale(1,1)"><path fill="none" stroke="#000000" d="M 16 286 L 447.34130859375 286" stroke-miterlimit="10"/></g><g transform="translate(-6,-6) scale(1,1)"><g><path fill="none" stroke="none"/><text fill="#000000" stroke="none" font-family="Arial" font-size="13px" font-style="italic" font-weight="bold" text-decoration="none" x="173.86572265625" y="227.5">OperatorExpression</text></g></g><g transform="translate(-6,-6) scale(1,1)"><g><path fill="none" stroke="none"/><text fill="#000000" stroke="none" font-family="Arial" font-size="13px" font-style="normal" font-weight="normal" text-decoration="none" x="104.508056640625" y="242.5">(from com.lizq.design.behavioral.interpreter)</text></g></g><g transform="translate(-6,-6) scale(1,1)"><g><path fill="none" stroke="none"/><text fill="#000000" stroke="none" font-family="Arial" font-size="13px" font-style="normal" font-weight="normal" text-decoration="none" x="21" y="265.5">-expression1: Expression</text></g></g><g transform="translate(-6,-6) scale(1,1)"><g><path fill="none" stroke="none"/><text fill="#000000" stroke="none" font-family="Arial" font-size="13px" font-style="normal" font-weight="normal" text-decoration="none" x="21" y="280.5">-expression2: Expression</text></g></g><g transform="translate(-6,-6) scale(1,1)"><g><path fill="none" stroke="none"/><text fill="#000000" stroke="none" font-family="Arial" font-size="13px" font-style="normal" font-weight="normal" text-decoration="none" x="21" y="303.5">+OperatorExpression(expression1: Expression, expression2: Expression)</text></g></g><g transform="translate(-6,-6) scale(1,1)"><path fill="none" stroke="#000000" d="M 232 207 L 234 108" stroke-miterlimit="10" stroke-dasharray="3"/></g><g transform="translate(-6,-6) scale(1,1)"><path fill="#FFFFFF" stroke="none" d="M 242.00678868135722 128.49125020617555 L 234 108 L 225.1721525963384 128.15115654789236"/></g><g transform="translate(-6,-6) scale(1,1)"><path fill="none" stroke="#000000" d="M 242.00678868135722 128.49125020617555 L 234 108 L 225.1721525963384 128.15115654789236 L 242.00678868135722 128.49125020617555" stroke-miterlimit="10"/></g><g transform="translate(-6,-6) scale(1,1)"><path fill="none" stroke="#000000" d="M 515 207 L 314 108" stroke-miterlimit="10" stroke-dasharray="3"/></g><g transform="translate(-6,-6) scale(1,1)"><path fill="#FFFFFF" stroke="none" d="M 335.953597681883 109.42812773309024 L 314 108 L 328.5136989878321 124.53337659676941"/></g><g transform="translate(-6,-6) scale(1,1)"><path fill="none" stroke="#000000" d="M 335.953597681883 109.42812773309024 L 314 108 L 328.5136989878321 124.53337659676941 L 335.953597681883 109.42812773309024" stroke-miterlimit="10"/></g><g transform="translate(-6,-6) scale(1,1)"><rect fill="#C0C0C0" stroke="none" x="23" y="423" width="263.3251953125" height="72" opacity="0.2"/></g><g transform="translate(-6,-6) scale(1,1)"><rect fill="#ffffff" stroke="none" x="16" y="416" width="263.3251953125" height="72"/></g><g transform="translate(-6,-6) scale(1,1)"><path fill="none" stroke="#000000" d="M 16 416 L 279.3251953125 416 L 279.3251953125 488 L 16 488 L 16 416 Z Z" stroke-miterlimit="10"/></g><g transform="translate(-6,-6) scale(1,1)"><path fill="none" stroke="#000000" d="M 16 456 L 279.3251953125 456" stroke-miterlimit="10"/></g><g transform="translate(-6,-6) scale(1,1)"><path fill="none" stroke="#000000" d="M 16 466 L 279.3251953125 466" stroke-miterlimit="10"/></g><g transform="translate(-6,-6) scale(1,1)"><g><path fill="none" stroke="none"/><text fill="#000000" stroke="none" font-family="Arial" font-size="13px" font-style="normal" font-weight="bold" text-decoration="none" x="92.01904296875" y="435.5">AdditionExpression</text></g></g><g transform="translate(-6,-6) scale(1,1)"><g><path fill="none" stroke="none"/><text fill="#000000" stroke="none" font-family="Arial" font-size="13px" font-style="normal" font-weight="normal" text-decoration="none" x="20.5" y="450.5">(from com.lizq.design.behavioral.interpreter)</text></g></g><g transform="translate(-6,-6) scale(1,1)"><g><path fill="none" stroke="none"/><text fill="#000000" stroke="none" font-family="Arial" font-size="13px" font-style="normal" font-weight="normal" text-decoration="none" x="21" y="483.5">+interpret(): int</text></g></g><g transform="translate(-6,-6) scale(1,1)"><rect fill="#C0C0C0" stroke="none" x="327" y="423" width="263.3251953125" height="72" opacity="0.2"/></g><g transform="translate(-6,-6) scale(1,1)"><rect fill="#ffffff" stroke="none" x="320" y="416" width="263.3251953125" height="72"/></g><g transform="translate(-6,-6) scale(1,1)"><path fill="none" stroke="#000000" d="M 320 416 L 583.3251953125 416 L 583.3251953125 488 L 320 488 L 320 416 Z Z" stroke-miterlimit="10"/></g><g transform="translate(-6,-6) scale(1,1)"><path fill="none" stroke="#000000" d="M 320 456 L 583.3251953125 456" stroke-miterlimit="10"/></g><g transform="translate(-6,-6) scale(1,1)"><path fill="none" stroke="#000000" d="M 320 466 L 583.3251953125 466" stroke-miterlimit="10"/></g><g transform="translate(-6,-6) scale(1,1)"><g><path fill="none" stroke="none"/><text fill="#000000" stroke="none" font-family="Arial" font-size="13px" font-style="normal" font-weight="bold" text-decoration="none" x="395.3017578125" y="435.5">SubtractExpression</text></g></g><g transform="translate(-6,-6) scale(1,1)"><g><path fill="none" stroke="none"/><text fill="#000000" stroke="none" font-family="Arial" font-size="13px" font-style="normal" font-weight="normal" text-decoration="none" x="324.5" y="450.5">(from com.lizq.design.behavioral.interpreter)</text></g></g><g transform="translate(-6,-6) scale(1,1)"><g><path fill="none" stroke="none"/><text fill="#000000" stroke="none" font-family="Arial" font-size="13px" font-style="normal" font-weight="normal" text-decoration="none" x="325" y="483.5">+interpret(): int</text></g></g><g transform="translate(-6,-6) scale(1,1)"><path fill="none" stroke="#000000" d="M 163 415 L 209 309" stroke-miterlimit="10"/></g><g transform="translate(-6,-6) scale(1,1)"><path fill="#FFFFFF" stroke="none" d="M 208.6317783821557 330.99691825779587 L 209 309 L 193.18545793174917 324.2937980623364"/></g><g transform="translate(-6,-6) scale(1,1)"><path fill="none" stroke="#000000" d="M 208.6317783821557 330.99691825779587 L 209 309 L 193.18545793174917 324.2937980623364 L 208.6317783821557 330.99691825779587" stroke-miterlimit="10"/></g><g transform="translate(-6,-6) scale(1,1)"><path fill="none" stroke="#000000" d="M 409 415 L 289 309" stroke-miterlimit="10"/></g><g transform="translate(-6,-6) scale(1,1)"><path fill="#FFFFFF" stroke="none" d="M 309.8069985320329 316.1462446143398 L 289 309 L 298.6596117313215 328.76592778495655"/></g><g transform="translate(-6,-6) scale(1,1)"><path fill="none" stroke="#000000" d="M 309.8069985320329 316.1462446143398 L 289 309 L 298.6596117313215 328.76592778495655 L 309.8069985320329 316.1462446143398" stroke-miterlimit="10"/></g><g transform="translate(-6,-6) scale(1,1)"><rect fill="#C0C0C0" stroke="none" x="639" y="23" width="263.3251953125" height="100" opacity="0.2"/></g><g transform="translate(-6,-6) scale(1,1)"><rect fill="#ffffff" stroke="none" x="632" y="16" width="263.3251953125" height="100"/></g><g transform="translate(-6,-6) scale(1,1)"><path fill="none" stroke="#000000" d="M 632 16 L 895.3251953125 16 L 895.3251953125 116 L 632 116 L 632 16 Z Z" stroke-miterlimit="10"/></g><g transform="translate(-6,-6) scale(1,1)"><path fill="none" stroke="#000000" d="M 632 56 L 895.3251953125 56" stroke-miterlimit="10"/></g><g transform="translate(-6,-6) scale(1,1)"><path fill="none" stroke="#000000" d="M 632 79 L 895.3251953125 79" stroke-miterlimit="10"/></g><g transform="translate(-6,-6) scale(1,1)"><g><path fill="none" stroke="none"/><text fill="#000000" stroke="none" font-family="Arial" font-size="13px" font-style="normal" font-weight="bold" text-decoration="none" x="741.26171875" y="35.5">Context</text></g></g><g transform="translate(-6,-6) scale(1,1)"><g><path fill="none" stroke="none"/><text fill="#000000" stroke="none" font-family="Arial" font-size="13px" font-style="normal" font-weight="normal" text-decoration="none" x="636.5" y="50.5">(from com.lizq.design.behavioral.interpreter)</text></g></g><g transform="translate(-6,-6) scale(1,1)"><g><path fill="none" stroke="none"/><text fill="#000000" stroke="none" font-family="Arial" font-size="13px" font-style="normal" font-weight="normal" text-decoration="none" x="637" y="73.5">-expressions: Stack&lt;Expression&gt;</text></g></g><g transform="translate(-6,-6) scale(1,1)"><g><path fill="none" stroke="none"/><text fill="#000000" stroke="none" font-family="Arial" font-size="13px" font-style="normal" font-weight="normal" text-decoration="none" x="637" y="96.5">+Context(operation: String)</text></g></g><g transform="translate(-6,-6) scale(1,1)"><g><path fill="none" stroke="none"/><text fill="#000000" stroke="none" font-family="Arial" font-size="13px" font-style="normal" font-weight="normal" text-decoration="none" x="637" y="111.5">+interpret(): int</text></g></g><g transform="translate(-6,-6) scale(1,1)"><path fill="none" stroke="#000000" d="M 368 68 L 631 67" stroke-miterlimit="10"/></g><g transform="translate(-6,-6) scale(1,1)"><path fill="#FFFFFF" stroke="none" d="M 620.8534042594567 71.24812839706955 L 631 67 L 620.8213929489843 62.829153742822314 L 609.0001590290553 67.08364958544085"/></g><g transform="translate(-6,-6) scale(1,1)"><path fill="none" stroke="#000000" d="M 620.8534042594567 71.24812839706955 L 631 67 L 620.8213929489843 62.829153742822314 L 609.0001590290553 67.08364958544085 L 620.8534042594567 71.24812839706955" stroke-miterlimit="10"/></g></g></svg>