<svg version="1.1" xmlns="http://www.w3.org/2000/svg" xmlns:xlink="http://www.w3.org/1999/xlink" width="632.5361328125" height="327"><defs/><g><g transform="translate(-126,-166) scale(1,1)"><rect fill="#C0C0C0" stroke="none" x="511" y="183" width="244.5361328125" height="90" opacity="0.2"/></g><g transform="translate(-126,-166) scale(1,1)"><rect fill="#ffffff" stroke="none" x="504" y="176" width="244.5361328125" height="90"/></g><g transform="translate(-126,-166) scale(1,1)"><path fill="none" stroke="#000000" d="M 504 176 L 748.5361328125 176 L 748.5361328125 266 L 504 266 L 504 176 Z Z" stroke-miterlimit="10"/></g><g transform="translate(-126,-166) scale(1,1)"><path fill="none" stroke="#000000" d="M 504 229 L 748.5361328125 229" stroke-miterlimit="10"/></g><g transform="translate(-126,-166) scale(1,1)"><g><path fill="none" stroke="none"/><text fill="#000000" stroke="none" font-family="Arial" font-size="13px" font-style="normal" font-weight="normal" text-decoration="none" x="594.107666015625" y="193.5">«interface»</text></g></g><g transform="translate(-126,-166) scale(1,1)"><g><path fill="none" stroke="none"/><text fill="#000000" stroke="none" font-family="Arial" font-size="13px" font-style="normal" font-weight="bold" text-decoration="none" x="605.67626953125" y="208.5">Iterator</text></g></g><g transform="translate(-126,-166) scale(1,1)"><g><path fill="none" stroke="none"/><text fill="#000000" stroke="none" font-family="Arial" font-size="13px" font-style="normal" font-weight="normal" text-decoration="none" x="508.5" y="223.5">(from com.lizq.design.behavioral.iterator)</text></g></g><g transform="translate(-126,-166) scale(1,1)"><g><path fill="none" stroke="none"/><text fill="#000000" stroke="none" font-family="Arial" font-size="13px" font-style="normal" font-weight="normal" text-decoration="none" x="509" y="246.5">+next(): Object</text></g></g><g transform="translate(-126,-166) scale(1,1)"><g><path fill="none" stroke="none"/><text fill="#000000" stroke="none" font-family="Arial" font-size="13px" font-style="normal" font-weight="normal" text-decoration="none" x="509" y="261.5">+hasNext(): boolean</text></g></g><g transform="translate(-126,-166) scale(1,1)"><rect fill="#C0C0C0" stroke="none" x="143" y="183" width="244.5361328125" height="75" opacity="0.2"/></g><g transform="translate(-126,-166) scale(1,1)"><rect fill="#ffffff" stroke="none" x="136" y="176" width="244.5361328125" height="75"/></g><g transform="translate(-126,-166) scale(1,1)"><path fill="none" stroke="#000000" d="M 136 176 L 380.5361328125 176 L 380.5361328125 251 L 136 251 L 136 176 Z Z" stroke-miterlimit="10"/></g><g transform="translate(-126,-166) scale(1,1)"><path fill="none" stroke="#000000" d="M 136 229 L 380.5361328125 229" stroke-miterlimit="10"/></g><g transform="translate(-126,-166) scale(1,1)"><g><path fill="none" stroke="none"/><text fill="#000000" stroke="none" font-family="Arial" font-size="13px" font-style="normal" font-weight="normal" text-decoration="none" x="226.107666015625" y="193.5">«interface»</text></g></g><g transform="translate(-126,-166) scale(1,1)"><g><path fill="none" stroke="none"/><text fill="#000000" stroke="none" font-family="Arial" font-size="13px" font-style="normal" font-weight="bold" text-decoration="none" x="228.272216796875" y="208.5">Aggregate</text></g></g><g transform="translate(-126,-166) scale(1,1)"><g><path fill="none" stroke="none"/><text fill="#000000" stroke="none" font-family="Arial" font-size="13px" font-style="normal" font-weight="normal" text-decoration="none" x="140.5" y="223.5">(from com.lizq.design.behavioral.iterator)</text></g></g><g transform="translate(-126,-166) scale(1,1)"><g><path fill="none" stroke="none"/><text fill="#000000" stroke="none" font-family="Arial" font-size="13px" font-style="normal" font-weight="normal" text-decoration="none" x="141" y="246.5">+getIterator(: Iterator)</text></g></g><g transform="translate(-126,-166) scale(1,1)"><rect fill="#C0C0C0" stroke="none" x="143" y="391" width="244.5361328125" height="85" opacity="0.2"/></g><g transform="translate(-126,-166) scale(1,1)"><rect fill="#ffffff" stroke="none" x="136" y="384" width="244.5361328125" height="85"/></g><g transform="translate(-126,-166) scale(1,1)"><path fill="none" stroke="#000000" d="M 136 384 L 380.5361328125 384 L 380.5361328125 469 L 136 469 L 136 384 Z Z" stroke-miterlimit="10"/></g><g transform="translate(-126,-166) scale(1,1)"><path fill="none" stroke="#000000" d="M 136 424 L 380.5361328125 424" stroke-miterlimit="10"/></g><g transform="translate(-126,-166) scale(1,1)"><path fill="none" stroke="#000000" d="M 136 447 L 380.5361328125 447" stroke-miterlimit="10"/></g><g transform="translate(-126,-166) scale(1,1)"><g><path fill="none" stroke="none"/><text fill="#000000" stroke="none" font-family="Arial" font-size="13px" font-style="normal" font-weight="bold" text-decoration="none" x="201.897705078125" y="403.5">ConcreteAggregate</text></g></g><g transform="translate(-126,-166) scale(1,1)"><g><path fill="none" stroke="none"/><text fill="#000000" stroke="none" font-family="Arial" font-size="13px" font-style="normal" font-weight="normal" text-decoration="none" x="140.5" y="418.5">(from com.lizq.design.behavioral.iterator)</text></g></g><g transform="translate(-126,-166) scale(1,1)"><g><path fill="none" stroke="none"/><text fill="#000000" stroke="none" font-family="Arial" font-size="13px" font-style="normal" font-weight="normal" text-decoration="none" x="141" y="441.5">+ints: int[0..*]</text></g></g><g transform="translate(-126,-166) scale(1,1)"><g><path fill="none" stroke="none"/><text fill="#000000" stroke="none" font-family="Arial" font-size="13px" font-style="normal" font-weight="normal" text-decoration="none" x="141" y="464.5">+getIterator(): Iterator</text></g></g><g transform="translate(-126,-166) scale(1,1)"><path fill="none" stroke="#000000" d="M 258 383 L 258 252" stroke-miterlimit="10" stroke-dasharray="3"/></g><g transform="translate(-126,-166) scale(1,1)"><path fill="#FFFFFF" stroke="none" d="M 266.419035512032 272.3253497152483 L 258 252 L 249.58096448796803 272.3253497152483"/></g><g transform="translate(-126,-166) scale(1,1)"><path fill="none" stroke="#000000" d="M 266.419035512032 272.3253497152483 L 258 252 L 249.58096448796803 272.3253497152483 L 266.419035512032 272.3253497152483" stroke-miterlimit="10"/></g><g transform="translate(-126,-166) scale(1,1)"><rect fill="#C0C0C0" stroke="none" x="559" y="375" width="160.0107421875" height="115" opacity="0.2"/></g><g transform="translate(-126,-166) scale(1,1)"><rect fill="#ffffff" stroke="none" x="552" y="368" width="160.0107421875" height="115"/></g><g transform="translate(-126,-166) scale(1,1)"><path fill="none" stroke="#000000" d="M 552 368 L 712.0107421875 368 L 712.0107421875 483 L 552 483 L 552 368 Z Z" stroke-miterlimit="10"/></g><g transform="translate(-126,-166) scale(1,1)"><path fill="none" stroke="#000000" d="M 552 408 L 712.0107421875 408" stroke-miterlimit="10"/></g><g transform="translate(-126,-166) scale(1,1)"><path fill="none" stroke="#000000" d="M 552 446 L 712.0107421875 446" stroke-miterlimit="10"/></g><g transform="translate(-126,-166) scale(1,1)"><g><path fill="none" stroke="none"/><text fill="#000000" stroke="none" font-family="Arial" font-size="13px" font-style="normal" font-weight="bold" text-decoration="none" x="585.0390625" y="387.5">ConcreteIterator</text></g></g><g transform="translate(-126,-166) scale(1,1)"><g><path fill="none" stroke="none"/><text fill="#000000" stroke="none" font-family="Arial" font-size="13px" font-style="normal" font-weight="normal" text-decoration="none" x="556.5" y="402.5">(from ConcreteAggregate)</text></g></g><g transform="translate(-126,-166) scale(1,1)"><g><path fill="none" stroke="none"/><text fill="#000000" stroke="none" font-family="Arial" font-size="13px" font-style="normal" font-weight="normal" text-decoration="none" x="557" y="425.5">-cursor: int</text></g></g><g transform="translate(-126,-166) scale(1,1)"><g><path fill="none" stroke="none"/><text fill="#000000" stroke="none" font-family="Arial" font-size="13px" font-style="normal" font-weight="normal" text-decoration="none" x="557" y="440.5">-size: int</text></g></g><g transform="translate(-126,-166) scale(1,1)"><g><path fill="none" stroke="none"/><text fill="#000000" stroke="none" font-family="Arial" font-size="13px" font-style="normal" font-weight="normal" text-decoration="none" x="557" y="463.5">+next(): Object</text></g></g><g transform="translate(-126,-166) scale(1,1)"><g><path fill="none" stroke="none"/><text fill="#000000" stroke="none" font-family="Arial" font-size="13px" font-style="normal" font-weight="normal" text-decoration="none" x="557" y="478.5">+hasNext(): boolean</text></g></g><g transform="translate(-126,-166) scale(1,1)"><path fill="none" stroke="#000000" d="M 551 425 L 382 426" stroke-miterlimit="10"/></g><g transform="translate(-126,-166) scale(1,1)"><path fill="#FFFFFF" stroke="none" d="M 381.99987745848904 425.9585806067545 C 381.99987745848904 422.09258700675446 385.133883858489 418.9585806067545 388.99987745848904 418.9585806067545 C 392.86587105848906 418.9585806067545 395.99987745848904 422.09258700675446 395.99987745848904 425.9585806067545 C 395.99987745848904 429.8245742067545 392.86587105848906 432.9585806067545 388.99987745848904 432.9585806067545 C 385.133883858489 432.9585806067545 381.99987745848904 429.8245742067545 381.99987745848904 425.9585806067545 Z"/></g><g transform="translate(-126,-166) scale(1,1)"><path fill="none" stroke="#000000" d="M 381.99987745848904 425.9585806067545 C 381.99987745848904 422.09258700675446 385.133883858489 418.9585806067545 388.99987745848904 418.9585806067545 C 392.86587105848906 418.9585806067545 395.99987745848904 422.09258700675446 395.99987745848904 425.9585806067545 C 395.99987745848904 429.8245742067545 392.86587105848906 432.9585806067545 388.99987745848904 432.9585806067545 C 385.133883858489 432.9585806067545 381.99987745848904 429.8245742067545 381.99987745848904 425.9585806067545 Z" stroke-miterlimit="10"/></g><g transform="translate(-126,-166) scale(1,1)"><path fill="none" stroke="#000000" d="M 395.99975491697813 425.917161213509 L 382 426" stroke-miterlimit="10"/></g><g transform="translate(-126,-166) scale(1,1)"><path fill="none" stroke="#000000" d="M 388.9584580652435 418.95870314826544 L 389.04129685173456 432.9584580652435" stroke-miterlimit="10"/></g><g transform="translate(-126,-166) scale(1,1)"><path fill="none" stroke="#000000" d="M 630 367 L 627 267" stroke-miterlimit="10" stroke-dasharray="3"/></g><g transform="translate(-126,-166) scale(1,1)"><path fill="#FFFFFF" stroke="none" d="M 636.0247357857294 287.06375199203217 L 627 267 L 619.1942367828951 287.5686669621172"/></g><g transform="translate(-126,-166) scale(1,1)"><path fill="none" stroke="#000000" d="M 636.0247357857294 287.06375199203217 L 627 267 L 619.1942367828951 287.5686669621172 L 636.0247357857294 287.06375199203217" stroke-miterlimit="10"/></g></g></svg>