<svg version="1.1" xmlns="http://www.w3.org/2000/svg" xmlns:xlink="http://www.w3.org/1999/xlink" width="821" height="665"><defs/><g><g transform="translate(-54,-38) scale(1,1)"><rect fill="#C0C0C0" stroke="none" x="311" y="287" width="254.654296875" height="72" opacity="0.2"/></g><g transform="translate(-54,-38) scale(1,1)"><rect fill="#ffffff" stroke="none" x="304" y="280" width="254.654296875" height="72"/></g><g transform="translate(-54,-38) scale(1,1)"><path fill="none" stroke="#000000" d="M 304 280 L 558.654296875 280 L 558.654296875 352 L 304 352 L 304 280 Z Z" stroke-miterlimit="10"/></g><g transform="translate(-54,-38) scale(1,1)"><path fill="none" stroke="#000000" d="M 304 320 L 558.654296875 320" stroke-miterlimit="10"/></g><g transform="translate(-54,-38) scale(1,1)"><path fill="none" stroke="#000000" d="M 304 330 L 558.654296875 330" stroke-miterlimit="10"/></g><g transform="translate(-54,-38) scale(1,1)"><g><path fill="none" stroke="none"/><text fill="#000000" stroke="none" font-family="Arial" font-size="13px" font-style="italic" font-weight="bold" text-decoration="none" x="406.0380859375" y="299.5">Mediator</text></g></g><g transform="translate(-54,-38) scale(1,1)"><g><path fill="none" stroke="none"/><text fill="#000000" stroke="none" font-family="Arial" font-size="13px" font-style="normal" font-weight="normal" text-decoration="none" x="308.5" y="314.5">(from com.lizq.design.behavioral.mediator)</text></g></g><g transform="translate(-54,-38) scale(1,1)"><g><path fill="none" stroke="none"/><text fill="#000000" stroke="none" font-family="Arial" font-size="13px" font-style="italic" font-weight="normal" text-decoration="none" x="309" y="347.5">+doSomething()</text></g></g><g transform="translate(-54,-38) scale(1,1)"><rect fill="#C0C0C0" stroke="none" x="239" y="55" width="406.8203125" height="130" opacity="0.2"/></g><g transform="translate(-54,-38) scale(1,1)"><rect fill="#ffffff" stroke="none" x="232" y="48" width="406.8203125" height="130"/></g><g transform="translate(-54,-38) scale(1,1)"><path fill="none" stroke="#000000" d="M 232 48 L 638.8203125 48 L 638.8203125 178 L 232 178 L 232 48 Z Z" stroke-miterlimit="10"/></g><g transform="translate(-54,-38) scale(1,1)"><path fill="none" stroke="#000000" d="M 232 88 L 638.8203125 88" stroke-miterlimit="10"/></g><g transform="translate(-54,-38) scale(1,1)"><path fill="none" stroke="#000000" d="M 232 126 L 638.8203125 126" stroke-miterlimit="10"/></g><g transform="translate(-54,-38) scale(1,1)"><g><path fill="none" stroke="none"/><text fill="#000000" stroke="none" font-family="Arial" font-size="13px" font-style="normal" font-weight="bold" text-decoration="none" x="383.74658203125" y="67.5">ConcreteMediator</text></g></g><g transform="translate(-54,-38) scale(1,1)"><g><path fill="none" stroke="none"/><text fill="#000000" stroke="none" font-family="Arial" font-size="13px" font-style="normal" font-weight="normal" text-decoration="none" x="312.5830078125" y="82.5">(from com.lizq.design.behavioral.mediator)</text></g></g><g transform="translate(-54,-38) scale(1,1)"><g><path fill="none" stroke="none"/><text fill="#000000" stroke="none" font-family="Arial" font-size="13px" font-style="normal" font-weight="normal" text-decoration="none" x="237" y="105.5">-concreteColleagueA: ConcreteColleagueA</text></g></g><g transform="translate(-54,-38) scale(1,1)"><g><path fill="none" stroke="none"/><text fill="#000000" stroke="none" font-family="Arial" font-size="13px" font-style="normal" font-weight="normal" text-decoration="none" x="237" y="120.5">-concreteColleagueB: ConcreteColleagueB</text></g></g><g transform="translate(-54,-38) scale(1,1)"><g><path fill="none" stroke="none"/><text fill="#000000" stroke="none" font-family="Arial" font-size="13px" font-style="normal" font-weight="normal" text-decoration="none" x="237" y="143.5">+doSomething()</text></g></g><g transform="translate(-54,-38) scale(1,1)"><g><path fill="none" stroke="none"/><text fill="#000000" stroke="none" font-family="Arial" font-size="13px" font-style="normal" font-weight="normal" text-decoration="none" x="237" y="158.5">+setConcreteColleagueA(concreteColleagueA: ConcreteColleagueA)</text></g></g><g transform="translate(-54,-38) scale(1,1)"><g><path fill="none" stroke="none"/><text fill="#000000" stroke="none" font-family="Arial" font-size="13px" font-style="normal" font-weight="normal" text-decoration="none" x="237" y="173.5">+setConcreteColleagueB(concreteColleagueB: ConcreteColleagueB)</text></g></g><g transform="translate(-54,-38) scale(1,1)"><rect fill="#C0C0C0" stroke="none" x="311" y="615" width="254.654296875" height="85" opacity="0.2"/></g><g transform="translate(-54,-38) scale(1,1)"><rect fill="#ffffff" stroke="none" x="304" y="608" width="254.654296875" height="85"/></g><g transform="translate(-54,-38) scale(1,1)"><path fill="none" stroke="#000000" d="M 304 608 L 558.654296875 608 L 558.654296875 693 L 304 693 L 304 608 Z Z" stroke-miterlimit="10"/></g><g transform="translate(-54,-38) scale(1,1)"><path fill="none" stroke="#000000" d="M 304 648 L 558.654296875 648" stroke-miterlimit="10"/></g><g transform="translate(-54,-38) scale(1,1)"><path fill="none" stroke="#000000" d="M 304 671 L 558.654296875 671" stroke-miterlimit="10"/></g><g transform="translate(-54,-38) scale(1,1)"><g><path fill="none" stroke="none"/><text fill="#000000" stroke="none" font-family="Arial" font-size="13px" font-style="italic" font-weight="bold" text-decoration="none" x="402.054931640625" y="627.5">Colleague</text></g></g><g transform="translate(-54,-38) scale(1,1)"><g><path fill="none" stroke="none"/><text fill="#000000" stroke="none" font-family="Arial" font-size="13px" font-style="normal" font-weight="normal" text-decoration="none" x="308.5" y="642.5">(from com.lizq.design.behavioral.mediator)</text></g></g><g transform="translate(-54,-38) scale(1,1)"><g><path fill="none" stroke="none"/><text fill="#000000" stroke="none" font-family="Arial" font-size="13px" font-style="normal" font-weight="normal" text-decoration="none" x="309" y="665.5">+mediator: Mediator</text></g></g><g transform="translate(-54,-38) scale(1,1)"><g><path fill="none" stroke="none"/><text fill="#000000" stroke="none" font-family="Arial" font-size="13px" font-style="normal" font-weight="normal" text-decoration="none" x="309" y="688.5">+Colleague(mediator: Mediator)</text></g></g><g transform="translate(-54,-38) scale(1,1)"><rect fill="#C0C0C0" stroke="none" x="103" y="447" width="254.654296875" height="102" opacity="0.2"/></g><g transform="translate(-54,-38) scale(1,1)"><rect fill="#ffffff" stroke="none" x="96" y="440" width="254.654296875" height="102"/></g><g transform="translate(-54,-38) scale(1,1)"><path fill="none" stroke="#000000" d="M 96 440 L 350.654296875 440 L 350.654296875 542 L 96 542 L 96 440 Z Z" stroke-miterlimit="10"/></g><g transform="translate(-54,-38) scale(1,1)"><path fill="none" stroke="#000000" d="M 96 480 L 350.654296875 480" stroke-miterlimit="10"/></g><g transform="translate(-54,-38) scale(1,1)"><path fill="none" stroke="#000000" d="M 96 490 L 350.654296875 490" stroke-miterlimit="10"/></g><g transform="translate(-54,-38) scale(1,1)"><g><path fill="none" stroke="none"/><text fill="#000000" stroke="none" font-family="Arial" font-size="13px" font-style="normal" font-weight="bold" text-decoration="none" x="163.344970703125" y="459.5">ConcreteColleagueA</text></g></g><g transform="translate(-54,-38) scale(1,1)"><g><path fill="none" stroke="none"/><text fill="#000000" stroke="none" font-family="Arial" font-size="13px" font-style="normal" font-weight="normal" text-decoration="none" x="100.5" y="474.5">(from com.lizq.design.behavioral.mediator)</text></g></g><g transform="translate(-54,-38) scale(1,1)"><g><path fill="none" stroke="none"/><text fill="#000000" stroke="none" font-family="Arial" font-size="13px" font-style="normal" font-weight="normal" text-decoration="none" x="101" y="507.5">+ConcreteColleagueA(mediator: Mediator)</text></g></g><g transform="translate(-54,-38) scale(1,1)"><g><path fill="none" stroke="none"/><text fill="#000000" stroke="none" font-family="Arial" font-size="13px" font-style="normal" font-weight="normal" text-decoration="none" x="101" y="522.5">+selfMethod()</text></g></g><g transform="translate(-54,-38) scale(1,1)"><g><path fill="none" stroke="none"/><text fill="#000000" stroke="none" font-family="Arial" font-size="13px" font-style="normal" font-weight="normal" text-decoration="none" x="101" y="537.5">+depMethod()</text></g></g><g transform="translate(-54,-38) scale(1,1)"><rect fill="#C0C0C0" stroke="none" x="519" y="447" width="254.654296875" height="102" opacity="0.2"/></g><g transform="translate(-54,-38) scale(1,1)"><rect fill="#ffffff" stroke="none" x="512" y="440" width="254.654296875" height="102"/></g><g transform="translate(-54,-38) scale(1,1)"><path fill="none" stroke="#000000" d="M 512 440 L 766.654296875 440 L 766.654296875 542 L 512 542 L 512 440 Z Z" stroke-miterlimit="10"/></g><g transform="translate(-54,-38) scale(1,1)"><path fill="none" stroke="#000000" d="M 512 480 L 766.654296875 480" stroke-miterlimit="10"/></g><g transform="translate(-54,-38) scale(1,1)"><path fill="none" stroke="#000000" d="M 512 490 L 766.654296875 490" stroke-miterlimit="10"/></g><g transform="translate(-54,-38) scale(1,1)"><g><path fill="none" stroke="none"/><text fill="#000000" stroke="none" font-family="Arial" font-size="13px" font-style="normal" font-weight="bold" text-decoration="none" x="579.344970703125" y="459.5">ConcreteColleagueB</text></g></g><g transform="translate(-54,-38) scale(1,1)"><g><path fill="none" stroke="none"/><text fill="#000000" stroke="none" font-family="Arial" font-size="13px" font-style="normal" font-weight="normal" text-decoration="none" x="516.5" y="474.5">(from com.lizq.design.behavioral.mediator)</text></g></g><g transform="translate(-54,-38) scale(1,1)"><g><path fill="none" stroke="none"/><text fill="#000000" stroke="none" font-family="Arial" font-size="13px" font-style="normal" font-weight="normal" text-decoration="none" x="517" y="507.5">+ConcreteColleagueB(mediator: Mediator)</text></g></g><g transform="translate(-54,-38) scale(1,1)"><g><path fill="none" stroke="none"/><text fill="#000000" stroke="none" font-family="Arial" font-size="13px" font-style="normal" font-weight="normal" text-decoration="none" x="517" y="522.5">+selfMethod()</text></g></g><g transform="translate(-54,-38) scale(1,1)"><g><path fill="none" stroke="none"/><text fill="#000000" stroke="none" font-family="Arial" font-size="13px" font-style="normal" font-weight="normal" text-decoration="none" x="517" y="537.5">+depMethod()</text></g></g><g transform="translate(-54,-38) scale(1,1)"><path fill="none" stroke="#000000" d="M 434 179 L 432 279" stroke-miterlimit="10"/></g><g transform="translate(-54,-38) scale(1,1)"><path fill="#FFFFFF" stroke="none" d="M 423.989073507385 258.5103670913821 L 432 279 L 440.82377792719177 258.84706117977817"/></g><g transform="translate(-54,-38) scale(1,1)"><path fill="none" stroke="#000000" d="M 423.989073507385 258.5103670913821 L 432 279 L 440.82377792719177 258.84706117977817 L 423.989073507385 258.5103670913821" stroke-miterlimit="10"/></g><g transform="translate(-54,-38) scale(1,1)"><path fill="none" stroke="#000000" d="M 291 543 L 375 607" stroke-miterlimit="10"/></g><g transform="translate(-54,-38) scale(1,1)"><path fill="#FFFFFF" stroke="none" d="M 353.73027276461397 601.3787276055792 L 375 607 L 363.934871466862 587.9851918088787"/></g><g transform="translate(-54,-38) scale(1,1)"><path fill="none" stroke="#000000" d="M 353.73027276461397 601.3787276055792 L 375 607 L 363.934871466862 587.9851918088787 L 353.73027276461397 601.3787276055792" stroke-miterlimit="10"/></g><g transform="translate(-54,-38) scale(1,1)"><path fill="none" stroke="#000000" d="M 571 543 L 487 607" stroke-miterlimit="10"/></g><g transform="translate(-54,-38) scale(1,1)"><path fill="#FFFFFF" stroke="none" d="M 498.065128533138 587.9851918088787 L 487 607 L 508.26972723538603 601.3787276055792"/></g><g transform="translate(-54,-38) scale(1,1)"><path fill="none" stroke="#000000" d="M 498.065128533138 587.9851918088787 L 487 607 L 508.26972723538603 601.3787276055792 L 498.065128533138 587.9851918088787" stroke-miterlimit="10"/></g><g transform="translate(-54,-38) scale(1,1)"><path fill="none" stroke="#000000" d="M 431 607 L 431 353" stroke-miterlimit="10"/></g><g transform="translate(-54,-38) scale(1,1)"><path fill="none" stroke="#000000" d="M 435.209517756016 363.16267485762415 L 431 353 L 426.790482243984 363.16267485762415" stroke-miterlimit="10"/></g><g transform="translate(-54,-38) scale(1,1)"><path fill="none" stroke="#000000" d="M 96 504 L 64 504 L 64 96 L 232 96" stroke-miterlimit="10"/></g><g transform="translate(-54,-38) scale(1,1)"><path fill="none" stroke="#000000" d="M 221.83732514237585 100.20951775601598 L 232 96 L 221.83732514237585 91.79048224398402" stroke-miterlimit="10"/></g><g transform="translate(-54,-38) scale(1,1)"><path fill="none" stroke="#000000" d="M 767 491 L 864 491 L 864 112 L 639 112" stroke-miterlimit="10"/></g><g transform="translate(-54,-38) scale(1,1)"><path fill="none" stroke="#000000" d="M 649.1626748576241 107.79048224398402 L 639 112 L 649.1626748576241 116.20951775601598" stroke-miterlimit="10"/></g></g></svg>