<svg version="1.1" xmlns="http://www.w3.org/2000/svg" xmlns:xlink="http://www.w3.org/1999/xlink" width="638.26611328125" height="342"><defs/><g><g transform="translate(-78,-94) scale(1,1)"><rect fill="#C0C0C0" stroke="none" x="455" y="319" width="258.26611328125" height="100" opacity="0.2"/></g><g transform="translate(-78,-94) scale(1,1)"><rect fill="#ffffff" stroke="none" x="448" y="312" width="258.26611328125" height="100"/></g><g transform="translate(-78,-94) scale(1,1)"><path fill="none" stroke="#000000" d="M 448 312 L 706.26611328125 312 L 706.26611328125 412 L 448 412 L 448 312 Z Z" stroke-miterlimit="10"/></g><g transform="translate(-78,-94) scale(1,1)"><path fill="none" stroke="#000000" d="M 448 352 L 706.26611328125 352" stroke-miterlimit="10"/></g><g transform="translate(-78,-94) scale(1,1)"><path fill="none" stroke="#000000" d="M 448 375 L 706.26611328125 375" stroke-miterlimit="10"/></g><g transform="translate(-78,-94) scale(1,1)"><g><path fill="none" stroke="none"/><text fill="#000000" stroke="none" font-family="Arial" font-size="13px" font-style="normal" font-weight="bold" text-decoration="none" x="550.0380859375" y="331.5">Memento</text></g></g><g transform="translate(-78,-94) scale(1,1)"><g><path fill="none" stroke="none"/><text fill="#000000" stroke="none" font-family="Arial" font-size="13px" font-style="normal" font-weight="normal" text-decoration="none" x="452.5" y="346.5">(from com.lizq.design.behavioral.memento)</text></g></g><g transform="translate(-78,-94) scale(1,1)"><g><path fill="none" stroke="none"/><text fill="#000000" stroke="none" font-family="Arial" font-size="13px" font-style="normal" font-weight="normal" text-decoration="none" x="453" y="369.5">-state: String</text></g></g><g transform="translate(-78,-94) scale(1,1)"><g><path fill="none" stroke="none"/><text fill="#000000" stroke="none" font-family="Arial" font-size="13px" font-style="normal" font-weight="normal" text-decoration="none" x="453" y="392.5">+getState(): String</text></g></g><g transform="translate(-78,-94) scale(1,1)"><rect fill="#C0C0C0" stroke="none" x="95" y="303" width="258.26611328125" height="130" opacity="0.2"/></g><g transform="translate(-78,-94) scale(1,1)"><rect fill="#ffffff" stroke="none" x="88" y="296" width="258.26611328125" height="130"/></g><g transform="translate(-78,-94) scale(1,1)"><path fill="none" stroke="#000000" d="M 88 296 L 346.26611328125 296 L 346.26611328125 426 L 88 426 L 88 296 Z Z" stroke-miterlimit="10"/></g><g transform="translate(-78,-94) scale(1,1)"><path fill="none" stroke="#000000" d="M 88 336 L 346.26611328125 336" stroke-miterlimit="10"/></g><g transform="translate(-78,-94) scale(1,1)"><path fill="none" stroke="#000000" d="M 88 359 L 346.26611328125 359" stroke-miterlimit="10"/></g><g transform="translate(-78,-94) scale(1,1)"><g><path fill="none" stroke="none"/><text fill="#000000" stroke="none" font-family="Arial" font-size="13px" font-style="normal" font-weight="bold" text-decoration="none" x="188.593994140625" y="315.5">Originator</text></g></g><g transform="translate(-78,-94) scale(1,1)"><g><path fill="none" stroke="none"/><text fill="#000000" stroke="none" font-family="Arial" font-size="13px" font-style="normal" font-weight="normal" text-decoration="none" x="92.5" y="330.5">(from com.lizq.design.behavioral.memento)</text></g></g><g transform="translate(-78,-94) scale(1,1)"><g><path fill="none" stroke="none"/><text fill="#000000" stroke="none" font-family="Arial" font-size="13px" font-style="normal" font-weight="normal" text-decoration="none" x="93" y="353.5">-state: String</text></g></g><g transform="translate(-78,-94) scale(1,1)"><g><path fill="none" stroke="none"/><text fill="#000000" stroke="none" font-family="Arial" font-size="13px" font-style="normal" font-weight="normal" text-decoration="none" x="93" y="376.5">+setState(state: String)</text></g></g><g transform="translate(-78,-94) scale(1,1)"><g><path fill="none" stroke="none"/><text fill="#000000" stroke="none" font-family="Arial" font-size="13px" font-style="normal" font-weight="normal" text-decoration="none" x="93" y="391.5">+getState(): String</text></g></g><g transform="translate(-78,-94) scale(1,1)"><g><path fill="none" stroke="none"/><text fill="#000000" stroke="none" font-family="Arial" font-size="13px" font-style="normal" font-weight="normal" text-decoration="none" x="93" y="406.5">+createMemento(): Memento</text></g></g><g transform="translate(-78,-94) scale(1,1)"><g><path fill="none" stroke="none"/><text fill="#000000" stroke="none" font-family="Arial" font-size="13px" font-style="normal" font-weight="normal" text-decoration="none" x="93" y="421.5">+restoreMemento(memento: Memento)</text></g></g><g transform="translate(-78,-94) scale(1,1)"><path fill="none" stroke="#000000" d="M 347 361 L 447 362" stroke-miterlimit="10" stroke-dasharray="3"/></g><g transform="translate(-78,-94) scale(1,1)"><path fill="none" stroke="#000000" d="M 436.79574016505273 366.1076856282927 L 447 362 L 436.879926310971 357.68907103646757" stroke-miterlimit="10"/></g><g transform="translate(-78,-94) scale(1,1)"><rect fill="#C0C0C0" stroke="none" x="455" y="111" width="258.26611328125" height="100" opacity="0.2"/></g><g transform="translate(-78,-94) scale(1,1)"><rect fill="#ffffff" stroke="none" x="448" y="104" width="258.26611328125" height="100"/></g><g transform="translate(-78,-94) scale(1,1)"><path fill="none" stroke="#000000" d="M 448 104 L 706.26611328125 104 L 706.26611328125 204 L 448 204 L 448 104 Z Z" stroke-miterlimit="10"/></g><g transform="translate(-78,-94) scale(1,1)"><path fill="none" stroke="#000000" d="M 448 144 L 706.26611328125 144" stroke-miterlimit="10"/></g><g transform="translate(-78,-94) scale(1,1)"><path fill="none" stroke="#000000" d="M 448 167 L 706.26611328125 167" stroke-miterlimit="10"/></g><g transform="translate(-78,-94) scale(1,1)"><g><path fill="none" stroke="none"/><text fill="#000000" stroke="none" font-family="Arial" font-size="13px" font-style="normal" font-weight="bold" text-decoration="none" x="548.593994140625" y="123.5">Caretaker</text></g></g><g transform="translate(-78,-94) scale(1,1)"><g><path fill="none" stroke="none"/><text fill="#000000" stroke="none" font-family="Arial" font-size="13px" font-style="normal" font-weight="normal" text-decoration="none" x="452.5" y="138.5">(from com.lizq.design.behavioral.memento)</text></g></g><g transform="translate(-78,-94) scale(1,1)"><g><path fill="none" stroke="none"/><text fill="#000000" stroke="none" font-family="Arial" font-size="13px" font-style="normal" font-weight="normal" text-decoration="none" x="453" y="161.5">-memento: Memento</text></g></g><g transform="translate(-78,-94) scale(1,1)"><g><path fill="none" stroke="none"/><text fill="#000000" stroke="none" font-family="Arial" font-size="13px" font-style="normal" font-weight="normal" text-decoration="none" x="453" y="184.5">+setMemento(memento: Memento)</text></g></g><g transform="translate(-78,-94) scale(1,1)"><g><path fill="none" stroke="none"/><text fill="#000000" stroke="none" font-family="Arial" font-size="13px" font-style="normal" font-weight="normal" text-decoration="none" x="453" y="199.5">+getMemento(): Memento</text></g></g><g transform="translate(-78,-94) scale(1,1)"><path fill="none" stroke="#000000" d="M 577 311 L 577 205" stroke-miterlimit="10"/></g><g transform="translate(-78,-94) scale(1,1)"><path fill="#FFFFFF" stroke="none" d="M 581.209517756016 215.16267485762415 L 577 205 L 572.790482243984 215.16267485762415 L 577 227"/></g><g transform="translate(-78,-94) scale(1,1)"><path fill="none" stroke="#000000" d="M 581.209517756016 215.16267485762415 L 577 205 L 572.790482243984 215.16267485762415 L 577 227 L 581.209517756016 215.16267485762415" stroke-miterlimit="10"/></g></g></svg>