<svg version="1.1" xmlns="http://www.w3.org/2000/svg" xmlns:xlink="http://www.w3.org/1999/xlink" width="906.654296875" height="292"><defs/><g><g transform="translate(-70,-166) scale(1,1)"><rect fill="#C0C0C0" stroke="none" x="551" y="199" width="254.654296875" height="75" opacity="0.2"/></g><g transform="translate(-70,-166) scale(1,1)"><rect fill="#ffffff" stroke="none" x="544" y="192" width="254.654296875" height="75"/></g><g transform="translate(-70,-166) scale(1,1)"><path fill="none" stroke="#000000" d="M 544 192 L 798.654296875 192 L 798.654296875 267 L 544 267 L 544 192 Z Z" stroke-miterlimit="10"/></g><g transform="translate(-70,-166) scale(1,1)"><path fill="none" stroke="#000000" d="M 544 245 L 798.654296875 245" stroke-miterlimit="10"/></g><g transform="translate(-70,-166) scale(1,1)"><g><path fill="none" stroke="none"/><text fill="#000000" stroke="none" font-family="Arial" font-size="13px" font-style="normal" font-weight="normal" text-decoration="none" x="639.166748046875" y="209.5">«interface»</text></g></g><g transform="translate(-70,-166) scale(1,1)"><g><path fill="none" stroke="none"/><text fill="#000000" stroke="none" font-family="Arial" font-size="13px" font-style="normal" font-weight="bold" text-decoration="none" x="644.59716796875" y="224.5">Observer</text></g></g><g transform="translate(-70,-166) scale(1,1)"><g><path fill="none" stroke="none"/><text fill="#000000" stroke="none" font-family="Arial" font-size="13px" font-style="normal" font-weight="normal" text-decoration="none" x="548.5" y="239.5">(from com.lizq.design.behavioral.observer)</text></g></g><g transform="translate(-70,-166) scale(1,1)"><g><path fill="none" stroke="none"/><text fill="#000000" stroke="none" font-family="Arial" font-size="13px" font-style="normal" font-weight="normal" text-decoration="none" x="549" y="262.5">+update()</text></g></g><g transform="translate(-70,-166) scale(1,1)"><rect fill="#C0C0C0" stroke="none" x="415" y="383" width="254.654296875" height="72" opacity="0.2"/></g><g transform="translate(-70,-166) scale(1,1)"><rect fill="#ffffff" stroke="none" x="408" y="376" width="254.654296875" height="72"/></g><g transform="translate(-70,-166) scale(1,1)"><path fill="none" stroke="#000000" d="M 408 376 L 662.654296875 376 L 662.654296875 448 L 408 448 L 408 376 Z Z" stroke-miterlimit="10"/></g><g transform="translate(-70,-166) scale(1,1)"><path fill="none" stroke="#000000" d="M 408 416 L 662.654296875 416" stroke-miterlimit="10"/></g><g transform="translate(-70,-166) scale(1,1)"><path fill="none" stroke="#000000" d="M 408 426 L 662.654296875 426" stroke-miterlimit="10"/></g><g transform="translate(-70,-166) scale(1,1)"><g><path fill="none" stroke="none"/><text fill="#000000" stroke="none" font-family="Arial" font-size="13px" font-style="normal" font-weight="bold" text-decoration="none" x="504.26171875" y="395.5">ObserverA</text></g></g><g transform="translate(-70,-166) scale(1,1)"><g><path fill="none" stroke="none"/><text fill="#000000" stroke="none" font-family="Arial" font-size="13px" font-style="normal" font-weight="normal" text-decoration="none" x="412.5" y="410.5">(from com.lizq.design.behavioral.observer)</text></g></g><g transform="translate(-70,-166) scale(1,1)"><g><path fill="none" stroke="none"/><text fill="#000000" stroke="none" font-family="Arial" font-size="13px" font-style="normal" font-weight="normal" text-decoration="none" x="413" y="443.5">+update()</text></g></g><g transform="translate(-70,-166) scale(1,1)"><rect fill="#C0C0C0" stroke="none" x="719" y="383" width="254.654296875" height="72" opacity="0.2"/></g><g transform="translate(-70,-166) scale(1,1)"><rect fill="#ffffff" stroke="none" x="712" y="376" width="254.654296875" height="72"/></g><g transform="translate(-70,-166) scale(1,1)"><path fill="none" stroke="#000000" d="M 712 376 L 966.654296875 376 L 966.654296875 448 L 712 448 L 712 376 Z Z" stroke-miterlimit="10"/></g><g transform="translate(-70,-166) scale(1,1)"><path fill="none" stroke="#000000" d="M 712 416 L 966.654296875 416" stroke-miterlimit="10"/></g><g transform="translate(-70,-166) scale(1,1)"><path fill="none" stroke="#000000" d="M 712 426 L 966.654296875 426" stroke-miterlimit="10"/></g><g transform="translate(-70,-166) scale(1,1)"><g><path fill="none" stroke="none"/><text fill="#000000" stroke="none" font-family="Arial" font-size="13px" font-style="normal" font-weight="bold" text-decoration="none" x="808.26171875" y="395.5">ObserverB</text></g></g><g transform="translate(-70,-166) scale(1,1)"><g><path fill="none" stroke="none"/><text fill="#000000" stroke="none" font-family="Arial" font-size="13px" font-style="normal" font-weight="normal" text-decoration="none" x="716.5" y="410.5">(from com.lizq.design.behavioral.observer)</text></g></g><g transform="translate(-70,-166) scale(1,1)"><g><path fill="none" stroke="none"/><text fill="#000000" stroke="none" font-family="Arial" font-size="13px" font-style="normal" font-weight="normal" text-decoration="none" x="717" y="443.5">+update()</text></g></g><g transform="translate(-70,-166) scale(1,1)"><rect fill="#C0C0C0" stroke="none" x="87" y="183" width="254.654296875" height="100" opacity="0.2"/></g><g transform="translate(-70,-166) scale(1,1)"><rect fill="#ffffff" stroke="none" x="80" y="176" width="254.654296875" height="100"/></g><g transform="translate(-70,-166) scale(1,1)"><path fill="none" stroke="#000000" d="M 80 176 L 334.654296875 176 L 334.654296875 276 L 80 276 L 80 176 Z Z" stroke-miterlimit="10"/></g><g transform="translate(-70,-166) scale(1,1)"><path fill="none" stroke="#000000" d="M 80 216 L 334.654296875 216" stroke-miterlimit="10"/></g><g transform="translate(-70,-166) scale(1,1)"><path fill="none" stroke="#000000" d="M 80 239 L 334.654296875 239" stroke-miterlimit="10"/></g><g transform="translate(-70,-166) scale(1,1)"><g><path fill="none" stroke="none"/><text fill="#000000" stroke="none" font-family="Arial" font-size="13px" font-style="italic" font-weight="bold" text-decoration="none" x="185.646728515625" y="195.5">Subject</text></g></g><g transform="translate(-70,-166) scale(1,1)"><g><path fill="none" stroke="none"/><text fill="#000000" stroke="none" font-family="Arial" font-size="13px" font-style="normal" font-weight="normal" text-decoration="none" x="84.5" y="210.5">(from com.lizq.design.behavioral.observer)</text></g></g><g transform="translate(-70,-166) scale(1,1)"><g><path fill="none" stroke="none"/><text fill="#000000" stroke="none" font-family="Arial" font-size="13px" font-style="normal" font-weight="normal" text-decoration="none" x="85" y="233.5">+observers: List[0..*]</text></g></g><g transform="translate(-70,-166) scale(1,1)"><g><path fill="none" stroke="none"/><text fill="#000000" stroke="none" font-family="Arial" font-size="13px" font-style="normal" font-weight="normal" text-decoration="none" x="85" y="256.5">+add(observer: Observer): boolean</text></g></g><g transform="translate(-70,-166) scale(1,1)"><g><path fill="none" stroke="none"/><text fill="#000000" stroke="none" font-family="Arial" font-size="13px" font-style="normal" font-weight="normal" text-decoration="none" x="85" y="271.5">+update()</text></g></g><g transform="translate(-70,-166) scale(1,1)"><rect fill="#C0C0C0" stroke="none" x="87" y="383" width="254.654296875" height="72" opacity="0.2"/></g><g transform="translate(-70,-166) scale(1,1)"><rect fill="#ffffff" stroke="none" x="80" y="376" width="254.654296875" height="72"/></g><g transform="translate(-70,-166) scale(1,1)"><path fill="none" stroke="#000000" d="M 80 376 L 334.654296875 376 L 334.654296875 448 L 80 448 L 80 376 Z Z" stroke-miterlimit="10"/></g><g transform="translate(-70,-166) scale(1,1)"><path fill="none" stroke="#000000" d="M 80 416 L 334.654296875 416" stroke-miterlimit="10"/></g><g transform="translate(-70,-166) scale(1,1)"><path fill="none" stroke="#000000" d="M 80 426 L 334.654296875 426" stroke-miterlimit="10"/></g><g transform="translate(-70,-166) scale(1,1)"><g><path fill="none" stroke="none"/><text fill="#000000" stroke="none" font-family="Arial" font-size="13px" font-style="normal" font-weight="bold" text-decoration="none" x="159.272216796875" y="395.5">ConcreteSubject</text></g></g><g transform="translate(-70,-166) scale(1,1)"><g><path fill="none" stroke="none"/><text fill="#000000" stroke="none" font-family="Arial" font-size="13px" font-style="normal" font-weight="normal" text-decoration="none" x="84.5" y="410.5">(from com.lizq.design.behavioral.observer)</text></g></g><g transform="translate(-70,-166) scale(1,1)"><g><path fill="none" stroke="none"/><text fill="#000000" stroke="none" font-family="Arial" font-size="13px" font-style="normal" font-weight="normal" text-decoration="none" x="85" y="443.5">+dosomething()</text></g></g><g transform="translate(-70,-166) scale(1,1)"><path fill="none" stroke="#000000" d="M 543 228 L 336 227" stroke-miterlimit="10"/></g><g transform="translate(-70,-166) scale(1,1)"><path fill="#FFFFFF" stroke="none" d="M 346.18289186990603 222.83962583824461 L 336 227 L 346.1422206753505 231.25856311124937 L 357.9997432890507 227.1062789530872"/></g><g transform="translate(-70,-166) scale(1,1)"><path fill="none" stroke="#000000" d="M 346.18289186990603 222.83962583824461 L 336 227 L 346.1422206753505 231.25856311124937 L 357.9997432890507 227.1062789530872 L 346.18289186990603 222.83962583824461" stroke-miterlimit="10"/></g><g transform="translate(-70,-166) scale(1,1)"><path fill="none" stroke="#000000" d="M 562 375 L 642 268" stroke-miterlimit="10" stroke-dasharray="3"/></g><g transform="translate(-70,-166) scale(1,1)"><path fill="#FFFFFF" stroke="none" d="M 636.5719284068314 289.31985081513085 L 642 268 L 623.0863626824398 279.23718485296894"/></g><g transform="translate(-70,-166) scale(1,1)"><path fill="none" stroke="#000000" d="M 636.5719284068314 289.31985081513085 L 642 268 L 623.0863626824398 279.23718485296894 L 636.5719284068314 289.31985081513085" stroke-miterlimit="10"/></g><g transform="translate(-70,-166) scale(1,1)"><path fill="none" stroke="#000000" d="M 805 375 L 707 268" stroke-miterlimit="10" stroke-dasharray="3"/></g><g transform="translate(-70,-166) scale(1,1)"><path fill="#FFFFFF" stroke="none" d="M 726.9365296966367 277.3024074118005 L 707 268 L 714.5194599795747 288.675050704063"/></g><g transform="translate(-70,-166) scale(1,1)"><path fill="none" stroke="#000000" d="M 726.9365296966367 277.3024074118005 L 707 268 L 714.5194599795747 288.675050704063 L 726.9365296966367 277.3024074118005" stroke-miterlimit="10"/></g><g transform="translate(-70,-166) scale(1,1)"><path fill="none" stroke="#000000" d="M 207 375 L 207 277" stroke-miterlimit="10"/></g><g transform="translate(-70,-166) scale(1,1)"><path fill="#FFFFFF" stroke="none" d="M 215.41903551203197 297.3253497152483 L 207 277 L 198.58096448796803 297.3253497152483"/></g><g transform="translate(-70,-166) scale(1,1)"><path fill="none" stroke="#000000" d="M 215.41903551203197 297.3253497152483 L 207 277 L 198.58096448796803 297.3253497152483 L 215.41903551203197 297.3253497152483" stroke-miterlimit="10"/></g></g></svg>