<svg version="1.1" xmlns="http://www.w3.org/2000/svg" xmlns:xlink="http://www.w3.org/1999/xlink" width="625.33984375" height="351"><defs/><g><g transform="translate(-126,-102) scale(1,1)"><rect fill="#C0C0C0" stroke="none" x="519" y="351" width="229.33984375" height="72" opacity="0.2"/></g><g transform="translate(-126,-102) scale(1,1)"><rect fill="#ffffff" stroke="none" x="512" y="344" width="229.33984375" height="72"/></g><g transform="translate(-126,-102) scale(1,1)"><path fill="none" stroke="#000000" d="M 512 344 L 741.33984375 344 L 741.33984375 416 L 512 416 L 512 344 Z Z" stroke-miterlimit="10"/></g><g transform="translate(-126,-102) scale(1,1)"><path fill="none" stroke="#000000" d="M 512 384 L 741.33984375 384" stroke-miterlimit="10"/></g><g transform="translate(-126,-102) scale(1,1)"><path fill="none" stroke="#000000" d="M 512 394 L 741.33984375 394" stroke-miterlimit="10"/></g><g transform="translate(-126,-102) scale(1,1)"><g><path fill="none" stroke="none"/><text fill="#000000" stroke="none" font-family="Arial" font-size="13px" font-style="normal" font-weight="bold" text-decoration="none" x="591.621337890625" y="363.5">RealSubject</text></g></g><g transform="translate(-126,-102) scale(1,1)"><g><path fill="none" stroke="none"/><text fill="#000000" stroke="none" font-family="Arial" font-size="13px" font-style="normal" font-weight="normal" text-decoration="none" x="516.5" y="378.5">(from com.lizq.design.structural.proxy)</text></g></g><g transform="translate(-126,-102) scale(1,1)"><g><path fill="none" stroke="none"/><text fill="#000000" stroke="none" font-family="Arial" font-size="13px" font-style="normal" font-weight="normal" text-decoration="none" x="517" y="411.5">+dosomething()</text></g></g><g transform="translate(-126,-102) scale(1,1)"><rect fill="#C0C0C0" stroke="none" x="143" y="335" width="229.33984375" height="115" opacity="0.2"/></g><g transform="translate(-126,-102) scale(1,1)"><rect fill="#ffffff" stroke="none" x="136" y="328" width="229.33984375" height="115"/></g><g transform="translate(-126,-102) scale(1,1)"><path fill="none" stroke="#000000" d="M 136 328 L 365.33984375 328 L 365.33984375 443 L 136 443 L 136 328 Z Z" stroke-miterlimit="10"/></g><g transform="translate(-126,-102) scale(1,1)"><path fill="none" stroke="#000000" d="M 136 368 L 365.33984375 368" stroke-miterlimit="10"/></g><g transform="translate(-126,-102) scale(1,1)"><path fill="none" stroke="#000000" d="M 136 391 L 365.33984375 391" stroke-miterlimit="10"/></g><g transform="translate(-126,-102) scale(1,1)"><g><path fill="none" stroke="none"/><text fill="#000000" stroke="none" font-family="Arial" font-size="13px" font-style="normal" font-weight="bold" text-decoration="none" x="234.054931640625" y="347.5">Proxy</text></g></g><g transform="translate(-126,-102) scale(1,1)"><g><path fill="none" stroke="none"/><text fill="#000000" stroke="none" font-family="Arial" font-size="13px" font-style="normal" font-weight="normal" text-decoration="none" x="140.5" y="362.5">(from com.lizq.design.structural.proxy)</text></g></g><g transform="translate(-126,-102) scale(1,1)"><g><path fill="none" stroke="none"/><text fill="#000000" stroke="none" font-family="Arial" font-size="13px" font-style="normal" font-weight="normal" text-decoration="none" x="141" y="385.5">-subject: Subject</text></g></g><g transform="translate(-126,-102) scale(1,1)"><g><path fill="none" stroke="none"/><text fill="#000000" stroke="none" font-family="Arial" font-size="13px" font-style="normal" font-weight="normal" text-decoration="none" x="141" y="408.5">+before()</text></g></g><g transform="translate(-126,-102) scale(1,1)"><g><path fill="none" stroke="none"/><text fill="#000000" stroke="none" font-family="Arial" font-size="13px" font-style="normal" font-weight="normal" text-decoration="none" x="141" y="423.5">+after()</text></g></g><g transform="translate(-126,-102) scale(1,1)"><g><path fill="none" stroke="none"/><text fill="#000000" stroke="none" font-family="Arial" font-size="13px" font-style="normal" font-weight="normal" text-decoration="none" x="141" y="438.5">+dosomething()</text></g></g><g transform="translate(-126,-102) scale(1,1)"><rect fill="#C0C0C0" stroke="none" x="143" y="119" width="229.33984375" height="75" opacity="0.2"/></g><g transform="translate(-126,-102) scale(1,1)"><rect fill="#ffffff" stroke="none" x="136" y="112" width="229.33984375" height="75"/></g><g transform="translate(-126,-102) scale(1,1)"><path fill="none" stroke="#000000" d="M 136 112 L 365.33984375 112 L 365.33984375 187 L 136 187 L 136 112 Z Z" stroke-miterlimit="10"/></g><g transform="translate(-126,-102) scale(1,1)"><path fill="none" stroke="#000000" d="M 136 165 L 365.33984375 165" stroke-miterlimit="10"/></g><g transform="translate(-126,-102) scale(1,1)"><g><path fill="none" stroke="none"/><text fill="#000000" stroke="none" font-family="Arial" font-size="13px" font-style="normal" font-weight="normal" text-decoration="none" x="218.509521484375" y="129.5">«interface»</text></g></g><g transform="translate(-126,-102) scale(1,1)"><g><path fill="none" stroke="none"/><text fill="#000000" stroke="none" font-family="Arial" font-size="13px" font-style="normal" font-weight="bold" text-decoration="none" x="228.989501953125" y="144.5">Subject</text></g></g><g transform="translate(-126,-102) scale(1,1)"><g><path fill="none" stroke="none"/><text fill="#000000" stroke="none" font-family="Arial" font-size="13px" font-style="normal" font-weight="normal" text-decoration="none" x="140.5" y="159.5">(from com.lizq.design.structural.proxy)</text></g></g><g transform="translate(-126,-102) scale(1,1)"><g><path fill="none" stroke="none"/><text fill="#000000" stroke="none" font-family="Arial" font-size="13px" font-style="normal" font-weight="normal" text-decoration="none" x="141" y="182.5">+dosomething()</text></g></g><g transform="translate(-126,-102) scale(1,1)"><path fill="none" stroke="#000000" d="M 566 343 L 313 188" stroke-miterlimit="10" stroke-dasharray="3"/></g><g transform="translate(-126,-102) scale(1,1)"><path fill="#FFFFFF" stroke="none" d="M 334.72952510694887 191.4391479506527 L 313 188 L 325.9332497176765 205.79693939249722"/></g><g transform="translate(-126,-102) scale(1,1)"><path fill="none" stroke="#000000" d="M 334.72952510694887 191.4391479506527 L 313 188 L 325.9332497176765 205.79693939249722 L 334.72952510694887 191.4391479506527" stroke-miterlimit="10"/></g><g transform="translate(-126,-102) scale(1,1)"><path fill="none" stroke="#000000" d="M 250 327 L 250 188" stroke-miterlimit="10" stroke-dasharray="3"/></g><g transform="translate(-126,-102) scale(1,1)"><path fill="#FFFFFF" stroke="none" d="M 258.419035512032 208.3253497152483 L 250 188 L 241.58096448796803 208.3253497152483"/></g><g transform="translate(-126,-102) scale(1,1)"><path fill="none" stroke="#000000" d="M 258.419035512032 208.3253497152483 L 250 188 L 241.58096448796803 208.3253497152483 L 258.419035512032 208.3253497152483" stroke-miterlimit="10"/></g><g transform="translate(-126,-102) scale(1,1)"><path fill="none" stroke="#000000" d="M 366 383 L 511 382" stroke-miterlimit="10"/></g><g transform="translate(-126,-102) scale(1,1)"><path fill="none" stroke="#000000" d="M 500.86659728105536 386.2795033982561 L 511 382 L 500.80853634792226 377.8606680939578" stroke-miterlimit="10"/></g></g></svg>