<svg version="1.1" xmlns="http://www.w3.org/2000/svg" xmlns:xlink="http://www.w3.org/1999/xlink" width="743.5615234375" height="541"><defs/><g><g transform="translate(-358,-102) scale(1,1)"><rect fill="#C0C0C0" stroke="none" x="447" y="255" width="283.5615234375" height="130" opacity="0.2"/></g><g transform="translate(-358,-102) scale(1,1)"><rect fill="#ffffff" stroke="none" x="440" y="248" width="283.5615234375" height="130"/></g><g transform="translate(-358,-102) scale(1,1)"><path fill="none" stroke="#000000" d="M 440 248 L 723.5615234375 248 L 723.5615234375 378 L 440 378 L 440 248 Z Z" stroke-miterlimit="10"/></g><g transform="translate(-358,-102) scale(1,1)"><path fill="none" stroke="#000000" d="M 440 288 L 723.5615234375 288" stroke-miterlimit="10"/></g><g transform="translate(-358,-102) scale(1,1)"><path fill="none" stroke="#000000" d="M 440 311 L 723.5615234375 311" stroke-miterlimit="10"/></g><g transform="translate(-358,-102) scale(1,1)"><g><path fill="none" stroke="none"/><text fill="#000000" stroke="none" font-family="Arial" font-size="13px" font-style="italic" font-weight="bold" text-decoration="none" x="559.01806640625" y="267.5">Handler</text></g></g><g transform="translate(-358,-102) scale(1,1)"><g><path fill="none" stroke="none"/><text fill="#000000" stroke="none" font-family="Arial" font-size="13px" font-style="normal" font-weight="normal" text-decoration="none" x="444.5" y="282.5">(from com.lizq.design.behavioral.responsebility)</text></g></g><g transform="translate(-358,-102) scale(1,1)"><g><path fill="none" stroke="none"/><text fill="#000000" stroke="none" font-family="Arial" font-size="13px" font-style="normal" font-weight="normal" text-decoration="none" x="445" y="305.5">-successor: Handler</text></g></g><g transform="translate(-358,-102) scale(1,1)"><g><path fill="none" stroke="none"/><text fill="#000000" stroke="none" font-family="Arial" font-size="13px" font-style="normal" font-weight="normal" text-decoration="none" x="445" y="328.5">+handleMessage(request: Request): String</text></g></g><g transform="translate(-358,-102) scale(1,1)"><g><path fill="none" stroke="none"/><text fill="#000000" stroke="none" font-family="Arial" font-size="13px" font-style="normal" font-weight="normal" text-decoration="none" x="445" y="343.5">+setNext(handler: Handler)</text></g></g><g transform="translate(-358,-102) scale(1,1)"><g><path fill="none" stroke="none"/><text fill="#000000" stroke="none" font-family="Arial" font-size="13px" font-style="italic" font-weight="normal" text-decoration="none" x="445" y="358.5">+getHandlerLevel(): Level</text></g></g><g transform="translate(-358,-102) scale(1,1)"><g><path fill="none" stroke="none"/><text fill="#000000" stroke="none" font-family="Arial" font-size="13px" font-style="italic" font-weight="normal" text-decoration="none" x="445" y="373.5">+echo(request: Request): String</text></g></g><g transform="translate(-358,-102) scale(1,1)"><rect fill="#C0C0C0" stroke="none" x="815" y="119" width="283.5615234375" height="87" opacity="0.2"/></g><g transform="translate(-358,-102) scale(1,1)"><rect fill="#ffffff" stroke="none" x="808" y="112" width="283.5615234375" height="87"/></g><g transform="translate(-358,-102) scale(1,1)"><path fill="none" stroke="#000000" d="M 808 112 L 1091.5615234375 112 L 1091.5615234375 199 L 808 199 L 808 112 Z Z" stroke-miterlimit="10"/></g><g transform="translate(-358,-102) scale(1,1)"><path fill="none" stroke="#000000" d="M 808 152 L 1091.5615234375 152" stroke-miterlimit="10"/></g><g transform="translate(-358,-102) scale(1,1)"><path fill="none" stroke="#000000" d="M 808 162 L 1091.5615234375 162" stroke-miterlimit="10"/></g><g transform="translate(-358,-102) scale(1,1)"><g><path fill="none" stroke="none"/><text fill="#000000" stroke="none" font-family="Arial" font-size="13px" font-style="normal" font-weight="bold" text-decoration="none" x="896.30810546875" y="131.5">ConcreteHandlerA</text></g></g><g transform="translate(-358,-102) scale(1,1)"><g><path fill="none" stroke="none"/><text fill="#000000" stroke="none" font-family="Arial" font-size="13px" font-style="normal" font-weight="normal" text-decoration="none" x="812.5" y="146.5">(from com.lizq.design.behavioral.responsebility)</text></g></g><g transform="translate(-358,-102) scale(1,1)"><g><path fill="none" stroke="none"/><text fill="#000000" stroke="none" font-family="Arial" font-size="13px" font-style="normal" font-weight="normal" text-decoration="none" x="813" y="179.5">+getHandlerLevel(): Level</text></g></g><g transform="translate(-358,-102) scale(1,1)"><g><path fill="none" stroke="none"/><text fill="#000000" stroke="none" font-family="Arial" font-size="13px" font-style="normal" font-weight="normal" text-decoration="none" x="813" y="194.5">+echo(request: Request): String</text></g></g><g transform="translate(-358,-102) scale(1,1)"><rect fill="#C0C0C0" stroke="none" x="815" y="271" width="283.5615234375" height="87" opacity="0.2"/></g><g transform="translate(-358,-102) scale(1,1)"><rect fill="#ffffff" stroke="none" x="808" y="264" width="283.5615234375" height="87"/></g><g transform="translate(-358,-102) scale(1,1)"><path fill="none" stroke="#000000" d="M 808 264 L 1091.5615234375 264 L 1091.5615234375 351 L 808 351 L 808 264 Z Z" stroke-miterlimit="10"/></g><g transform="translate(-358,-102) scale(1,1)"><path fill="none" stroke="#000000" d="M 808 304 L 1091.5615234375 304" stroke-miterlimit="10"/></g><g transform="translate(-358,-102) scale(1,1)"><path fill="none" stroke="#000000" d="M 808 314 L 1091.5615234375 314" stroke-miterlimit="10"/></g><g transform="translate(-358,-102) scale(1,1)"><g><path fill="none" stroke="none"/><text fill="#000000" stroke="none" font-family="Arial" font-size="13px" font-style="normal" font-weight="bold" text-decoration="none" x="896.30810546875" y="283.5">ConcreteHandlerB</text></g></g><g transform="translate(-358,-102) scale(1,1)"><g><path fill="none" stroke="none"/><text fill="#000000" stroke="none" font-family="Arial" font-size="13px" font-style="normal" font-weight="normal" text-decoration="none" x="812.5" y="298.5">(from com.lizq.design.behavioral.responsebility)</text></g></g><g transform="translate(-358,-102) scale(1,1)"><g><path fill="none" stroke="none"/><text fill="#000000" stroke="none" font-family="Arial" font-size="13px" font-style="normal" font-weight="normal" text-decoration="none" x="813" y="331.5">+getHandlerLevel(): Level</text></g></g><g transform="translate(-358,-102) scale(1,1)"><g><path fill="none" stroke="none"/><text fill="#000000" stroke="none" font-family="Arial" font-size="13px" font-style="normal" font-weight="normal" text-decoration="none" x="813" y="346.5">+echo(request: Request): String</text></g></g><g transform="translate(-358,-102) scale(1,1)"><rect fill="#C0C0C0" stroke="none" x="815" y="415" width="283.5615234375" height="87" opacity="0.2"/></g><g transform="translate(-358,-102) scale(1,1)"><rect fill="#ffffff" stroke="none" x="808" y="408" width="283.5615234375" height="87"/></g><g transform="translate(-358,-102) scale(1,1)"><path fill="none" stroke="#000000" d="M 808 408 L 1091.5615234375 408 L 1091.5615234375 495 L 808 495 L 808 408 Z Z" stroke-miterlimit="10"/></g><g transform="translate(-358,-102) scale(1,1)"><path fill="none" stroke="#000000" d="M 808 448 L 1091.5615234375 448" stroke-miterlimit="10"/></g><g transform="translate(-358,-102) scale(1,1)"><path fill="none" stroke="#000000" d="M 808 458 L 1091.5615234375 458" stroke-miterlimit="10"/></g><g transform="translate(-358,-102) scale(1,1)"><g><path fill="none" stroke="none"/><text fill="#000000" stroke="none" font-family="Arial" font-size="13px" font-style="normal" font-weight="bold" text-decoration="none" x="895.949462890625" y="427.5">ConcreteHandlerC</text></g></g><g transform="translate(-358,-102) scale(1,1)"><g><path fill="none" stroke="none"/><text fill="#000000" stroke="none" font-family="Arial" font-size="13px" font-style="normal" font-weight="normal" text-decoration="none" x="812.5" y="442.5">(from com.lizq.design.behavioral.responsebility)</text></g></g><g transform="translate(-358,-102) scale(1,1)"><g><path fill="none" stroke="none"/><text fill="#000000" stroke="none" font-family="Arial" font-size="13px" font-style="normal" font-weight="normal" text-decoration="none" x="813" y="475.5">+getHandlerLevel(): Level</text></g></g><g transform="translate(-358,-102) scale(1,1)"><g><path fill="none" stroke="none"/><text fill="#000000" stroke="none" font-family="Arial" font-size="13px" font-style="normal" font-weight="normal" text-decoration="none" x="813" y="490.5">+echo(request: Request): String</text></g></g><g transform="translate(-358,-102) scale(1,1)"><path fill="none" stroke="#000000" d="M 844 200 L 725 251" stroke-miterlimit="10"/></g><g transform="translate(-358,-102) scale(1,1)"><path fill="#FFFFFF" stroke="none" d="M 740.3655236105367 235.25513784836338 L 725 251 L 746.9983647377621 250.73176714522282"/></g><g transform="translate(-358,-102) scale(1,1)"><path fill="none" stroke="#000000" d="M 740.3655236105367 235.25513784836338 L 725 251 L 746.9983647377621 250.73176714522282 L 740.3655236105367 235.25513784836338" stroke-miterlimit="10"/></g><g transform="translate(-358,-102) scale(1,1)"><path fill="none" stroke="#000000" d="M 807 309 L 725 311" stroke-miterlimit="10"/></g><g transform="translate(-358,-102) scale(1,1)"><path fill="#FFFFFF" stroke="none" d="M 745.1140255192289 302.08787469725604 L 725 311 L 745.5245880779605 318.92093960525153"/></g><g transform="translate(-358,-102) scale(1,1)"><path fill="none" stroke="#000000" d="M 745.1140255192289 302.08787469725604 L 725 311 L 745.5245880779605 318.92093960525153 L 745.1140255192289 302.08787469725604" stroke-miterlimit="10"/></g><g transform="translate(-358,-102) scale(1,1)"><path fill="none" stroke="#000000" d="M 832 407 L 725 367" stroke-miterlimit="10"/></g><g transform="translate(-358,-102) scale(1,1)"><path fill="#FFFFFF" stroke="none" d="M 746.986562532896 366.2311905391726 L 725 367 L 741.0904778451842 382.0032170788013"/></g><g transform="translate(-358,-102) scale(1,1)"><path fill="none" stroke="#000000" d="M 746.986562532896 366.2311905391726 L 725 367 L 741.0904778451842 382.0032170788013 L 746.986562532896 366.2311905391726" stroke-miterlimit="10"/></g><g transform="translate(-358,-102) scale(1,1)"><path fill="none" stroke="#000000" d="M 581 248 L 581 228 L 368 228 L 368 313 L 440 313" stroke-miterlimit="10"/></g><g transform="translate(-358,-102) scale(1,1)"><path fill="none" stroke="#000000" d="M 429.83732514237585 317.209517756016 L 440 313 L 429.83732514237585 308.790482243984" stroke-miterlimit="10"/></g><g transform="translate(-358,-102) scale(1,1)"><rect fill="#C0C0C0" stroke="none" x="447" y="495" width="283.5615234375" height="145" opacity="0.2"/></g><g transform="translate(-358,-102) scale(1,1)"><rect fill="#ffffff" stroke="none" x="440" y="488" width="283.5615234375" height="145"/></g><g transform="translate(-358,-102) scale(1,1)"><path fill="none" stroke="#000000" d="M 440 488 L 723.5615234375 488 L 723.5615234375 633 L 440 633 L 440 488 Z Z" stroke-miterlimit="10"/></g><g transform="translate(-358,-102) scale(1,1)"><path fill="none" stroke="#000000" d="M 440 528 L 723.5615234375 528" stroke-miterlimit="10"/></g><g transform="translate(-358,-102) scale(1,1)"><path fill="none" stroke="#000000" d="M 440 581 L 723.5615234375 581" stroke-miterlimit="10"/></g><g transform="translate(-358,-102) scale(1,1)"><g><path fill="none" stroke="none"/><text fill="#000000" stroke="none" font-family="Arial" font-size="13px" font-style="normal" font-weight="bold" text-decoration="none" x="559.3798828125" y="507.5">Context</text></g></g><g transform="translate(-358,-102) scale(1,1)"><g><path fill="none" stroke="none"/><text fill="#000000" stroke="none" font-family="Arial" font-size="13px" font-style="normal" font-weight="normal" text-decoration="none" x="444.5" y="522.5">(from com.lizq.design.behavioral.responsebility)</text></g></g><g transform="translate(-358,-102) scale(1,1)"><g><path fill="none" stroke="none"/><text fill="#000000" stroke="none" font-family="Arial" font-size="13px" font-style="normal" font-weight="normal" text-decoration="none" x="445" y="545.5">-concreteHandlerA: ConcreteHandlerA</text></g></g><g transform="translate(-358,-102) scale(1,1)"><g><path fill="none" stroke="none"/><text fill="#000000" stroke="none" font-family="Arial" font-size="13px" font-style="normal" font-weight="normal" text-decoration="none" x="445" y="560.5">-concreteHandlerB: ConcreteHandlerB</text></g></g><g transform="translate(-358,-102) scale(1,1)"><g><path fill="none" stroke="none"/><text fill="#000000" stroke="none" font-family="Arial" font-size="13px" font-style="normal" font-weight="normal" text-decoration="none" x="445" y="575.5">-concreteHandlerC: ConcreteHandlerC</text></g></g><g transform="translate(-358,-102) scale(1,1)"><g><path fill="none" stroke="none"/><text fill="#000000" stroke="none" font-family="Arial" font-size="13px" font-style="normal" font-weight="normal" text-decoration="none" x="445" y="598.5">+doABC(request: Request): String</text></g></g><g transform="translate(-358,-102) scale(1,1)"><g><path fill="none" stroke="none"/><text fill="#000000" stroke="none" font-family="Arial" font-size="13px" font-style="normal" font-weight="normal" text-decoration="none" x="445" y="613.5">+doCBA(request: Request): String</text></g></g><g transform="translate(-358,-102) scale(1,1)"><g><path fill="none" stroke="none"/><text fill="#000000" stroke="none" font-family="Arial" font-size="13px" font-style="normal" font-weight="normal" text-decoration="none" x="445" y="628.5">-clear()</text></g></g><g transform="translate(-358,-102) scale(1,1)"><path fill="none" stroke="#000000" d="M 581 487 L 581 379" stroke-miterlimit="10" stroke-dasharray="3"/></g><g transform="translate(-358,-102) scale(1,1)"><path fill="none" stroke="#000000" d="M 585.209517756016 389.16267485762415 L 581 379 L 576.790482243984 389.16267485762415" stroke-miterlimit="10"/></g><g transform="translate(-358,-102) scale(1,1)"><g><path fill="none" stroke="none"/><text fill="#000000" stroke="none" font-family="Arial" font-size="13px" font-style="normal" font-weight="normal" text-decoration="none" x="544.5" y="438.5">+usage</text></g></g></g></svg>