<svg version="1.1" xmlns="http://www.w3.org/2000/svg" xmlns:xlink="http://www.w3.org/1999/xlink" width="557" height="61"><defs/><g><g transform="translate(-38,-68) scale(1,1)"><path fill="#C0C0C0" stroke="none" d="M 55 104.5 C 55 99.2532944 59.2532944 95 64.5 95 C 69.7467056 95 74 99.2532944 74 104.5 C 74 109.7467056 69.7467056 114 64.5 114 C 59.2532944 114 55 109.7467056 55 104.5 Z" opacity="0.2"/></g><g transform="translate(-38,-68) scale(1,1)"><path fill="#000000" stroke="none" d="M 48 97.5 C 48 92.2532944 52.2532944 88 57.5 88 C 62.7467056 88 67 92.2532944 67 97.5 C 67 102.7467056 62.7467056 107 57.5 107 C 52.2532944 107 48 102.7467056 48 97.5 Z"/></g><g transform="translate(-38,-68) scale(1,1)"><path fill="#C0C0C0" stroke="none" d="M 145 87 L 184 87 Q 194 87 194 97 L 194 116 Q 194 126 184 126 L 145 126 Q 135 126 135 116 L 135 97 Q 135 87 145 87 Z" opacity="0.2"/></g><g transform="translate(-38,-68) scale(1,1)"><path fill="#ffffff" stroke="none" d="M 138 80 L 177 80 Q 187 80 187 90 L 187 109 Q 187 119 177 119 L 138 119 Q 128 119 128 109 L 128 90 Q 128 80 138 80 Z"/></g><g transform="translate(-38,-68) scale(1,1)"><path fill="none" stroke="#000000" d="M 138 80 L 177 80 Q 187 80 187 90 L 187 109 Q 187 119 177 119 L 138 119 Q 128 119 128 109 L 128 90 Q 128 80 138 80 Z" stroke-miterlimit="10"/></g><g transform="translate(-38,-68) scale(1,1)"><g><path fill="none" stroke="none"/><text fill="#000000" stroke="none" font-family="Arial" font-size="13px" font-style="normal" font-weight="bold" text-decoration="none" x="153.16455078125" y="99.5">A</text></g></g><g transform="translate(-38,-68) scale(1,1)"><path fill="#C0C0C0" stroke="none" d="M 297 87 L 336 87 Q 346 87 346 97 L 346 116 Q 346 126 336 126 L 297 126 Q 287 126 287 116 L 287 97 Q 287 87 297 87 Z" opacity="0.2"/></g><g transform="translate(-38,-68) scale(1,1)"><path fill="#ffffff" stroke="none" d="M 290 80 L 329 80 Q 339 80 339 90 L 339 109 Q 339 119 329 119 L 290 119 Q 280 119 280 109 L 280 90 Q 280 80 290 80 Z"/></g><g transform="translate(-38,-68) scale(1,1)"><path fill="none" stroke="#000000" d="M 290 80 L 329 80 Q 339 80 339 90 L 339 109 Q 339 119 329 119 L 290 119 Q 280 119 280 109 L 280 90 Q 280 80 290 80 Z" stroke-miterlimit="10"/></g><g transform="translate(-38,-68) scale(1,1)"><g><path fill="none" stroke="none"/><text fill="#000000" stroke="none" font-family="Arial" font-size="13px" font-style="normal" font-weight="bold" text-decoration="none" x="305.16455078125" y="99.5">B</text></g></g><g transform="translate(-38,-68) scale(1,1)"><path fill="#C0C0C0" stroke="none" d="M 449 87 L 488 87 Q 498 87 498 97 L 498 116 Q 498 126 488 126 L 449 126 Q 439 126 439 116 L 439 97 Q 439 87 449 87 Z" opacity="0.2"/></g><g transform="translate(-38,-68) scale(1,1)"><path fill="#ffffff" stroke="none" d="M 442 80 L 481 80 Q 491 80 491 90 L 491 109 Q 491 119 481 119 L 442 119 Q 432 119 432 109 L 432 90 Q 432 80 442 80 Z"/></g><g transform="translate(-38,-68) scale(1,1)"><path fill="none" stroke="#000000" d="M 442 80 L 481 80 Q 491 80 491 90 L 491 109 Q 491 119 481 119 L 442 119 Q 432 119 432 109 L 432 90 Q 432 80 442 80 Z" stroke-miterlimit="10"/></g><g transform="translate(-38,-68) scale(1,1)"><g><path fill="none" stroke="none"/><text fill="#000000" stroke="none" font-family="Arial" font-size="13px" font-style="normal" font-weight="bold" text-decoration="none" x="456.805908203125" y="99.5">C</text></g></g><g transform="translate(-38,-68) scale(1,1)"><path fill="#C0C0C0" stroke="none" d="M 567 107.5 C 567 100.59644 572.59644 95 579.5 95 C 586.40356 95 592 100.59644 592 107.5 C 592 114.40356 586.40356 120 579.5 120 C 572.59644 120 567 114.40356 567 107.5 Z" opacity="0.2"/></g><g transform="translate(-38,-68) scale(1,1)"><path fill="none" stroke="#000000" d="M 560 100.5 C 560 93.59644 565.59644 88 572.5 88 C 579.40356 88 585 93.59644 585 100.5 C 585 107.40356 579.40356 113 572.5 113 C 565.59644 113 560 107.40356 560 100.5 Z" stroke-miterlimit="10"/></g><g transform="translate(-38,-68) scale(1,1)"><path fill="#000000" stroke="none" d="M 565 100.5 C 565 96.357864 568.357864 93 572.5 93 C 576.642136 93 580 96.357864 580 100.5 C 580 104.642136 576.642136 108 572.5 108 C 568.357864 108 565 104.642136 565 100.5 Z"/></g><g transform="translate(-38,-68) scale(1,1)"><path fill="none" stroke="#000000" d="M 68 97 L 127 98" stroke-miterlimit="10"/></g><g transform="translate(-38,-68) scale(1,1)"><path fill="none" stroke="#000000" d="M 116.76744705029876 102.03668925377721 L 127 98 L 116.91012207552711 93.61886276530458" stroke-miterlimit="10"/></g><g transform="translate(-38,-68) scale(1,1)"><path fill="none" stroke="#000000" d="M 188 99 L 279 99" stroke-miterlimit="10"/></g><g transform="translate(-38,-68) scale(1,1)"><path fill="none" stroke="#000000" d="M 268.83732514237585 103.20951775601598 L 279 99 L 268.83732514237585 94.79048224398402" stroke-miterlimit="10"/></g><g transform="translate(-38,-68) scale(1,1)"><g><path fill="none" stroke="none"/><text fill="#000000" stroke="none" font-family="Arial" font-size="13px" font-style="normal" font-weight="normal" text-decoration="none" x="195.5" y="90.5">dosomething</text></g></g><g transform="translate(-38,-68) scale(1,1)"><path fill="none" stroke="#000000" d="M 340 99 L 431 99" stroke-miterlimit="10"/></g><g transform="translate(-38,-68) scale(1,1)"><path fill="none" stroke="#000000" d="M 420.83732514237585 103.20951775601598 L 431 99 L 420.83732514237585 94.79048224398402" stroke-miterlimit="10"/></g><g transform="translate(-38,-68) scale(1,1)"><g><path fill="none" stroke="none"/><text fill="#000000" stroke="none" font-family="Arial" font-size="13px" font-style="normal" font-weight="normal" text-decoration="none" x="347.5" y="90.5">dosomething</text></g></g><g transform="translate(-38,-68) scale(1,1)"><path fill="none" stroke="#000000" d="M 492 99 L 559 100" stroke-miterlimit="10"/></g><g transform="translate(-38,-68) scale(1,1)"><path fill="none" stroke="#000000" d="M 548.7756352800529 104.05738414172261 L 559 100 L 548.9012785327101 95.63928621369176" stroke-miterlimit="10"/></g></g></svg>