<svg version="1.1" xmlns="http://www.w3.org/2000/svg" xmlns:xlink="http://www.w3.org/1999/xlink" width="273.4345703125" height="549"><defs/><g><g transform="translate(-262,-38) scale(1,1)"><rect fill="#C0C0C0" stroke="none" x="327" y="55" width="136" height="88" opacity="0.2"/></g><g transform="translate(-262,-38) scale(1,1)"><rect fill="#ffffff" stroke="none" x="320" y="48" width="136" height="88"/></g><g transform="translate(-262,-38) scale(1,1)"><path fill="none" stroke="#000000" d="M 320 48 L 456 48 L 456 136 L 320 136 L 320 48 Z Z" stroke-miterlimit="10"/></g><g transform="translate(-262,-38) scale(1,1)"><path fill="none" stroke="#000000" d="M 320 86 L 456 86" stroke-miterlimit="10"/></g><g transform="translate(-262,-38) scale(1,1)"><path fill="none" stroke="#000000" d="M 320 96 L 456 96" stroke-miterlimit="10"/></g><g transform="translate(-262,-38) scale(1,1)"><g><path fill="none" stroke="none"/><text fill="#000000" stroke="none" font-family="Arial" font-size="13px" font-style="normal" font-weight="normal" text-decoration="none" x="355.839599609375" y="65.5">«interface»</text></g></g><g transform="translate(-262,-38) scale(1,1)"><g><path fill="none" stroke="none"/><text fill="#000000" stroke="none" font-family="Arial" font-size="13px" font-style="normal" font-weight="bold" text-decoration="none" x="365.5927734375" y="80.5">Student</text></g></g><g transform="translate(-262,-38) scale(1,1)"><g><path fill="none" stroke="none"/><text fill="#000000" stroke="none" font-family="Arial" font-size="13px" font-style="normal" font-weight="normal" text-decoration="none" x="325" y="113.5">+study()</text></g></g><g transform="translate(-262,-38) scale(1,1)"><rect fill="#C0C0C0" stroke="none" x="279" y="255" width="86.3017578125" height="57" opacity="0.2"/></g><g transform="translate(-262,-38) scale(1,1)"><rect fill="#ffffff" stroke="none" x="272" y="248" width="86.3017578125" height="57"/></g><g transform="translate(-262,-38) scale(1,1)"><path fill="none" stroke="#000000" d="M 272 248 L 358.3017578125 248 L 358.3017578125 305 L 272 305 L 272 248 Z Z" stroke-miterlimit="10"/></g><g transform="translate(-262,-38) scale(1,1)"><path fill="none" stroke="#000000" d="M 272 273 L 358.3017578125 273" stroke-miterlimit="10"/></g><g transform="translate(-262,-38) scale(1,1)"><path fill="none" stroke="#000000" d="M 272 283 L 358.3017578125 283" stroke-miterlimit="10"/></g><g transform="translate(-262,-38) scale(1,1)"><g><path fill="none" stroke="none"/><text fill="#000000" stroke="none" font-family="Arial" font-size="13px" font-style="normal" font-weight="bold" text-decoration="none" x="279.013671875" y="267.5">JavaStudent</text></g></g><g transform="translate(-262,-38) scale(1,1)"><g><path fill="none" stroke="none"/><text fill="#000000" stroke="none" font-family="Arial" font-size="13px" font-style="normal" font-weight="normal" text-decoration="none" x="277" y="300.5">+study()</text></g></g><g transform="translate(-262,-38) scale(1,1)"><path fill="none" stroke="#000000" d="M 327 247 L 370 137" stroke-miterlimit="10" stroke-dasharray="3"/></g><g transform="translate(-262,-38) scale(1,1)"><path fill="#FFFFFF" stroke="none" d="M 370.44116234090814 158.9955762777192 L 370 137 L 354.7587277407791 152.8651700249415"/></g><g transform="translate(-262,-38) scale(1,1)"><path fill="none" stroke="#000000" d="M 370.44116234090814 158.9955762777192 L 370 137 L 354.7587277407791 152.8651700249415 L 370.44116234090814 158.9955762777192" stroke-miterlimit="10"/></g><g transform="translate(-262,-38) scale(1,1)"><rect fill="#C0C0C0" stroke="none" x="431" y="255" width="101.4345703125" height="57" opacity="0.2"/></g><g transform="translate(-262,-38) scale(1,1)"><rect fill="#ffffff" stroke="none" x="424" y="248" width="101.4345703125" height="57"/></g><g transform="translate(-262,-38) scale(1,1)"><path fill="none" stroke="#000000" d="M 424 248 L 525.4345703125 248 L 525.4345703125 305 L 424 305 L 424 248 Z Z" stroke-miterlimit="10"/></g><g transform="translate(-262,-38) scale(1,1)"><path fill="none" stroke="#000000" d="M 424 273 L 525.4345703125 273" stroke-miterlimit="10"/></g><g transform="translate(-262,-38) scale(1,1)"><path fill="none" stroke="#000000" d="M 424 283 L 525.4345703125 283" stroke-miterlimit="10"/></g><g transform="translate(-262,-38) scale(1,1)"><g><path fill="none" stroke="none"/><text fill="#000000" stroke="none" font-family="Arial" font-size="13px" font-style="normal" font-weight="bold" text-decoration="none" x="432.07373046875" y="267.5">PythonStudent</text></g></g><g transform="translate(-262,-38) scale(1,1)"><g><path fill="none" stroke="none"/><text fill="#000000" stroke="none" font-family="Arial" font-size="13px" font-style="normal" font-weight="normal" text-decoration="none" x="429" y="300.5">+study()</text></g></g><g transform="translate(-262,-38) scale(1,1)"><path fill="none" stroke="#000000" d="M 460 247 L 409 137" stroke-miterlimit="10" stroke-dasharray="3"/></g><g transform="translate(-262,-38) scale(1,1)"><path fill="#FFFFFF" stroke="none" d="M 425.1874168271519 151.8985749809853 L 409 137 L 409.9113488093014 158.98111560744326"/></g><g transform="translate(-262,-38) scale(1,1)"><path fill="none" stroke="#000000" d="M 425.1874168271519 151.8985749809853 L 409 137 L 409.9113488093014 158.98111560744326 L 425.1874168271519 151.8985749809853" stroke-miterlimit="10"/></g><g transform="translate(-262,-38) scale(1,1)"><rect fill="#C0C0C0" stroke="none" x="319" y="399" width="174.13427734375" height="57" opacity="0.2"/></g><g transform="translate(-262,-38) scale(1,1)"><rect fill="#ffffff" stroke="none" x="312" y="392" width="174.13427734375" height="57"/></g><g transform="translate(-262,-38) scale(1,1)"><path fill="none" stroke="#000000" d="M 312 392 L 486.13427734375 392 L 486.13427734375 449 L 312 449 L 312 392 Z Z" stroke-miterlimit="10"/></g><g transform="translate(-262,-38) scale(1,1)"><path fill="none" stroke="#000000" d="M 312 417 L 486.13427734375 417" stroke-miterlimit="10"/></g><g transform="translate(-262,-38) scale(1,1)"><path fill="none" stroke="#000000" d="M 312 427 L 486.13427734375 427" stroke-miterlimit="10"/></g><g transform="translate(-262,-38) scale(1,1)"><g><path fill="none" stroke="none"/><text fill="#000000" stroke="none" font-family="Arial" font-size="13px" font-style="normal" font-weight="bold" text-decoration="none" x="354.989013671875" y="411.5">StudentFactory</text></g></g><g transform="translate(-262,-38) scale(1,1)"><g><path fill="none" stroke="none"/><text fill="#000000" stroke="none" font-family="Arial" font-size="13px" font-style="normal" font-weight="normal" text-decoration="none" x="317" y="444.5">+getStudent(String): Student</text></g></g><g transform="translate(-262,-38) scale(1,1)"><path fill="none" stroke="#000000" d="M 382 391 L 333 306" stroke-miterlimit="10" stroke-dasharray="3"/></g><g transform="translate(-262,-38) scale(1,1)"><path fill="none" stroke="#000000" d="M 341.72246515422654 312.7021341103639 L 333 306 L 334.428589781357 316.90683873707695" stroke-miterlimit="10"/></g><g transform="translate(-262,-38) scale(1,1)"><g><path fill="none" stroke="none"/><text fill="#000000" stroke="none" font-family="Arial" font-size="13px" font-style="normal" font-weight="normal" text-decoration="none" x="311.5" y="356.5">+create</text></g></g><g transform="translate(-262,-38) scale(1,1)"><path fill="none" stroke="#000000" d="M 414 391 L 458 306" stroke-miterlimit="10" stroke-dasharray="3"/></g><g transform="translate(-262,-38) scale(1,1)"><path fill="none" stroke="#000000" d="M 457.0664948440781 316.9603178842526 L 458 306 L 449.5897970740598 313.0900272738902" stroke-miterlimit="10"/></g><g transform="translate(-262,-38) scale(1,1)"><g><path fill="none" stroke="none"/><text fill="#000000" stroke="none" font-family="Arial" font-size="13px" font-style="normal" font-weight="normal" text-decoration="none" x="447.5" y="355.5">+create</text></g></g><g transform="translate(-262,-38) scale(1,1)"><rect fill="#C0C0C0" stroke="none" x="359" y="527" width="94.61083984375" height="57" opacity="0.2"/></g><g transform="translate(-262,-38) scale(1,1)"><rect fill="#ffffff" stroke="none" x="352" y="520" width="94.61083984375" height="57"/></g><g transform="translate(-262,-38) scale(1,1)"><path fill="none" stroke="#000000" d="M 352 520 L 446.61083984375 520 L 446.61083984375 577 L 352 577 L 352 520 Z Z" stroke-miterlimit="10"/></g><g transform="translate(-262,-38) scale(1,1)"><path fill="none" stroke="#000000" d="M 352 545 L 446.61083984375 545" stroke-miterlimit="10"/></g><g transform="translate(-262,-38) scale(1,1)"><path fill="none" stroke="#000000" d="M 352 555 L 446.61083984375 555" stroke-miterlimit="10"/></g><g transform="translate(-262,-38) scale(1,1)"><g><path fill="none" stroke="none"/><text fill="#000000" stroke="none" font-family="Arial" font-size="13px" font-style="normal" font-weight="bold" text-decoration="none" x="367.5068359375" y="539.5">Application</text></g></g><g transform="translate(-262,-38) scale(1,1)"><g><path fill="none" stroke="none"/><text fill="#000000" stroke="none" font-family="Arial" font-size="13px" font-style="normal" font-weight="normal" text-decoration="none" x="357" y="572.5">+Main(String[])</text></g></g><g transform="translate(-262,-38) scale(1,1)"><path fill="none" stroke="#000000" d="M 399 519 L 399 450" stroke-miterlimit="10" stroke-dasharray="3"/></g><g transform="translate(-262,-38) scale(1,1)"><path fill="none" stroke="#000000" d="M 403.209517756016 460.16267485762415 L 399 450 L 394.790482243984 460.16267485762415" stroke-miterlimit="10"/></g><g transform="translate(-262,-38) scale(1,1)"><g><path fill="none" stroke="none"/><text fill="#000000" stroke="none" font-family="Arial" font-size="13px" font-style="normal" font-weight="normal" text-decoration="none" x="406.85546875" y="489.5">+usage</text></g></g></g></svg>