<svg version="1.1" xmlns="http://www.w3.org/2000/svg" xmlns:xlink="http://www.w3.org/1999/xlink" width="246.72265625" height="110"><defs/><g><g transform="translate(-502,-210) scale(1,1)"><rect fill="#C0C0C0" stroke="none" x="519" y="247" width="153.89794921875" height="70" opacity="0.2"/></g><g transform="translate(-502,-210) scale(1,1)"><rect fill="#ffffff" stroke="none" x="512" y="240" width="153.89794921875" height="70"/></g><g transform="translate(-502,-210) scale(1,1)"><path fill="none" stroke="#000000" d="M 512 240 L 665.89794921875 240 L 665.89794921875 310 L 512 310 L 512 240 Z Z" stroke-miterlimit="10"/></g><g transform="translate(-502,-210) scale(1,1)"><path fill="none" stroke="#000000" d="M 512 265 L 665.89794921875 265" stroke-miterlimit="10"/></g><g transform="translate(-502,-210) scale(1,1)"><path fill="none" stroke="#000000" d="M 512 288 L 665.89794921875 288" stroke-miterlimit="10"/></g><g transform="translate(-502,-210) scale(1,1)"><g><path fill="none" stroke="none"/><text fill="#000000" stroke="none" font-family="Arial" font-size="13px" font-style="normal" font-weight="bold" text-decoration="none" x="561.844482421875" y="259.5">Singleton</text></g></g><g transform="translate(-502,-210) scale(1,1)"><g><path fill="none" stroke="none"/><text fill="#000000" stroke="none" font-family="Arial" font-size="13px" font-style="normal" font-weight="normal" text-decoration="none" x="517" y="282.5">+INSTANCE: Singleton</text></g></g><g transform="translate(-502,-210) scale(1,1)"><g><path fill="none" stroke="none"/><text fill="#000000" stroke="none" font-family="Arial" font-size="13px" font-style="normal" font-weight="normal" text-decoration="none" x="517" y="305.5">+getInstance(): Singleton</text></g></g><g transform="translate(-502,-210) scale(1,1)"><path fill="none" stroke="#000000" d="M 568 240 L 568 220 L 694 220 L 694 275 L 666 275" stroke-miterlimit="10"/></g><g transform="translate(-502,-210) scale(1,1)"><path fill="none" stroke="#000000" d="M 676.1626748576241 270.790482243984 L 666 275 L 676.1626748576241 279.209517756016" stroke-miterlimit="10"/></g><g transform="translate(-502,-210) scale(1,1)"><g><path fill="none" stroke="none"/><text fill="#000000" stroke="none" font-family="Arial" font-size="13px" font-style="normal" font-weight="normal" text-decoration="none" x="695.5" y="260.5">+create</text></g></g></g></svg>