<svg version="1.1" xmlns="http://www.w3.org/2000/svg" xmlns:xlink="http://www.w3.org/1999/xlink" width="814.31884765625" height="316"><defs/><g><g transform="translate(-78,-222) scale(1,1)"><rect fill="#C0C0C0" stroke="none" x="95" y="239" width="250.31884765625" height="85" opacity="0.2"/></g><g transform="translate(-78,-222) scale(1,1)"><rect fill="#ffffff" stroke="none" x="88" y="232" width="250.31884765625" height="85"/></g><g transform="translate(-78,-222) scale(1,1)"><path fill="none" stroke="#000000" d="M 88 232 L 338.31884765625 232 L 338.31884765625 317 L 88 317 L 88 232 Z Z" stroke-miterlimit="10"/></g><g transform="translate(-78,-222) scale(1,1)"><path fill="none" stroke="#000000" d="M 88 272 L 338.31884765625 272" stroke-miterlimit="10"/></g><g transform="translate(-78,-222) scale(1,1)"><path fill="none" stroke="#000000" d="M 88 295 L 338.31884765625 295" stroke-miterlimit="10"/></g><g transform="translate(-78,-222) scale(1,1)"><g><path fill="none" stroke="none"/><text fill="#000000" stroke="none" font-family="Arial" font-size="13px" font-style="normal" font-weight="bold" text-decoration="none" x="190.758544921875" y="251.5">Context</text></g></g><g transform="translate(-78,-222) scale(1,1)"><g><path fill="none" stroke="none"/><text fill="#000000" stroke="none" font-family="Arial" font-size="13px" font-style="normal" font-weight="normal" text-decoration="none" x="92.5" y="266.5">(from com.lizq.design.behavioral.strategy)</text></g></g><g transform="translate(-78,-222) scale(1,1)"><g><path fill="none" stroke="none"/><text fill="#000000" stroke="none" font-family="Arial" font-size="13px" font-style="normal" font-weight="normal" text-decoration="none" x="93" y="289.5">+strategy: Strategy</text></g></g><g transform="translate(-78,-222) scale(1,1)"><g><path fill="none" stroke="none"/><text fill="#000000" stroke="none" font-family="Arial" font-size="13px" font-style="normal" font-weight="normal" text-decoration="none" x="93" y="312.5">+doHandle()</text></g></g><g transform="translate(-78,-222) scale(1,1)"><rect fill="#C0C0C0" stroke="none" x="479" y="247" width="250.31884765625" height="75" opacity="0.2"/></g><g transform="translate(-78,-222) scale(1,1)"><rect fill="#ffffff" stroke="none" x="472" y="240" width="250.31884765625" height="75"/></g><g transform="translate(-78,-222) scale(1,1)"><path fill="none" stroke="#000000" d="M 472 240 L 722.31884765625 240 L 722.31884765625 315 L 472 315 L 472 240 Z Z" stroke-miterlimit="10"/></g><g transform="translate(-78,-222) scale(1,1)"><path fill="none" stroke="#000000" d="M 472 293 L 722.31884765625 293" stroke-miterlimit="10"/></g><g transform="translate(-78,-222) scale(1,1)"><g><path fill="none" stroke="none"/><text fill="#000000" stroke="none" font-family="Arial" font-size="13px" font-style="normal" font-weight="normal" text-decoration="none" x="564.9990234375" y="257.5">«interface»</text></g></g><g transform="translate(-78,-222) scale(1,1)"><g><path fill="none" stroke="none"/><text fill="#000000" stroke="none" font-family="Arial" font-size="13px" font-style="normal" font-weight="bold" text-decoration="none" x="572.95263671875" y="272.5">Strategy</text></g></g><g transform="translate(-78,-222) scale(1,1)"><g><path fill="none" stroke="none"/><text fill="#000000" stroke="none" font-family="Arial" font-size="13px" font-style="normal" font-weight="normal" text-decoration="none" x="476.5" y="287.5">(from com.lizq.design.behavioral.strategy)</text></g></g><g transform="translate(-78,-222) scale(1,1)"><g><path fill="none" stroke="none"/><text fill="#000000" stroke="none" font-family="Arial" font-size="13px" font-style="normal" font-weight="normal" text-decoration="none" x="477" y="310.5">+handle()</text></g></g><g transform="translate(-78,-222) scale(1,1)"><path fill="none" stroke="#000000" d="M 471 276 L 339 275" stroke-miterlimit="10"/></g><g transform="translate(-78,-222) scale(1,1)"><path fill="none" stroke="#000000" d="M 349.19427261248063 270.8675907871525 L 339 275 L 349.1304938705916 279.28638471650714" stroke-miterlimit="10"/></g><g transform="translate(-78,-222) scale(1,1)"><rect fill="#C0C0C0" stroke="none" x="343" y="463" width="250.31884765625" height="72" opacity="0.2"/></g><g transform="translate(-78,-222) scale(1,1)"><rect fill="#ffffff" stroke="none" x="336" y="456" width="250.31884765625" height="72"/></g><g transform="translate(-78,-222) scale(1,1)"><path fill="none" stroke="#000000" d="M 336 456 L 586.31884765625 456 L 586.31884765625 528 L 336 528 L 336 456 Z Z" stroke-miterlimit="10"/></g><g transform="translate(-78,-222) scale(1,1)"><path fill="none" stroke="#000000" d="M 336 496 L 586.31884765625 496" stroke-miterlimit="10"/></g><g transform="translate(-78,-222) scale(1,1)"><path fill="none" stroke="#000000" d="M 336 506 L 586.31884765625 506" stroke-miterlimit="10"/></g><g transform="translate(-78,-222) scale(1,1)"><g><path fill="none" stroke="none"/><text fill="#000000" stroke="none" font-family="Arial" font-size="13px" font-style="normal" font-weight="bold" text-decoration="none" x="406.24267578125" y="475.5">ConcreteStrategyA</text></g></g><g transform="translate(-78,-222) scale(1,1)"><g><path fill="none" stroke="none"/><text fill="#000000" stroke="none" font-family="Arial" font-size="13px" font-style="normal" font-weight="normal" text-decoration="none" x="340.5" y="490.5">(from com.lizq.design.behavioral.strategy)</text></g></g><g transform="translate(-78,-222) scale(1,1)"><g><path fill="none" stroke="none"/><text fill="#000000" stroke="none" font-family="Arial" font-size="13px" font-style="normal" font-weight="normal" text-decoration="none" x="341" y="523.5">+handle()</text></g></g><g transform="translate(-78,-222) scale(1,1)"><rect fill="#C0C0C0" stroke="none" x="639" y="463" width="250.31884765625" height="72" opacity="0.2"/></g><g transform="translate(-78,-222) scale(1,1)"><rect fill="#ffffff" stroke="none" x="632" y="456" width="250.31884765625" height="72"/></g><g transform="translate(-78,-222) scale(1,1)"><path fill="none" stroke="#000000" d="M 632 456 L 882.31884765625 456 L 882.31884765625 528 L 632 528 L 632 456 Z Z" stroke-miterlimit="10"/></g><g transform="translate(-78,-222) scale(1,1)"><path fill="none" stroke="#000000" d="M 632 496 L 882.31884765625 496" stroke-miterlimit="10"/></g><g transform="translate(-78,-222) scale(1,1)"><path fill="none" stroke="#000000" d="M 632 506 L 882.31884765625 506" stroke-miterlimit="10"/></g><g transform="translate(-78,-222) scale(1,1)"><g><path fill="none" stroke="none"/><text fill="#000000" stroke="none" font-family="Arial" font-size="13px" font-style="normal" font-weight="bold" text-decoration="none" x="702.24267578125" y="475.5">ConcreteStrategyB</text></g></g><g transform="translate(-78,-222) scale(1,1)"><g><path fill="none" stroke="none"/><text fill="#000000" stroke="none" font-family="Arial" font-size="13px" font-style="normal" font-weight="normal" text-decoration="none" x="636.5" y="490.5">(from com.lizq.design.behavioral.strategy)</text></g></g><g transform="translate(-78,-222) scale(1,1)"><g><path fill="none" stroke="none"/><text fill="#000000" stroke="none" font-family="Arial" font-size="13px" font-style="normal" font-weight="normal" text-decoration="none" x="637" y="523.5">+handle()</text></g></g><g transform="translate(-78,-222) scale(1,1)"><path fill="none" stroke="#000000" d="M 484 455 L 572 316" stroke-miterlimit="10"/></g><g transform="translate(-78,-222) scale(1,1)"><path fill="#FFFFFF" stroke="none" d="M 568.2411515376172 337.676509364675 L 572 316 L 554.0144859985811 328.66969952701186"/></g><g transform="translate(-78,-222) scale(1,1)"><path fill="none" stroke="#000000" d="M 568.2411515376172 337.676509364675 L 572 316 L 554.0144859985811 328.66969952701186 L 568.2411515376172 337.676509364675" stroke-miterlimit="10"/></g><g transform="translate(-78,-222) scale(1,1)"><path fill="none" stroke="#000000" d="M 729 455 L 626 316" stroke-miterlimit="10"/></g><g transform="translate(-78,-222) scale(1,1)"><path fill="#FFFFFF" stroke="none" d="M 644.8653319839167 327.31809388265583 L 626 316 L 631.336703240631 337.34290510969487"/></g><g transform="translate(-78,-222) scale(1,1)"><path fill="none" stroke="#000000" d="M 644.8653319839167 327.31809388265583 L 626 316 L 631.336703240631 337.34290510969487 L 644.8653319839167 327.31809388265583" stroke-miterlimit="10"/></g><g transform="translate(-78,-222) scale(1,1)"><path fill="#ffffff" stroke="none" d="M 88 360 L 207.76953125 360 L 217.76953125 370 L 217.76953125 398 L 88 398 L 88 360"/></g><g transform="translate(-78,-222) scale(1,1)"><path fill="none" stroke="#000000" d="M 88 360 L 207.76953125 360 L 217.76953125 370 L 217.76953125 398 L 88 398 L 88 360 L 88 360" stroke-miterlimit="10"/></g><g transform="translate(-78,-222) scale(1,1)"><path fill="none" stroke="#000000" d="M 207.76953125 360 L 207.76953125 370 L 217.76953125 370 L 207.76953125 360" stroke-miterlimit="10"/></g><g transform="translate(-78,-222) scale(1,1)"><g><path fill="none" stroke="none"/><text fill="#000000" stroke="none" font-family="Arial" font-size="13px" font-style="normal" font-weight="normal" text-decoration="none" x="93" y="378">this.strategy.handle</text></g></g><g transform="translate(-78,-222) scale(1,1)"><path fill="none" stroke="#000000" d="M 164 359 L 188 318" stroke-miterlimit="10" stroke-dasharray="3"/></g></g></svg>