<svg version="1.1" xmlns="http://www.w3.org/2000/svg" xmlns:xlink="http://www.w3.org/1999/xlink" width="593.93701171875" height="347"><defs/><g><g transform="translate(-126,-134) scale(1,1)"><rect fill="#C0C0C0" stroke="none" x="303" y="151" width="253.93701171875" height="132" opacity="0.2"/></g><g transform="translate(-126,-134) scale(1,1)"><rect fill="#ffffff" stroke="none" x="296" y="144" width="253.93701171875" height="132"/></g><g transform="translate(-126,-134) scale(1,1)"><path fill="none" stroke="#000000" d="M 296 144 L 549.93701171875 144 L 549.93701171875 276 L 296 276 L 296 144 Z Z" stroke-miterlimit="10"/></g><g transform="translate(-126,-134) scale(1,1)"><path fill="none" stroke="#000000" d="M 296 184 L 549.93701171875 184" stroke-miterlimit="10"/></g><g transform="translate(-126,-134) scale(1,1)"><path fill="none" stroke="#000000" d="M 296 194 L 549.93701171875 194" stroke-miterlimit="10"/></g><g transform="translate(-126,-134) scale(1,1)"><g><path fill="none" stroke="none"/><text fill="#000000" stroke="none" font-family="Arial" font-size="13px" font-style="italic" font-weight="bold" text-decoration="none" x="372.62841796875" y="163.5">AbstractTemplate</text></g></g><g transform="translate(-126,-134) scale(1,1)"><g><path fill="none" stroke="none"/><text fill="#000000" stroke="none" font-family="Arial" font-size="13px" font-style="normal" font-weight="normal" text-decoration="none" x="300.5" y="178.5">(from com.lizq.design.behavioral.template)</text></g></g><g transform="translate(-126,-134) scale(1,1)"><g><path fill="none" stroke="none"/><text fill="#000000" stroke="none" font-family="Arial" font-size="13px" font-style="normal" font-weight="normal" text-decoration="none" x="301" y="211.5">#stepOne()</text></g></g><g transform="translate(-126,-134) scale(1,1)"><g><path fill="none" stroke="none"/><text fill="#000000" stroke="none" font-family="Arial" font-size="13px" font-style="normal" font-weight="normal" text-decoration="none" x="301" y="226.5">#stepTwo()</text></g></g><g transform="translate(-126,-134) scale(1,1)"><g><path fill="none" stroke="none"/><text fill="#000000" stroke="none" font-family="Arial" font-size="13px" font-style="normal" font-weight="normal" text-decoration="none" x="301" y="241.5">#stepThree()</text></g></g><g transform="translate(-126,-134) scale(1,1)"><g><path fill="none" stroke="none"/><text fill="#000000" stroke="none" font-family="Arial" font-size="13px" font-style="normal" font-weight="normal" text-decoration="none" x="301" y="256.5">#hook(): boolean</text></g></g><g transform="translate(-126,-134) scale(1,1)"><g><path fill="none" stroke="none"/><text fill="#000000" stroke="none" font-family="Arial" font-size="13px" font-style="normal" font-weight="normal" text-decoration="none" x="301" y="271.5">+doIt()</text></g></g><g transform="translate(-126,-134) scale(1,1)"><rect fill="#C0C0C0" stroke="none" x="143" y="391" width="253.93701171875" height="87" opacity="0.2"/></g><g transform="translate(-126,-134) scale(1,1)"><rect fill="#ffffff" stroke="none" x="136" y="384" width="253.93701171875" height="87"/></g><g transform="translate(-126,-134) scale(1,1)"><path fill="none" stroke="#000000" d="M 136 384 L 389.93701171875 384 L 389.93701171875 471 L 136 471 L 136 384 Z Z" stroke-miterlimit="10"/></g><g transform="translate(-126,-134) scale(1,1)"><path fill="none" stroke="#000000" d="M 136 424 L 389.93701171875 424" stroke-miterlimit="10"/></g><g transform="translate(-126,-134) scale(1,1)"><path fill="none" stroke="#000000" d="M 136 434 L 389.93701171875 434" stroke-miterlimit="10"/></g><g transform="translate(-126,-134) scale(1,1)"><g><path fill="none" stroke="none"/><text fill="#000000" stroke="none" font-family="Arial" font-size="13px" font-style="normal" font-weight="bold" text-decoration="none" x="232.258544921875" y="403.5">ConcreteA</text></g></g><g transform="translate(-126,-134) scale(1,1)"><g><path fill="none" stroke="none"/><text fill="#000000" stroke="none" font-family="Arial" font-size="13px" font-style="normal" font-weight="normal" text-decoration="none" x="140.5" y="418.5">(from com.lizq.design.behavioral.template)</text></g></g><g transform="translate(-126,-134) scale(1,1)"><g><path fill="none" stroke="none"/><text fill="#000000" stroke="none" font-family="Arial" font-size="13px" font-style="normal" font-weight="normal" text-decoration="none" x="141" y="451.5">+stepThree()</text></g></g><g transform="translate(-126,-134) scale(1,1)"><g><path fill="none" stroke="none"/><text fill="#000000" stroke="none" font-family="Arial" font-size="13px" font-style="normal" font-weight="normal" text-decoration="none" x="141" y="466.5">+hook(): boolean</text></g></g><g transform="translate(-126,-134) scale(1,1)"><rect fill="#C0C0C0" stroke="none" x="463" y="399" width="253.93701171875" height="72" opacity="0.2"/></g><g transform="translate(-126,-134) scale(1,1)"><rect fill="#ffffff" stroke="none" x="456" y="392" width="253.93701171875" height="72"/></g><g transform="translate(-126,-134) scale(1,1)"><path fill="none" stroke="#000000" d="M 456 392 L 709.93701171875 392 L 709.93701171875 464 L 456 464 L 456 392 Z Z" stroke-miterlimit="10"/></g><g transform="translate(-126,-134) scale(1,1)"><path fill="none" stroke="#000000" d="M 456 432 L 709.93701171875 432" stroke-miterlimit="10"/></g><g transform="translate(-126,-134) scale(1,1)"><path fill="none" stroke="#000000" d="M 456 442 L 709.93701171875 442" stroke-miterlimit="10"/></g><g transform="translate(-126,-134) scale(1,1)"><g><path fill="none" stroke="none"/><text fill="#000000" stroke="none" font-family="Arial" font-size="13px" font-style="normal" font-weight="bold" text-decoration="none" x="552.258544921875" y="411.5">ConcreteB</text></g></g><g transform="translate(-126,-134) scale(1,1)"><g><path fill="none" stroke="none"/><text fill="#000000" stroke="none" font-family="Arial" font-size="13px" font-style="normal" font-weight="normal" text-decoration="none" x="460.5" y="426.5">(from com.lizq.design.behavioral.template)</text></g></g><g transform="translate(-126,-134) scale(1,1)"><g><path fill="none" stroke="none"/><text fill="#000000" stroke="none" font-family="Arial" font-size="13px" font-style="normal" font-weight="normal" text-decoration="none" x="461" y="459.5">+stepTwo()</text></g></g><g transform="translate(-126,-134) scale(1,1)"><path fill="none" stroke="#000000" d="M 294 383 L 373 277" stroke-miterlimit="10"/></g><g transform="translate(-126,-134) scale(1,1)"><path fill="#FFFFFF" stroke="none" d="M 367.6045264886552 298.3281238178227 L 373 277 L 354.10356311084695 288.26608507398447"/></g><g transform="translate(-126,-134) scale(1,1)"><path fill="none" stroke="#000000" d="M 367.6045264886552 298.3281238178227 L 373 277 L 354.10356311084695 288.26608507398447 L 367.6045264886552 298.3281238178227" stroke-miterlimit="10"/></g><g transform="translate(-126,-134) scale(1,1)"><path fill="none" stroke="#000000" d="M 555 391 L 471 277" stroke-miterlimit="10"/></g><g transform="translate(-126,-134) scale(1,1)"><path fill="#FFFFFF" stroke="none" d="M 489.83477158295875 288.36887766746435 L 471 277 L 476.27918421526545 298.35720520155417"/></g><g transform="translate(-126,-134) scale(1,1)"><path fill="none" stroke="#000000" d="M 489.83477158295875 288.36887766746435 L 471 277 L 476.27918421526545 298.35720520155417 L 489.83477158295875 288.36887766746435" stroke-miterlimit="10"/></g></g></svg>