<svg version="1.1" xmlns="http://www.w3.org/2000/svg" xmlns:xlink="http://www.w3.org/1999/xlink" width="674.0234375" height="625"><defs/><g><g transform="translate(-70,-38) scale(1,1)"><rect fill="#C0C0C0" stroke="none" x="287" y="585" width="238.0234375" height="75" opacity="0.2"/></g><g transform="translate(-70,-38) scale(1,1)"><rect fill="#ffffff" stroke="none" x="280" y="578" width="238.0234375" height="75"/></g><g transform="translate(-70,-38) scale(1,1)"><path fill="none" stroke="#000000" d="M 280 578 L 518.0234375 578 L 518.0234375 653 L 280 653 L 280 578 Z Z" stroke-miterlimit="10"/></g><g transform="translate(-70,-38) scale(1,1)"><path fill="none" stroke="#000000" d="M 280 631 L 518.0234375 631" stroke-miterlimit="10"/></g><g transform="translate(-70,-38) scale(1,1)"><g><path fill="none" stroke="none"/><text fill="#000000" stroke="none" font-family="Arial" font-size="13px" font-style="normal" font-weight="normal" text-decoration="none" x="366.851318359375" y="595.5">«interface»</text></g></g><g transform="translate(-70,-38) scale(1,1)"><g><path fill="none" stroke="none"/><text fill="#000000" stroke="none" font-family="Arial" font-size="13px" font-style="normal" font-weight="bold" text-decoration="none" x="375.166748046875" y="610.5">Element</text></g></g><g transform="translate(-70,-38) scale(1,1)"><g><path fill="none" stroke="none"/><text fill="#000000" stroke="none" font-family="Arial" font-size="13px" font-style="normal" font-weight="normal" text-decoration="none" x="284.5" y="625.5">(from com.lizq.design.behavioral.visitor)</text></g></g><g transform="translate(-70,-38) scale(1,1)"><g><path fill="none" stroke="none"/><text fill="#000000" stroke="none" font-family="Arial" font-size="13px" font-style="normal" font-weight="normal" text-decoration="none" x="285" y="648.5">+visit(visitor: Visitor)</text></g></g><g transform="translate(-70,-38) scale(1,1)"><rect fill="#C0C0C0" stroke="none" x="87" y="383" width="238.0234375" height="100" opacity="0.2"/></g><g transform="translate(-70,-38) scale(1,1)"><rect fill="#ffffff" stroke="none" x="80" y="376" width="238.0234375" height="100"/></g><g transform="translate(-70,-38) scale(1,1)"><path fill="none" stroke="#000000" d="M 80 376 L 318.0234375 376 L 318.0234375 476 L 80 476 L 80 376 Z Z" stroke-miterlimit="10"/></g><g transform="translate(-70,-38) scale(1,1)"><path fill="none" stroke="#000000" d="M 80 416 L 318.0234375 416" stroke-miterlimit="10"/></g><g transform="translate(-70,-38) scale(1,1)"><path fill="none" stroke="#000000" d="M 80 439 L 318.0234375 439" stroke-miterlimit="10"/></g><g transform="translate(-70,-38) scale(1,1)"><g><path fill="none" stroke="none"/><text fill="#000000" stroke="none" font-family="Arial" font-size="13px" font-style="normal" font-weight="bold" text-decoration="none" x="168.3017578125" y="395.5">BusinessB</text></g></g><g transform="translate(-70,-38) scale(1,1)"><g><path fill="none" stroke="none"/><text fill="#000000" stroke="none" font-family="Arial" font-size="13px" font-style="normal" font-weight="normal" text-decoration="none" x="84.5" y="410.5">(from com.lizq.design.behavioral.visitor)</text></g></g><g transform="translate(-70,-38) scale(1,1)"><g><path fill="none" stroke="none"/><text fill="#000000" stroke="none" font-family="Arial" font-size="13px" font-style="normal" font-weight="normal" text-decoration="none" x="85" y="433.5">+properties: String</text></g></g><g transform="translate(-70,-38) scale(1,1)"><g><path fill="none" stroke="none"/><text fill="#000000" stroke="none" font-family="Arial" font-size="13px" font-style="normal" font-weight="normal" text-decoration="none" x="85" y="456.5">+toString(): String</text></g></g><g transform="translate(-70,-38) scale(1,1)"><g><path fill="none" stroke="none"/><text fill="#000000" stroke="none" font-family="Arial" font-size="13px" font-style="normal" font-weight="normal" text-decoration="none" x="85" y="471.5">+visit(visitor: Visitor)</text></g></g><g transform="translate(-70,-38) scale(1,1)"><rect fill="#C0C0C0" stroke="none" x="503" y="383" width="238.0234375" height="100" opacity="0.2"/></g><g transform="translate(-70,-38) scale(1,1)"><rect fill="#ffffff" stroke="none" x="496" y="376" width="238.0234375" height="100"/></g><g transform="translate(-70,-38) scale(1,1)"><path fill="none" stroke="#000000" d="M 496 376 L 734.0234375 376 L 734.0234375 476 L 496 476 L 496 376 Z Z" stroke-miterlimit="10"/></g><g transform="translate(-70,-38) scale(1,1)"><path fill="none" stroke="#000000" d="M 496 416 L 734.0234375 416" stroke-miterlimit="10"/></g><g transform="translate(-70,-38) scale(1,1)"><path fill="none" stroke="#000000" d="M 496 439 L 734.0234375 439" stroke-miterlimit="10"/></g><g transform="translate(-70,-38) scale(1,1)"><g><path fill="none" stroke="none"/><text fill="#000000" stroke="none" font-family="Arial" font-size="13px" font-style="normal" font-weight="bold" text-decoration="none" x="584.3017578125" y="395.5">BusinessA</text></g></g><g transform="translate(-70,-38) scale(1,1)"><g><path fill="none" stroke="none"/><text fill="#000000" stroke="none" font-family="Arial" font-size="13px" font-style="normal" font-weight="normal" text-decoration="none" x="500.5" y="410.5">(from com.lizq.design.behavioral.visitor)</text></g></g><g transform="translate(-70,-38) scale(1,1)"><g><path fill="none" stroke="none"/><text fill="#000000" stroke="none" font-family="Arial" font-size="13px" font-style="normal" font-weight="normal" text-decoration="none" x="501" y="433.5">+attr: String</text></g></g><g transform="translate(-70,-38) scale(1,1)"><g><path fill="none" stroke="none"/><text fill="#000000" stroke="none" font-family="Arial" font-size="13px" font-style="normal" font-weight="normal" text-decoration="none" x="501" y="456.5">+toString(): String</text></g></g><g transform="translate(-70,-38) scale(1,1)"><g><path fill="none" stroke="none"/><text fill="#000000" stroke="none" font-family="Arial" font-size="13px" font-style="normal" font-weight="normal" text-decoration="none" x="501" y="471.5">+visit(visitor: Visitor)</text></g></g><g transform="translate(-70,-38) scale(1,1)"><rect fill="#C0C0C0" stroke="none" x="287" y="223" width="238.0234375" height="90" opacity="0.2"/></g><g transform="translate(-70,-38) scale(1,1)"><rect fill="#ffffff" stroke="none" x="280" y="216" width="238.0234375" height="90"/></g><g transform="translate(-70,-38) scale(1,1)"><path fill="none" stroke="#000000" d="M 280 216 L 518.0234375 216 L 518.0234375 306 L 280 306 L 280 216 Z Z" stroke-miterlimit="10"/></g><g transform="translate(-70,-38) scale(1,1)"><path fill="none" stroke="#000000" d="M 280 269 L 518.0234375 269" stroke-miterlimit="10"/></g><g transform="translate(-70,-38) scale(1,1)"><g><path fill="none" stroke="none"/><text fill="#000000" stroke="none" font-family="Arial" font-size="13px" font-style="normal" font-weight="normal" text-decoration="none" x="366.851318359375" y="233.5">«interface»</text></g></g><g transform="translate(-70,-38) scale(1,1)"><g><path fill="none" stroke="none"/><text fill="#000000" stroke="none" font-family="Arial" font-size="13px" font-style="normal" font-weight="bold" text-decoration="none" x="381.070068359375" y="248.5">Visitor</text></g></g><g transform="translate(-70,-38) scale(1,1)"><g><path fill="none" stroke="none"/><text fill="#000000" stroke="none" font-family="Arial" font-size="13px" font-style="normal" font-weight="normal" text-decoration="none" x="284.5" y="263.5">(from com.lizq.design.behavioral.visitor)</text></g></g><g transform="translate(-70,-38) scale(1,1)"><g><path fill="none" stroke="none"/><text fill="#000000" stroke="none" font-family="Arial" font-size="13px" font-style="normal" font-weight="normal" text-decoration="none" x="285" y="286.5">+visite(a: BusinessA)</text></g></g><g transform="translate(-70,-38) scale(1,1)"><g><path fill="none" stroke="none"/><text fill="#000000" stroke="none" font-family="Arial" font-size="13px" font-style="normal" font-weight="normal" text-decoration="none" x="285" y="301.5">+visite(b: BusinessB)</text></g></g><g transform="translate(-70,-38) scale(1,1)"><rect fill="#C0C0C0" stroke="none" x="287" y="55" width="238.0234375" height="87" opacity="0.2"/></g><g transform="translate(-70,-38) scale(1,1)"><rect fill="#ffffff" stroke="none" x="280" y="48" width="238.0234375" height="87"/></g><g transform="translate(-70,-38) scale(1,1)"><path fill="none" stroke="#000000" d="M 280 48 L 518.0234375 48 L 518.0234375 135 L 280 135 L 280 48 Z Z" stroke-miterlimit="10"/></g><g transform="translate(-70,-38) scale(1,1)"><path fill="none" stroke="#000000" d="M 280 88 L 518.0234375 88" stroke-miterlimit="10"/></g><g transform="translate(-70,-38) scale(1,1)"><path fill="none" stroke="#000000" d="M 280 98 L 518.0234375 98" stroke-miterlimit="10"/></g><g transform="translate(-70,-38) scale(1,1)"><g><path fill="none" stroke="none"/><text fill="#000000" stroke="none" font-family="Arial" font-size="13px" font-style="normal" font-weight="bold" text-decoration="none" x="354.695556640625" y="67.5">ConcreteVisitor</text></g></g><g transform="translate(-70,-38) scale(1,1)"><g><path fill="none" stroke="none"/><text fill="#000000" stroke="none" font-family="Arial" font-size="13px" font-style="normal" font-weight="normal" text-decoration="none" x="284.5" y="82.5">(from com.lizq.design.behavioral.visitor)</text></g></g><g transform="translate(-70,-38) scale(1,1)"><g><path fill="none" stroke="none"/><text fill="#000000" stroke="none" font-family="Arial" font-size="13px" font-style="normal" font-weight="normal" text-decoration="none" x="285" y="115.5">+visite(a: BusinessA)</text></g></g><g transform="translate(-70,-38) scale(1,1)"><g><path fill="none" stroke="none"/><text fill="#000000" stroke="none" font-family="Arial" font-size="13px" font-style="normal" font-weight="normal" text-decoration="none" x="285" y="130.5">+visite(b: BusinessB)</text></g></g><g transform="translate(-70,-38) scale(1,1)"><path fill="none" stroke="#000000" d="M 253 477 L 359 577" stroke-miterlimit="10" stroke-dasharray="3"/></g><g transform="translate(-70,-38) scale(1,1)"><path fill="#FFFFFF" stroke="none" d="M 338.4381554889766 569.1762828333013 L 359 577 L 349.99278377521017 556.9283768498938"/></g><g transform="translate(-70,-38) scale(1,1)"><path fill="none" stroke="#000000" d="M 338.4381554889766 569.1762828333013 L 359 577 L 349.99278377521017 556.9283768498938 L 338.4381554889766 569.1762828333013" stroke-miterlimit="10"/></g><g transform="translate(-70,-38) scale(1,1)"><path fill="none" stroke="#000000" d="M 557 477 L 442 577" stroke-miterlimit="10" stroke-dasharray="3"/></g><g transform="translate(-70,-38) scale(1,1)"><path fill="#FFFFFF" stroke="none" d="M 451.8132292318395 557.3098874547815 L 442 577 L 462.8620130382221 570.0159888321215"/></g><g transform="translate(-70,-38) scale(1,1)"><path fill="none" stroke="#000000" d="M 451.8132292318395 557.3098874547815 L 442 577 L 462.8620130382221 570.0159888321215 L 451.8132292318395 557.3098874547815" stroke-miterlimit="10"/></g><g transform="translate(-70,-38) scale(1,1)"><path fill="none" stroke="#000000" d="M 343 307 L 261 375" stroke-miterlimit="10" stroke-dasharray="3"/></g><g transform="translate(-70,-38) scale(1,1)"><path fill="none" stroke="#000000" d="M 266.13571369318595 365.27249030524143 L 261 375 L 271.5098860479061 371.75310990946275" stroke-miterlimit="10"/></g><g transform="translate(-70,-38) scale(1,1)"><path fill="none" stroke="#000000" d="M 459 307 L 548 375" stroke-miterlimit="10" stroke-dasharray="3"/></g><g transform="translate(-70,-38) scale(1,1)"><path fill="none" stroke="#000000" d="M 537.3689481193711 372.17498036973586 L 548 375 L 542.4803016616062 365.4851205865165" stroke-miterlimit="10"/></g><g transform="translate(-70,-38) scale(1,1)"><path fill="none" stroke="#000000" d="M 399 136 L 399 215" stroke-miterlimit="10" stroke-dasharray="3"/></g><g transform="translate(-70,-38) scale(1,1)"><path fill="#FFFFFF" stroke="none" d="M 390.580964487968 194.6746502847517 L 399 215 L 407.419035512032 194.6746502847517"/></g><g transform="translate(-70,-38) scale(1,1)"><path fill="none" stroke="#000000" d="M 390.580964487968 194.6746502847517 L 399 215 L 407.419035512032 194.6746502847517 L 390.580964487968 194.6746502847517" stroke-miterlimit="10"/></g><g transform="translate(-70,-38) scale(1,1)"><path fill="none" stroke="#000000" d="M 399 577 L 399 307" stroke-miterlimit="10" stroke-dasharray="3"/></g><g transform="translate(-70,-38) scale(1,1)"><path fill="none" stroke="#000000" d="M 403.209517756016 317.16267485762415 L 399 307 L 394.790482243984 317.16267485762415" stroke-miterlimit="10"/></g></g></svg>